<svg xmlns="http://www.w3.org/2000/svg" width="187.263" height="4.288" viewBox="0 0 187.263 4.288">
    <defs>
        <style>
            .prefix__cls-1{fill:#daa812;fill-rule:evenodd}
        </style>
    </defs>
    <g id="prefix__Group_1685" data-name="Group 1685" transform="translate(-149.442 -47.119)">
        <path id="prefix__Path_2065" d="M330.3 49.851v.678h-39.366a4.438 4.438 0 0 0-2.231.5 16.151 16.151 0 0 1-3.087-1.056 7.16 7.16 0 0 0-4.92-.1c-.968.3-1.91.672-2.813 1.019-2.734 1.05-5.9 1.7-7.963-.155a15.073 15.073 0 0 1-2.277.4c-4.04.373-5.785-1.9-3.033-2.812 1.249-.413 2.992-.275 3.489.7-2.2-.478-4.227.985-1.646 1.4a12.824 12.824 0 0 0 4.947-.725c2.506-.788 5.959-1.469 7.931.045a12.617 12.617 0 0 1 3.858-.972c2.689-.091 3.47 1.078 6.069 1.078zm-140.658.678v-.678h41.044c2.6 0 3.38-1.169 6.069-1.078a12.625 12.625 0 0 1 3.858.972c1.972-1.514 5.425-.833 7.931-.045a12.822 12.822 0 0 0 4.948.715c2.581-.413.556-1.875-1.646-1.4.5-.97 2.24-1.108 3.488-.7 2.752.911 1.007 3.185-3.033 2.812a15.064 15.064 0 0 1-2.277-.4c-2.065 1.859-5.229 1.2-7.963.155-.9-.347-1.846-.722-2.814-1.019a7.159 7.159 0 0 0-4.92.1 16.151 16.151 0 0 1-3.087 1.056 4.438 4.438 0 0 0-2.231-.5zm81.051-.005c1.972 1.642 5.1.575 7.373-.3l.1-.037c-1.842-1.177-4.918-.463-6.991.19q-.237.075-.479.145m-21.444 0c-.162-.047-.321-.1-.479-.145-2.073-.652-5.149-1.366-6.991-.19l.1.037c2.274.873 5.4 1.939 7.374.3" class="prefix__cls-1" data-name="Path 2065" transform="translate(-16.9 -.745)"/>
        <path id="prefix__Path_2066" d="M558.583 59.173a2.21 2.21 0 0 1-2.194-2.242 2.243 2.243 0 0 1 2.4-2.041 2.212 2.212 0 0 1 2.2 2.237 2.25 2.25 0 0 1-2.408 2.047" class="prefix__cls-1" data-name="Path 2066" transform="translate(-245.287 -7.769)"/>
        <path id="prefix__Path_2067" d="M572.442 59.593a2.043 2.043 0 1 1 2.1-1.95 2.029 2.029 0 0 1-2.1 1.95" class="prefix__cls-1" data-name="Path 2067" transform="translate(-251.233 -8.29)"/>
        <path id="prefix__Path_2068" d="M585.268 59.967a1.864 1.864 0 0 1-1.63-2.027 1.812 1.812 0 0 1 1.785-1.854 1.861 1.861 0 0 1 1.622 2.031 1.808 1.808 0 0 1-1.778 1.85" class="prefix__cls-1" data-name="Path 2068" transform="translate(-256.742 -8.764)"/>
        <path id="prefix__Path_2069" d="M597.059 60.293a1.718 1.718 0 0 1-1.339-1.921c.035-1.021.695-1.806 1.467-1.759a1.72 1.72 0 0 1 1.338 1.927c-.036 1.015-.692 1.8-1.465 1.753" class="prefix__cls-1" data-name="Path 2069" transform="translate(-261.82 -9.181)"/>
        <path id="prefix__Path_2070" d="M188.081 59.173a2.211 2.211 0 0 0 2.194-2.242 2.244 2.244 0 0 0-2.4-2.041 2.213 2.213 0 0 0-2.2 2.237 2.25 2.25 0 0 0 2.41 2.047" class="prefix__cls-1" data-name="Path 2070" transform="translate(-15.228 -7.769)"/>
        <path id="prefix__Path_2071" d="M174.655 59.593a2.043 2.043 0 1 0-2.1-1.95 2.028 2.028 0 0 0 2.1 1.95" class="prefix__cls-1" data-name="Path 2071" transform="translate(-9.717 -8.29)"/>
        <path id="prefix__Path_2072" d="M162.263 59.967a1.864 1.864 0 0 0 1.63-2.027 1.812 1.812 0 0 0-1.785-1.854 1.861 1.861 0 0 0-1.622 2.031 1.808 1.808 0 0 0 1.778 1.85" class="prefix__cls-1" data-name="Path 2072" transform="translate(-4.642 -8.764)"/>
        <path id="prefix__Path_2073" d="M150.909 60.293a1.717 1.717 0 0 0 1.339-1.921c-.035-1.021-.694-1.806-1.467-1.759a1.719 1.719 0 0 0-1.337 1.927c.035 1.015.691 1.8 1.465 1.753" class="prefix__cls-1" data-name="Path 2073" transform="translate(0 -9.181)"/>
    </g>
</svg>
