<svg xmlns="http://www.w3.org/2000/svg" width="90.201" height="17.232" viewBox="0 0 90.201 17.232">
    <defs>
        <style>
            .prefix__cls-1{fill:#daa812;fill-rule:evenodd}
        </style>
    </defs>
    <g id="prefix__Group_1689" data-name="Group 1689" transform="translate(-275.893 -96.453)">
        <path id="prefix__Path_2074" d="M415.815 111.374c-1.876.792-2.437-.82-4.466-.82-1.731 0-2.3.863-2.3 1.5a1.433 1.433 0 0 0 .057.388h-15.889c-3.244 0-5.423-1.875-5.423-4.665a3.612 3.612 0 0 1 3.608-3.609 2.765 2.765 0 0 1 2.762 2.763 2.087 2.087 0 0 1-2.085 2.085 1.547 1.547 0 0 1-1.545-1.544.621.621 0 1 0-1.241 0 2.791 2.791 0 0 0 2.786 2.788 3.332 3.332 0 0 0 3.327-3.328 4.009 4.009 0 0 0-4-4.005 4.857 4.857 0 0 0-4.851 4.852 5.545 5.545 0 0 0 2.382 4.665h-7.687c-5.616 0-9.537-3.4-9.537-8.262a6.493 6.493 0 0 1 6.485-6.487 5.071 5.071 0 0 1 5.065 5.065 3.931 3.931 0 0 1-3.926 3.927 3.02 3.02 0 0 1-3.017-3.017 2.274 2.274 0 0 1 .827-1.748 1.49 1.49 0 0 0 1.6 1.143 2.632 2.632 0 0 0 2.372-1.262.135.135 0 0 0-.17-.183c-1.03.361-.932-.964-1.92-1.313a.622.622 0 0 0-.422-.17 3.536 3.536 0 0 0-3.532 3.533 4.264 4.264 0 0 0 4.26 4.258 5.175 5.175 0 0 0 5.169-5.169 6.313 6.313 0 0 0-6.307-6.307 7.737 7.737 0 0 0-7.727 7.728c0 5.507 4.533 9.5 10.779 9.5h30.285c2.08 0 4.331-1.425 4.649-2.147.061-.138-.186-.238-.369-.16" class="prefix__cls-1" data-name="Path 2074" transform="translate(-50.099)"/>
        <path id="prefix__Path_2075" d="M313.887 96.453a6.313 6.313 0 0 0-6.306 6.307 5.174 5.174 0 0 0 5.168 5.169 4.264 4.264 0 0 0 4.26-4.258 3.536 3.536 0 0 0-3.531-3.533.615.615 0 0 0-.423.17c-.988.349-.889 1.673-1.919 1.313a.134.134 0 0 0-.169.183 2.627 2.627 0 0 0 2.371 1.262 1.49 1.49 0 0 0 1.6-1.143 2.274 2.274 0 0 1 .828 1.748 3.021 3.021 0 0 1-3.017 3.017 3.931 3.931 0 0 1-3.926-3.927 5.071 5.071 0 0 1 5.064-5.065 6.493 6.493 0 0 1 6.485 6.486c0 4.865-3.921 8.262-9.536 8.262h-7.683a5.544 5.544 0 0 0 2.382-4.665 4.856 4.856 0 0 0-4.85-4.852 4.01 4.01 0 0 0-4 4.005 3.332 3.332 0 0 0 3.328 3.328 2.791 2.791 0 0 0 2.786-2.788.621.621 0 0 0-1.243 0 1.545 1.545 0 0 1-1.544 1.544 2.088 2.088 0 0 1-2.086-2.085 2.765 2.765 0 0 1 2.763-2.763 3.612 3.612 0 0 1 3.608 3.609c0 2.79-2.179 4.665-5.423 4.665h-15.898a1.433 1.433 0 0 0 .057-.388c0-.638-.565-1.5-2.3-1.5-2.029 0-2.589 1.612-4.467.82-.182-.077-.428.023-.368.16.317.722 2.568 2.147 4.647 2.147h30.285c6.246 0 10.779-4 10.779-9.5a7.736 7.736 0 0 0-7.727-7.728" class="prefix__cls-1" data-name="Path 2075"/>
    </g>
</svg>
