<svg xmlns="http://www.w3.org/2000/svg" width="54.888" height="48.891" viewBox="0 0 54.888 48.891">
    <defs>
        <clipPath id="prefix__clip-path">
            <path id="prefix__Path_1996" fill="none" d="M359.4 306.759c-.374.019-.75.031-1.128.034-1.41.01-4.4-1.6-4.961.054-1.451.91 1.244 2.378 2.817 2.852 1.761.53 3.974.184 5.6.967a7.7 7.7 0 0 0-1.2.811c.812.683 2.987.921 4.135 1.2 2.012.489 4.051.814 6.071 1.348 3.967 1.046 9.23 2.922 13.33 2.131-.144-1.448-1.795-1.853.4-2.151a35.158 35.158 0 0 1 5.477 0 34.139 34.139 0 0 0 10.717-1.129c.957-.286 4.593-1.209 4.949-2.253.454-1.339 4.239-2.865.631-3.776-2.878-.826-2.865-.379-5.783-.444-3.813-.085-8.82.287-12.167-1.818-.669-.419-1.172-1.293-1.83-1.632a7.889 7.889 0 0 0-2.6-.364 32.07 32.07 0 0 0-6.721-.034 44.169 44.169 0 0 0-9.09 2.59 16.744 16.744 0 0 1-4.35 1.285c-1.435.09-2.855.258-4.297.329z" data-name="Path 1996" transform="translate(-352.901 -302.392)"/>
        </clipPath>
        <style>
            .prefix__cls-5{fill:#c4b6a7}.prefix__cls-10,.prefix__cls-5{opacity:.7}.prefix__cls-10,.prefix__cls-5,.prefix__cls-9{mix-blend-mode:multiply;isolation:isolate}.prefix__cls-7,.prefix__cls-9{fill:#9f6841}.prefix__cls-10,.prefix__cls-8{fill:#c17e4f}.prefix__cls-9{opacity:.5}.prefix__cls-16{fill:#845636}.prefix__cls-17{fill:#a6a8ab}.prefix__cls-18{fill:#828285}
        </style>
    </defs>
    <g id="prefix__Group_1645" data-name="Group 1645" transform="translate(-352.901 -253.572)">
        <path id="prefix__Path_1962" fill="#45200b" d="M359.4 306.759c-.374.019-.75.031-1.128.034-1.41.01-4.4-1.6-4.961.054-1.451.91 1.244 2.378 2.817 2.852 1.761.53 3.974.184 5.6.967a7.7 7.7 0 0 0-1.2.811c.812.683 2.987.921 4.135 1.2 2.012.489 4.051.814 6.071 1.348 3.967 1.046 9.23 2.922 13.33 2.131-.144-1.448-1.795-1.853.4-2.151a35.158 35.158 0 0 1 5.477 0 34.139 34.139 0 0 0 10.717-1.129c.957-.286 4.593-1.209 4.949-2.253.454-1.339 4.239-2.865.631-3.776-2.878-.826-2.865-.379-5.783-.444-3.813-.085-8.82.287-12.167-1.818-.669-.419-1.172-1.293-1.83-1.632a7.889 7.889 0 0 0-2.6-.364 32.07 32.07 0 0 0-6.721-.034 44.169 44.169 0 0 0-9.09 2.59 16.744 16.744 0 0 1-4.35 1.285c-1.435.09-2.855.258-4.297.329z" data-name="Path 1962" transform="translate(0 -13.883)"/>
        <path id="prefix__Path_1963" fill="#562e17" d="M391.783 310.094A81.478 81.478 0 0 0 381.69 310c-1.824.1-3.628.457-5.458.474-2.244.021-4.418-.364-6.7-.293-.51.015-2.179-.281-2.438.268-.687 1.474 7.69 2.538 8.671 2.728 1.942.379 3.676 1.638 5.6 1.782 2.98.224 5.9-.907 8.891-.9 3.046.005 5.991-.15 9.023-.271.783-.031 5.654-.359 5.161-1.9-.465-1.448-6.708-1.368-7.94-1.441-1.574-.083-3.137-.247-4.717-.353z" data-name="Path 1963" transform="translate(-4.023 -16.014)"/>
        <path id="prefix__Path_1964" fill="#c4b6a7" d="M357.892 292.963s2.445-16.194 4.227-18.007a11.8 11.8 0 0 0 2.245.044s.794-3.955.6-4.969 1.056-4.57 1.056-4.57l.594-.57a4.982 4.982 0 0 0 .528-1.826c-.065-.61.99-4.219 2.048-4.916s2.311-.147 3.037-.525.727-1.688 1.453-2.014 1.849-.8 1.849-.8l1.124-1.148 2.047-.088a19.491 19.491 0 0 0 2.645 1.771 23.993 23.993 0 0 0 3.034-1.771h2.774a13.987 13.987 0 0 0 2.047 1.236c.595.205 1.981 2.52 3.434 2.039a9.73 9.73 0 0 1 .726 1.641l1.849.306a15.406 15.406 0 0 0 1.651 2.987 11.753 11.753 0 0 1 1.585 1.62l.925 6.512 1.056 3.373 1.057 5.473 2.311.541s.925 3.721.991 4.6 0 3.992 0 3.992l1.122 1.217 1.651 3.855z" data-name="Path 1964" transform="translate(-1.419)"/>
        <path id="prefix__Path_1965" d="M364.373 295.424a5.043 5.043 0 0 0 .781-3.1c-.169-1.838-1.441-4.143-1.353-5.862.892 3.128 2.324 2.435 2.324 2.435l2.023-3.245v-5.681l-.557-8.258 1.834 4.016.928-10.848 2.541-2.646a7.42 7.42 0 0 0 1.735 2.166c.808.48 2.792-.24 4.325-.481 1.052 2.163 4.492 3.228 4.492 3.228l2.994-2.026 3.354-.933 1.96 2.958 4.426 1.309-.7 3.845.012 4.362a4.088 4.088 0 0 0 3.032 2.166 15.911 15.911 0 0 1-3.032 4.043l3.032 4.741 2.165 7.808z" class="prefix__cls-5" data-name="Path 1965" transform="translate(-3.099 -2.464)"/>
        <path id="prefix__Path_1966" fill="#302311" d="M395.9 298.64h-20.71v-.1c.064-1.444.556-6.024.808-7.6.014-.071.022-.137.036-.2.274-1.486.5-8.023.815-11.183.115-1.182.3-2.654.49-4.039.094-.671.188-1.32.275-1.9.187-.009.381-.023.577-.03l.541-.022c1.038-.036 2.208-.036 3.42.022l.671.044c.966.072 2.085.173 3.268.3l1.018.107c.173.022.345.044.519.059.346.043.686.079 1.032.121h.006c.347.045.686.087 1.026.125 1.19.151 2.337.3 3.348.439 0 .151 0 .3-.008.44v.066c-.044 1.579.231 7.3.361 8.434s.858 6.983 1.082 8.563c.225 1.492.995 4.614 1.425 6.354z" data-name="Path 1966" transform="translate(-6.338 -5.677)"/>
        <g id="prefix__Group_1641" data-name="Group 1641" transform="translate(365.048 264.687)">
            <g id="prefix__Group_1637" data-name="Group 1637" transform="translate(0 .306)">
                <path id="prefix__Path_1967" d="M376.464 270a.616.616 0 0 0-.014.094c-.014.116-.05.338-.093.648-.052.34-.116.78-.187 1.293a3.779 3.779 0 0 0-.065.447c-.087.584-.181 1.232-.275 1.9-.187 1.385-.375 2.857-.49 4.039-.318 3.16-.541 9.7-.815 11.183-.014.064-.022.13-.037.2-.252 1.574-.744 6.155-.808 7.6v.1a1.507 1.507 0 0 0-.006.245v.022h-.094c-.145 0-.29 0-.434-.007-.469 0-.967-.006-1.465-.015-.3 0-.613 0-.916.009s-.6.006-.887.014v-.022c.007-.072.007-.158.021-.245 0-.057.009-.123.009-.187.028-.288.072-.634.122-1.017a1.069 1.069 0 0 1 .014-.151q.033-.25.065-.52c.028-.159.05-.324.072-.49.029-.21.065-.418.094-.635.4-2.676.959-5.967 1.046-6.884.137-1.4.678-6.81.858-8.029.022-.152.058-.346.094-.563.021-.107.044-.224.064-.345s.044-.253.066-.39.05-.274.079-.413v-.006c.022-.145.05-.289.079-.433.267-1.494.584-3.233.612-4.027.009-.137.009-.295.009-.461a1.857 1.857 0 0 0 .007-.2v-.135c.007-.145.007-.3.007-.449 0-.786-.007-1.637-.014-2.148-.009-.26-.009-.44-.009-.477l1.111.151z" class="prefix__cls-7" data-name="Path 1967" transform="translate(-369.875 -269.534)"/>
                <g id="prefix__Group_1636" data-name="Group 1636" transform="translate(3.046 .462)">
                    <path id="prefix__Path_1968" d="M377.673 270.176a.606.606 0 0 0-.014.094c-.014.116-.05.338-.093.648-.052.34-.116.78-.187 1.293a3.766 3.766 0 0 0-.065.447c-.087.584-.181 1.232-.275 1.9-.187 1.385-.375 2.857-.49 4.039-.318 3.16-.541 9.7-.815 11.183-.014.064-.022.13-.036.2a39.538 39.538 0 0 0-.808 7.6v.1c0 .08.007.158.007.239-.007 0-.007 0-.014.006l-.094.022a.609.609 0 0 1-.434-.007.287.287 0 0 1-.108-.079.367.367 0 0 1-.087-.18c-.18-.663.512-2.229.5-2.741a24.088 24.088 0 0 1 .361-5.563c.426-1.912.072-4 .491-5.938s.3-3.99.54-5.953c.122-.973.339-1.927.541-2.885.007-.043.014-.137.021-.274.015-.354.029-.974.058-1.631 0-.158.007-.317.014-.475.014-.282.029-.555.044-.808.043-.7.115-1.241.223-1.241h.721z" class="prefix__cls-8" data-name="Path 1968" transform="translate(-374.13 -270.176)"/>
                </g>
                <path id="prefix__Path_1969" d="M369.874 297.764c.578-.022 1.191-.022 1.8-.022a56.13 56.13 0 0 0 .361-7.063 11.814 11.814 0 0 1 .231-3.472 5.892 5.892 0 0 1 .628 1.083c-.4-1.848-.137-7.886.339-7.661a46.371 46.371 0 0 1-.065-5.232l.807.4a48.3 48.3 0 0 1 .3-6.118l-1.111-.152s.043 2.621 0 3.883-.815 4.957-1 6.175-.722 6.631-.858 8.03-1.338 8.208-1.432 10.149z" class="prefix__cls-9" data-name="Path 1969" transform="translate(-369.874 -269.531)"/>
            </g>
            <g id="prefix__Group_1639" data-name="Group 1639" transform="translate(21.641 1.306)">
                <path id="prefix__Path_1970" d="M405.8 298.139v.028h-.1c-.144 0-.324-.007-.519-.014h-.006c-.347-.009-.744-.022-1.126-.029-.188 0-.368 0-.535.007h-.034a.085.085 0 0 0-.044.008 1.354 1.354 0 0 0-.153.006h-.023c-.069.006-.137.012-.2.019v-.014a.047.047 0 0 1-.007-.029c-.014-.072-.036-.144-.057-.224-.434-1.739-1.205-4.863-1.428-6.363-.224-1.579-.945-7.438-1.082-8.563s-.405-6.854-.361-8.434v-.066c.008-.144.008-.289.008-.44s.007-.3.007-.447c.006-.491.006-.98 0-1.4 0-.266 0-.511-.007-.707 0-.107 0-.21-.008-.288v-.26h2.619c0 .173.008.36.021.555.022.267.051.556.094.859a.905.905 0 0 0 .021.123c.079.6.2 1.247.311 1.868.007.057.021.116.029.173.057.31.114.62.173.908s.1.534.137.773c.057.318.1.6.13.844a4.139 4.139 0 0 1 .035.469 1 1 0 0 1-.006.142c-.087 1 .4 5.686.54 7.713.016.253.037.506.066.757.289 2.692 1.234 9.4 1.465 11.508.015.08.021.158.029.238v.036c.001.105.011.185.011.244z" class="prefix__cls-7" data-name="Path 1970" transform="translate(-400.114 -270.929)"/>
                <g id="prefix__Group_1638" data-name="Group 1638" transform="translate(1.9)">
                    <path id="prefix__Path_1971" d="M406.571 298.133h-.015v.007l-.1.022h-.009a.811.811 0 0 1-.518-.014h-.007c-.592-.268-.138-1.544-.13-2.172a33.532 33.532 0 0 0-.44-3.788c-.094-.938-.606-1.6-.721-2.46s.188-1.9.05-2.827c-.079-.534-.158-1.054-.23-1.574-.18-1.312-.331-2.6-.419-4.018-.086-1.393-.144-2.814-.158-4.192a7.337 7.337 0 0 0-.122-1.2c-.2-1.212-.635-2.387-.844-3.614h-.008a8.021 8.021 0 0 1-.13-1.377h.721a10.806 10.806 0 0 0 .116 1.413c.13 1 .354 2.107.535 3.074.05.274.1.534.137.773.057.318.1.6.13.843a4.37 4.37 0 0 1 .036.469 1.028 1.028 0 0 1-.006.145c-.087 1 .4 5.686.54 7.712.014.253.036.5.064.757.3 3.844.989 7.677 1.464 11.507a2.269 2.269 0 0 1 .029.238c.014.096.02.183.035.276z" class="prefix__cls-8" data-name="Path 1971" transform="translate(-402.769 -270.928)"/>
                </g>
                <path id="prefix__Path_1972" d="M404.044 298.124c-.188 0-.368 0-.535.007h-.034a.085.085 0 0 0-.044.008 1.354 1.354 0 0 0-.153.006h-.023c-.069.006-.137.012-.2.019v-.014a.047.047 0 0 1-.007-.029c-.014-.072-.036-.144-.057-.224-.434-1.739-1.205-4.863-1.428-6.363-.224-1.579-.945-7.438-1.082-8.563s-.405-6.854-.361-8.434v-.066c.008-.144.008-.289.008-.44s.007-.3.007-.447c.006-.491.006-.98 0-1.4 0-.266 0-.511-.007-.707 0-.107 0-.21-.008-.288v-.26h.353c-.006.094-.014.194-.029.3s-.014.215-.021.324c-.008.21-.021.425-.021.656-.016.433-.007.917.021 1.421.014.152.021.3.036.456.022.192.043.4.072.6a12.589 12.589 0 0 0 1.529 4.545 8.532 8.532 0 0 1-1.169-1.177 33.078 33.078 0 0 0 .339 6.177c.469 2.077 1.183 5.5 1.731 6.269a4.55 4.55 0 0 1-.945-1.169s.383 5.852 1.891 8.571l.137.222z" class="prefix__cls-9" data-name="Path 1972" transform="translate(-400.114 -270.929)"/>
            </g>
            <path id="prefix__Path_1973" d="M377.552 271.213c-.052.34-.116.78-.187 1.293a3.761 3.761 0 0 0-.065.447c-.087.584-.181 1.232-.275 1.9l-.426-.231-1.4-.75-.822-.447-.3-.158.015-.007.288-.173.887-.535s0 .009.008 0l1.436-.843z" class="prefix__cls-10" data-name="Path 1973" transform="translate(-371.07 -269.703)"/>
            <path id="prefix__Path_1974" d="M403.527 276.69l-.527-.267-2.468-1.241-.411-.21c.008-.144.008-.289.008-.44s.007-.3.007-.447c.006-.491.006-.98 0-1.4l.267.021 1.745.1h.036c.021 0 .05.007.072.007l.6.029a.912.912 0 0 0 .021.123c.079.6.2 1.247.311 1.868.007.057.021.116.029.173.057.31.114.62.173.908s.1.537.137.776z" class="prefix__cls-10" data-name="Path 1974" transform="translate(-378.475 -270.122)"/>
            <g id="prefix__Group_1640" data-name="Group 1640" transform="translate(2.878)">
                <path id="prefix__Path_1975" fill="#8b5b39" d="M396.575 271.12s-.064.468-.167 1.054a13.852 13.852 0 0 1-.381 1.876l-.267-.059c-.159-.029-.339-.057-.555-.094-.563-.094-1.32-.21-2.2-.331-.108-.016-.217-.029-.331-.052-1.01-.137-2.158-.288-3.348-.439-.34-.043-.678-.087-1.026-.125h-.006c-.346-.042-.686-.085-1.032-.121-.174-.014-.346-.037-.519-.059-.347-.035-.678-.072-1.018-.107-1.184-.123-2.3-.225-3.268-.3l-.671-.044c-1.212-.058-2.382-.058-3.42-.022l-.541.022c-.2.007-.389.021-.577.03l-.643.042c-.094.007-.18.016-.274.022-.145.014-.288.021-.426.036s-.267.021-.4.037-.215.021-.317.035h-.029c-.115.015-.216.022-.31.036-.195.014-.354.036-.482.058a.092.092 0 0 1-.037.006.839.839 0 0 1-.13.016 1.627 1.627 0 0 0-.173.029h-.007v-.11c0-.381-.008-1.716-.072-2.734-.007-.274-.029-.52-.051-.721 1.219-.043 9.61 1.068 12.331 1.068 1.406-.007 4.133.251 6.434.5.108.007.217.021.324.036.57.057 1.111.122 1.587.173.268.028.513.057.729.085.782.099 1.273.157 1.273.157z" data-name="Path 1975" transform="translate(-373.896 -269.104)"/>
                <path id="prefix__Path_1976" fill="#ac7147" d="M396.076 275.079l-.267-.059c-.159-.029-.339-.057-.555-.094-.562-.094-1.32-.21-2.2-.331-.108-.016-.217-.029-.331-.052-1.01-.137-2.158-.288-3.348-.439-.34-.043-.678-.087-1.026-.124h-.006c-.346-.042-.686-.085-1.032-.121-.174-.014-.346-.036-.519-.059-.347-.035-.678-.072-1.018-.107-1.184-.123-2.3-.225-3.268-.3l-.671-.044c-1.212-.058-2.382-.058-3.42-.022l-.541.022c-.2.007-.389.021-.577.03l-.643.042c-.094.007-.18.016-.274.022-.145.014-.288.021-.426.036s-.267.021-.4.037c-.107.006-.215.021-.317.028v.007h-.029c-.115.009-.216.022-.31.036-.195.014-.354.036-.482.058h-.036c-.051.006-.094.015-.13.022a.949.949 0 0 0-.158.022h-.022v-.506c0-.05.115-.087.318-.116s.527-.064.879-.087c0 0 0 .009.008 0 .433-.021.923-.035 1.392-.035.246-.009.477-.014.693-.014.519-.009.915-.009.988-.016a14.628 14.628 0 0 1 1.911-.187c.75.044 1.486.115 2.221.18.7.066 1.4.122 2.107.165a32.016 32.016 0 0 1 4.271.57c1.277.239 2.576.281 3.868.447l.288.043c.252.037.5.073.75.125a12.919 12.919 0 0 1 1.393.309c.13.036.26.079.389.13a1.82 1.82 0 0 1 .231.145c.14.114.285.229.299.237z" data-name="Path 1976" transform="translate(-373.945 -270.134)"/>
                <path id="prefix__Path_1977" fill="#8b5b39" d="M373.895 269.1c.022.2.046.449.055.72a4.691 4.691 0 0 0 1.257.114 3.014 3.014 0 0 0-.289-.329 9.97 9.97 0 0 1 1.944.246 10.505 10.505 0 0 0 2.288.17 1.1 1.1 0 0 1-.26.317c.742-.035 1.495.044 2.229-.006.562-.034 1.132-.039 1.692-.1-.117.087-.218.21-.328.289a28.068 28.068 0 0 1 3.984.175 5.043 5.043 0 0 1 1.883.188c-.132.1-.159.156-.287.169a19.481 19.481 0 0 0 2.387-.182 6.217 6.217 0 0 1 2.5.152 10.838 10.838 0 0 0 2.388.494.783.783 0 0 1-.62.268c.453.089 1.083.278 1.7.383.1-.58.165-1.048.165-1.048s-7.636-.953-10.352-.949-11.114-1.108-12.336-1.071z" data-name="Path 1977" transform="translate(-373.895 -269.103)" style="mix-blend-mode:multiply;isolation:isolate" opacity="0.5"/>
            </g>
        </g>
        <path id="prefix__Path_1978" fill="#3b1b09" d="M395.9 307.766h-20.709s5.467-2.017 7-2.017h.271c.186 0 .4-.009.63-.016h.058c1.3-.039 3.185-.126 4.742-.1h.05c.215 0 .424.012.625.019.415.018.792.047 1.111.094a41.932 41.932 0 0 1 6.222 2.02z" data-name="Path 1978" transform="translate(-6.338 -14.803)"/>
        <path id="prefix__Path_1979" d="M391.73 258.443a10.159 10.159 0 0 0 0 2.976 14.147 14.147 0 0 1 5.5-5.05c-1.621-.541-5.5 2.074-5.5 2.074z" class="prefix__cls-5" data-name="Path 1979" transform="translate(-11.007 -.774)"/>
        <path id="prefix__Path_1980" d="M418.6 288.766l2.311.541s-2.978 5.515-2.708 7.048a24.788 24.788 0 0 1 .397-7.589z" class="prefix__cls-5" data-name="Path 1980" transform="translate(-18.542 -10.008)"/>
        <path id="prefix__Path_1981" d="M363.8 283.453l2.245.044s-.438 3.406-.708 4.626c-.994-2.837-1.537-4.67-1.537-4.67z" class="prefix__cls-5" data-name="Path 1981" transform="translate(-3.099 -8.497)"/>
        <path id="prefix__Path_1982" d="M407.446 260.441l1.849.306.376 3.746z" class="prefix__cls-5" data-name="Path 1982" transform="translate(-15.51 -1.953)"/>
        <path id="prefix__Path_1983" d="M383.847 253.66l-.637 4.424 2.684-4.512z" class="prefix__cls-5" data-name="Path 1983" transform="translate(-8.619)"/>
        <g id="prefix__Group_1644" data-name="Group 1644" transform="translate(352.901 288.51)">
            <g id="prefix__Group_1643" clip-path="url(#prefix__clip-path)" data-name="Group 1643">
                <g id="prefix__Group_1642" data-name="Group 1642" transform="translate(14.278 2.323)">
                    <path id="prefix__Path_1984" d="M386.5 317.2h-7.953v1.992h15.908V317.2z" class="prefix__cls-7" data-name="Path 1984" transform="translate(-374.472 -308.925)"/>
                    <path id="prefix__Path_1985" d="M386.5 319.98h-7.953v.394h15.908v-.394z" class="prefix__cls-16" data-name="Path 1985" transform="translate(-374.472 -309.717)"/>
                    <path id="prefix__Path_1986" d="M387.252 312.266h-6.063v1.2h12.128v-1.2z" class="prefix__cls-7" data-name="Path 1986" transform="translate(-375.223 -307.523)"/>
                    <path id="prefix__Path_1987" d="M387.252 313.947h-6.063v.238h12.128v-.238z" class="prefix__cls-16" data-name="Path 1987" transform="translate(-375.223 -308.001)"/>
                    <path id="prefix__Path_1988" d="M387.785 308.986h-4.722v.855h9.445v-.855z" class="prefix__cls-7" data-name="Path 1988" transform="translate(-375.755 -306.591)"/>
                    <path id="prefix__Path_1989" d="M387.785 310.182h-4.722v.169h9.445v-.169z" class="prefix__cls-16" data-name="Path 1989" transform="translate(-375.755 -306.931)"/>
                    <path id="prefix__Path_1990" d="M388.259 306.818h-3.529v.64h7.059v-.64z" class="prefix__cls-7" data-name="Path 1990" transform="translate(-376.229 -305.974)"/>
                    <path id="prefix__Path_1991" d="M388.259 307.713h-3.529v.126h7.059v-.126z" class="prefix__cls-16" data-name="Path 1991" transform="translate(-376.229 -306.228)"/>
                    <path id="prefix__Path_1992" d="M402.642 318.383h-2.236l-1.839-3.165-.759-1.308-1.212-2.088-.139-.239-.7-1.2-.767-1.323-.1-.169-.495-.856-.155-.266-.3-.52-.072-.125-.372-.642-.49-.844c.215 0 .424.012.625.019l1.493 2.11.188.266.02.031z" class="prefix__cls-17" data-name="Path 1992" transform="translate(-378.584 -305.639)"/>
                    <path id="prefix__Path_1993" d="M400.386 318.383v1.491l-1.872-3.578-.207-.394-1.041-1.992-1.092-2.088-.126-.239-.628-1.2-.692-1.322-.089-.169-.448-.855-.139-.266-.27-.52-.066-.125-.337-.641-.441-.844h.05l.491.844.372.641.072.125.3.52.155.266.495.855.1.169.767 1.322.7 1.2.139.239 1.211 2.088.759 1.308z" class="prefix__cls-18" data-name="Path 1993" transform="translate(-378.564 -305.639)"/>
                    <path id="prefix__Path_1994" d="M382.427 305.773l-.434.748-.372.642-.071.125-.3.52-.155.266-.495.856-.1.169-.767 1.323-.7 1.2-.14.239-1.212 2.088-.756 1.3-1.84 3.168h-2.236l7.306-10.318.021-.031.189-.266 1.43-2.018c.189 0 .405-.004.632-.011z" class="prefix__cls-17" data-name="Path 1994" transform="translate(-372.852 -305.677)"/>
                    <path id="prefix__Path_1995" d="M383.374 305.772l-.392.749-.336.642-.066.125-.271.52-.139.266-.447.856-.089.169-.692 1.322-.629 1.2-.125.239-1.091 2.088-1.043 1.992-.206.394-1.871 3.578v-1.491l1.84-3.168.756-1.3 1.212-2.088.14-.239.7-1.2.767-1.322.1-.169.495-.856.155-.266.3-.52.071-.125.372-.642.434-.748z" class="prefix__cls-18" data-name="Path 1995" transform="translate(-373.741 -305.677)"/>
                </g>
            </g>
        </g>
    </g>
</svg>
