<svg xmlns="http://www.w3.org/2000/svg" width="74" height="39.609" viewBox="0 0 74 39.609">
    <defs>
        <style>
            .prefix__cls-1{fill:#3b3c42}.prefix__cls-2{fill:#5e5e5e}.prefix__cls-5{fill:#7a7a7a}.prefix__cls-11,.prefix__cls-18,.prefix__cls-6{fill:#fff}.prefix__cls-6{opacity:.2}.prefix__cls-7{fill:#a5a5a5}.prefix__cls-11,.prefix__cls-17,.prefix__cls-8{opacity:.3}.prefix__cls-9{fill:#d9d9d9}.prefix__cls-10{fill:#646464}.prefix__cls-12{fill:#ffcb0f}.prefix__cls-13{fill:#fcbb1b}.prefix__cls-21{fill:#989898}.prefix__cls-22{fill:#2b7ca6}
        </style>
    </defs>
    <g id="prefix__Group_1667" data-name="Group 1667" transform="translate(-346.25 -156.661)">
        <path id="prefix__Rectangle_377" d="M0 0H0.904V9.072H0z" class="prefix__cls-1" data-name="Rectangle 377" transform="translate(361.982 168.285)"/>
        <path id="prefix__Path_1997" d="M365.934 187.743l4.03-15.182 44.462 1.658s4.248 6.42 4.248 13.433c-4.008-.001-52.74.091-52.74.091z" class="prefix__cls-2" data-name="Path 1997" transform="translate(-3.499 -2.827)"/>
        <path id="prefix__Rectangle_378" fill="#474747" d="M0 0H10.533V2.52H0z" data-name="Rectangle 378" transform="translate(381.589 183.682)"/>
        <path id="prefix__Rectangle_379" fill="#2d2d2d" d="M0 0H9.386V1.449H0z" data-name="Rectangle 379" transform="translate(382.093 186.203)"/>
        <g id="prefix__Group_1647" data-name="Group 1647" transform="translate(357.78 173.371)">
            <path id="prefix__Path_1998" d="M362.855 188.9a9.328 9.328 0 0 0 18.616.851c.025-.28.038-.564.038-.848a9.34 9.34 0 0 0-9.266-9.331h-.058c-.139 0-.275 0-.411.007a9.345 9.345 0 0 0-8.844 8.165c0 .027 0 .053-.008.078a8.736 8.736 0 0 0-.067 1.078zm6.172 4.762c-.05-.039-.111-.075-.164-.115-.081-.057-.155-.117-.23-.173a.447.447 0 0 1-.067-.057 1.007 1.007 0 0 1-.091-.073l-.2-.178a.64.64 0 0 1-.064-.062c-.044-.039-.095-.091-.143-.141a5.687 5.687 0 0 1-1.6-3.963 5.388 5.388 0 0 1 .09-.994.467.467 0 0 1 .018-.081c0-.038.013-.076.017-.113.018-.086.039-.174.065-.26a.352.352 0 0 1 .02-.082c.016-.067.033-.132.052-.193.032-.094.065-.183.1-.277.013-.026.02-.053.033-.082l.041-.107a2.566 2.566 0 0 1 .114-.241.237.237 0 0 1 .035-.078c.028-.06.055-.121.086-.178a5.71 5.71 0 0 1 4.25-2.972.352.352 0 0 1 .088-.016l.113-.015.243-.019h.025a.322.322 0 0 0 .083-.007h.4a.276.276 0 0 1 .092.01.343.343 0 0 1 .087 0c.039 0 .075.006.113.008l.267.025a.39.39 0 0 1 .083.016 1.854 1.854 0 0 1 .195.029 5.709 5.709 0 0 1 4.14 3.121.433.433 0 0 1 .042.078.748.748 0 0 1 .049.1c.038.081.072.164.1.244.01.029.021.056.029.082.026.062.047.127.067.189.031.093.06.183.085.281a.654.654 0 0 1 .025.082c.007.039.022.075.027.108.019.09.042.174.054.26a.779.779 0 0 1 .016.086c.012.07.026.132.032.2a5.444 5.444 0 0 1 .055.794 5.7 5.7 0 0 1-1.744 4.1.372.372 0 0 1-.062.059c-.029.025-.055.055-.083.076l-.2.179c-.024.017-.044.035-.066.05-.049.041-.1.083-.158.122-.081.056-.158.118-.242.171-.023.016-.05.03-.071.044l-.1.062c-.076.048-.155.094-.228.135-.028.016-.053.03-.079.043-.056.031-.117.062-.173.092a5.707 5.707 0 0 1-5.186-.092.667.667 0 0 1-.078-.043.926.926 0 0 1-.1-.053c-.072-.044-.152-.092-.229-.141-.022-.013-.05-.026-.073-.042z" class="prefix__cls-5" data-name="Path 1998" transform="translate(-360.732 -177.443)"/>
            <path id="prefix__Path_1999" d="M361.052 190.283c-.012-.073-.025-.147-.036-.221l-.612.1a11.414 11.414 0 0 1-.13-1.889l.619.008c0-.112.009-.228.011-.34v-.023c0-.063.009-.124.011-.187s.007-.118.013-.177l-.617-.049a11.252 11.252 0 0 1 .308-1.871l.6.153c.029-.12.061-.234.1-.352s.071-.231.108-.346l-.59-.194a11.022 11.022 0 0 1 .735-1.744l.548.285c.06-.1.113-.212.173-.318l.105-.179c.017-.029.031-.06.049-.089a.03.03 0 0 0 .008-.012l.018-.028-.53-.326a11.975 11.975 0 0 1 1.118-1.529l.469.407.2-.22.046-.051.041-.043c.069-.074.139-.149.21-.221l-.439-.437a12.231 12.231 0 0 1 1.436-1.232l.363.506.045-.026c.039-.03.077-.055.116-.085l.137-.095c.013-.011.03-.019.044-.03l.26-.167-.327-.528a11.72 11.72 0 0 1 1.681-.867l.238.576.015-.011.322-.127.344-.121-.2-.585c.307-.109.607-.188.912-.268.153-.039.306-.076.464-.106s.309-.058.465-.083l.1.613c.058-.01.117-.018.173-.025a.847.847 0 0 0 .084-.014c.035-.006.067-.007.1-.013s.078-.01.117-.015l.129-.012a.85.85 0 0 1 .118-.014l-.057-.619c.315-.028.64-.042.943-.048h.252l.225.008c.155 0 .314.01.47.02l-.043.619a.415.415 0 0 1 .046.006l.1.006c.07 0 .138.012.2.022h.01l.121.016.24.03.084-.617c.155.024.31.047.465.076s.321.064.469.1c.3.068.618.151.913.248l-.187.59.344.115.076.027a.5.5 0 0 0 .065.023l.049.015c.037.017.075.031.109.047l.045.011.226-.571a10.949 10.949 0 0 1 1.7.837l-.318.532c.016.012.037.025.056.037.086.052.169.1.251.152l.1.072a.28.28 0 0 1 .052.031c.023.019.049.031.073.048l.076.05.354-.51a11.406 11.406 0 0 1 1.459 1.205l-.432.44.109.109c.03.028.058.058.086.087l.044.045.021.021a.321.321 0 0 1 .036.038c.03.034.061.063.095.1a.216.216 0 0 0 .032.039c.027.032.056.062.085.092l.46-.414a10.876 10.876 0 0 1 1.145 1.5l-.52.335c.039.063.076.124.113.189.026.039.053.081.077.123l.179.314.546-.3c.074.138.15.283.221.428.066.129.133.285.2.422s.122.29.183.437c.03.068.058.15.089.229l.078.215-.585.2.112.344.1.349.6-.161a11.162 11.162 0 0 1 .347 1.86l-.617.065c0 .053.007.111.012.173s.012.123.016.184V187.802l.012.219v.045l.618-.022a11.916 11.916 0 0 1-.088 1.892l-.617-.081a.222.222 0 0 1 0 .034c-.014.112-.032.219-.05.326l-.064.361.608.121a11.6 11.6 0 0 1-.525 1.818l-.581-.224c-.04.119-.09.229-.135.34l-.131.289-.017.044.563.257a11.1 11.1 0 0 1-.932 1.647l-.512-.349-.017.025a1.435 1.435 0 0 0-.085.127c-.035.048-.072.1-.11.146-.066.1-.142.2-.218.289l.489.386a11.9 11.9 0 0 1-1.286 1.388l-.419-.457-.271.238c-.016.015-.033.027-.048.039a.609.609 0 0 1-.064.055c-.053.048-.111.094-.169.14l.388.483a11.068 11.068 0 0 1-1.55 1.048L377 197.9l-.023.013a.484.484 0 0 0-.068.036c-.018.012-.039.021-.059.032-.055.03-.113.062-.17.09-.111.053-.215.107-.323.158l.262.561a11.136 11.136 0 0 1-1.767.666l-.172-.594-.06.014-.068.021-.094.025-.132.034-.053.011-.3.074.132.6a11.209 11.209 0 0 1-1.888.24l-.023-.622-.178.007h-.55l-.02.617a10.586 10.586 0 0 1-1.875-.2l.113-.606c-.048-.012-.1-.021-.146-.034a1.19 1.19 0 0 1-.155-.029l-.025-.007a.118.118 0 0 1-.03-.006l-.354-.086-.158.6c-.308-.077-.609-.175-.905-.278s-.583-.219-.885-.357l.261-.562-.33-.155-.288-.147-.029-.016-.3.546-.209-.113-.2-.115c-.145-.083-.273-.168-.409-.254-.262-.17-.52-.354-.771-.544l.38-.494-.206-.158-.077-.066-.127-.109-.05-.041a.12.12 0 0 1-.03-.026l-.012-.012-.059-.052-.408.469a11.577 11.577 0 0 1-1.314-1.365l.48-.392-.053-.069a.2.2 0 0 1-.028-.032l-.033-.042c-.035-.046-.076-.093-.111-.142l-.214-.292-.509.358a12.227 12.227 0 0 1-.964-1.628l.559-.27-.01-.024a.734.734 0 0 1-.034-.067c-.025-.054-.052-.109-.074-.168l-.035-.073c-.011-.017-.014-.038-.023-.055-.016-.036-.035-.072-.051-.111a1.74 1.74 0 0 0-.07-.169l-.571.234a11.111 11.111 0 0 1-.566-1.807l.606-.138-.076-.356c-.004-.047-.01-.094-.019-.14z" class="prefix__cls-1" data-name="Path 1999" transform="translate(-360.273 -176.984)"/>
            <path id="prefix__Path_2000" d="M381.305 189.673a9.308 9.308 0 0 0-18.616 0 4.2 4.2 0 0 1-.23-1.53 9.653 9.653 0 0 1 19.307 0c0 1.274-.461 2.241-.461 1.53z" class="prefix__cls-6" data-name="Path 2000" transform="translate(-360.661 -177.252)"/>
            <g id="prefix__Group_1646" data-name="Group 1646" transform="translate(5.013 5.015)">
                <path id="prefix__Path_2001" d="M366.981 191.628c.007.022.019.04.026.061.031.1.071.187.109.279-.049-.111-.094-.223-.135-.34zm1.431 2.25l.095.1c-.036-.033-.063-.065-.095-.099zm10.438-2.978a2.879 2.879 0 0 1-.093.354 1.5 1.5 0 0 0 .051-.192c.013-.05.029-.103.042-.162zm-12.48-1.381v.03a6.448 6.448 0 0 0 1.894 4.526c.054.057.109.105.165.155.021.018.038.038.055.056.053.04.1.09.155.131.032.032.069.063.106.1a.425.425 0 0 1 .069.047c.081.065.162.129.252.187a1.8 1.8 0 0 0 .18.128.3.3 0 0 0 .066.042l.171.113c.041.021.085.048.128.071a.737.737 0 0 0 .067.038 6.4 6.4 0 0 0 6.062.1 1.519 1.519 0 0 0 .2-.1c.021-.012.047-.025.067-.038l.173-.1c.045-.025.082-.054.123-.082a.2.2 0 0 0 .066-.042c.09-.055.174-.118.26-.183.061-.045.122-.086.179-.135a.529.529 0 0 1 .061-.045c.052-.046.1-.09.155-.132s.075-.068.113-.1l.054-.053a6.421 6.421 0 0 0 2.056-4.652v-.059c0-.1 0-.2-.007-.3 0-.037 0-.072-.006-.109 0-.086-.011-.165-.021-.248-.009-.123-.028-.242-.043-.364-.012-.072-.028-.144-.04-.22-.008-.023-.013-.049-.02-.072-.016-.088-.037-.179-.062-.266a.634.634 0 0 0-.015-.065c-.039-.144-.081-.282-.129-.423-.012-.039-.022-.074-.037-.111s-.024-.065-.037-.1a.116.116 0 0 0-.018-.035 1.64 1.64 0 0 0-.072-.186 1.216 1.216 0 0 0-.066-.141.4.4 0 0 0-.027-.064.526.526 0 0 0-.036-.077 5.274 5.274 0 0 0-.3-.549c-.065-.109-.133-.215-.209-.32-.032-.047-.062-.1-.095-.14-.063-.085-.129-.168-.195-.243s-.127-.157-.194-.233a6.055 6.055 0 0 0-.647-.635c-.089-.077-.181-.153-.276-.224s-.162-.119-.247-.178c-.014-.011-.031-.02-.044-.03a1.442 1.442 0 0 0-.137-.089 2.075 2.075 0 0 0-.211-.129.062.062 0 0 0-.017-.015c-.109-.06-.214-.121-.323-.172-.011-.007-.024-.012-.032-.017-.113-.058-.228-.113-.344-.162s-.243-.1-.368-.143-.257-.086-.381-.124-.26-.071-.391-.1-.266-.056-.4-.075c-.078-.013-.161-.026-.243-.035h-.054a.221.221 0 0 1-.038-.007.912.912 0 0 0-.095-.007.608.608 0 0 0-.067 0c-.023 0-.042-.008-.062-.011-.145-.011-.287-.012-.431-.012s-.316 0-.474.014c-.026 0-.05.008-.076.011a.319.319 0 0 0-.058 0 .2.2 0 0 0-.048 0 .286.286 0 0 1-.04.007.707.707 0 0 0-.124.015c-.119.014-.241.035-.355.055-.135.024-.266.053-.395.085s-.23.063-.343.095c-.029.012-.062.017-.092.032-.11.038-.217.073-.324.116-.13.048-.247.1-.368.158s-.234.114-.353.174c-.1.053-.192.109-.286.165-.141.085-.283.178-.418.274-.094.071-.187.139-.274.211a2.987 2.987 0 0 0-.271.234 4.6 4.6 0 0 0-.369.359c-.067.067-.128.136-.192.209-.007.007-.012.008-.012.016a3.807 3.807 0 0 0-.243.3 5.5 5.5 0 0 0-.433.646c-.066.113-.13.225-.189.345a.607.607 0 0 0-.052.1 4.632 4.632 0 0 0-.191.426.319.319 0 0 0-.025.067.17.17 0 0 1-.017.035.175.175 0 0 0-.01.039 1 1 0 0 0-.054.151.677.677 0 0 0-.048.148.634.634 0 0 1-.028.076c-.013.045-.026.088-.036.137a.287.287 0 0 0-.022.075c-.016.066-.034.132-.047.2a1.223 1.223 0 0 0-.034.139c0 .023-.01.049-.017.072a6.483 6.483 0 0 0-.122 1.246zm.239 0a6.036 6.036 0 0 1 .109-1.159.758.758 0 0 0 .014-.076c.013-.048.021-.094.031-.138.017-.071.034-.146.049-.217.008-.025.018-.05.024-.074a1.973 1.973 0 0 1 .063-.206 2.619 2.619 0 0 1 .1-.293.246.246 0 0 1 .026-.077.58.58 0 0 1 .05-.13c.028-.067.058-.135.088-.2l.037-.075a1.8 1.8 0 0 1 .095-.192 6.2 6.2 0 0 1 4.729-3.31.339.339 0 0 1 .079-.01c.044-.008.093-.012.138-.016.063 0 .132-.01.2-.016a.072.072 0 0 1 .023 0h.08c.072 0 .141-.006.214-.006h.188a1.144 1.144 0 0 1 .12 0h.082a.914.914 0 0 1 .134.012c.076 0 .15.011.223.019a.461.461 0 0 1 .081.01c.072.009.145.017.211.029a6.229 6.229 0 0 1 4.615 3.473c.009.024.021.052.032.075a1.061 1.061 0 0 1 .051.124 1.469 1.469 0 0 1 .086.207c.013.025.021.051.033.077.024.064.048.137.069.2a2.212 2.212 0 0 1 .091.3.57.57 0 0 1 .019.078.823.823 0 0 1 .035.132c.021.072.034.147.052.22 0 .021.011.052.013.076.012.073.027.14.038.211a6.231 6.231 0 0 1 .071.943v.059c0 .163-.011.322-.024.479a.677.677 0 0 1-.01.113c-.008.076-.017.161-.03.238-.007.052-.014.1-.025.152-.015.113-.039.224-.066.339a2.879 2.879 0 0 1-.093.354 6.044 6.044 0 0 1-.671 1.505c-.051.086-.1.169-.161.251-.037.059-.079.113-.119.167s-.079.109-.121.161c-.072.089-.142.176-.219.261-.051.063-.1.116-.157.175s-.134.135-.2.2c-.017.021-.038.037-.055.054a.619.619 0 0 1-.059.053.806.806 0 0 1-.1.091c-.028.025-.054.051-.081.073s-.057.049-.086.076a.377.377 0 0 0-.064.047c-.052.041-.108.09-.162.127l-.245.173a.088.088 0 0 0-.017.012.222.222 0 0 1-.034.018.154.154 0 0 1-.034.021c-.037.028-.076.054-.109.076-.012.008-.024.009-.035.022-.05.031-.108.062-.159.093a.343.343 0 0 1-.072.035.106.106 0 0 1-.044.024.817.817 0 0 1-.141.077c-.089.045-.18.088-.266.13s-.149.066-.227.093a1.2 1.2 0 0 1-.182.069 4.685 4.685 0 0 1-.576.178.556.556 0 0 1-.083.025c-.071.019-.144.035-.215.048a5.354 5.354 0 0 1-.608.092 5.2 5.2 0 0 1-.63.035c-.093 0-.187 0-.278-.01h-.053c-.081 0-.164-.011-.243-.021a.507.507 0 0 1-.084-.01 2.26 2.26 0 0 1-.282-.035 2.372 2.372 0 0 1-.306-.052 4.712 4.712 0 0 1-.585-.154 1.926 1.926 0 0 1-.227-.076c-.089-.031-.178-.059-.263-.1a2.726 2.726 0 0 1-.252-.109 3.333 3.333 0 0 1-.363-.183.148.148 0 0 1-.049-.024.512.512 0 0 1-.07-.035c-.037-.021-.077-.044-.115-.068-.064-.039-.127-.081-.192-.122a.769.769 0 0 0-.069-.039l-.016-.012c-.057-.039-.106-.074-.158-.116a2.77 2.77 0 0 1-.248-.184c-.156-.122-.308-.259-.454-.4-.033-.032-.06-.063-.092-.1-.1-.1-.2-.206-.294-.312s-.184-.224-.271-.338a6.229 6.229 0 0 1-.728-1.26c-.049-.111-.094-.223-.135-.34-.026-.072-.053-.142-.075-.212a6.353 6.353 0 0 1-.28-1.5c0-.093-.016-.181-.016-.271v-.067c-.015.002-.015-.014-.015-.033z" class="prefix__cls-7" data-name="Path 2001" transform="translate(-366.37 -183.083)"/>
            </g>
            <path id="prefix__Path_2002" d="M372.858 197.244a6.2 6.2 0 0 1-6.2-6.2v-.063a6.2 6.2 0 0 0 12.4 0v.061a6.2 6.2 0 0 1-6.2 6.202z" class="prefix__cls-8" data-name="Path 2002" transform="translate(-361.408 -179.473)"/>
            <path id="prefix__Path_2003" d="M372.807 183.2a6.445 6.445 0 0 0-6.435 6.378v-.057a6.438 6.438 0 1 1 12.875 0v.059a6.445 6.445 0 0 0-6.44-6.38z" class="prefix__cls-8" data-name="Path 2003" transform="translate(-361.357 -178.068)"/>
            <path id="prefix__Path_2004" d="M367.247 189.679a5.687 5.687 0 0 0 1.6 3.963c.048.05.1.1.143.141a.64.64 0 0 0 .064.063c.062.06.131.12.2.178a1.007 1.007 0 0 0 .091.073.447.447 0 0 0 .067.057c.075.056.15.116.23.173.053.04.114.076.164.115.024.016.052.03.07.045.076.049.156.1.229.141a.926.926 0 0 0 .1.053.667.667 0 0 0 .078.043 5.707 5.707 0 0 0 5.186.092c.057-.03.118-.061.173-.092.026-.012.051-.026.079-.043.073-.041.152-.087.228-.135l.1-.062c.021-.014.048-.027.071-.044.084-.053.16-.115.242-.171.055-.039.109-.081.158-.122l.066-.05c.07-.058.136-.116.2-.179.028-.021.054-.051.083-.076a.372.372 0 0 0 .062-.059 5.7 5.7 0 0 0 1.744-4.1 5.444 5.444 0 0 0-.055-.794c-.006-.067-.02-.13-.032-.2a.779.779 0 0 0-.016-.086c-.012-.086-.035-.169-.054-.26 0-.033-.021-.068-.027-.108a.654.654 0 0 0-.025-.082c-.025-.1-.053-.188-.085-.281-.021-.062-.041-.127-.067-.189-.008-.026-.019-.053-.029-.082-.03-.081-.065-.163-.1-.244a.748.748 0 0 0-.049-.1.433.433 0 0 0-.042-.078 5.709 5.709 0 0 0-4.14-3.121 1.854 1.854 0 0 0-.195-.029.39.39 0 0 0-.083-.016l-.267-.025c-.038 0-.073-.007-.113-.008a.343.343 0 0 0-.087 0 .276.276 0 0 0-.092-.01h-.4a.322.322 0 0 1-.083.007h-.025l-.243.019-.113.015a.352.352 0 0 0-.088.016 5.71 5.71 0 0 0-4.25 2.972c-.03.057-.058.118-.086.178a.237.237 0 0 0-.035.078 2.566 2.566 0 0 0-.114.241l-.041.107c-.013.029-.02.056-.033.082-.035.094-.067.183-.1.277-.019.062-.036.126-.052.193a.352.352 0 0 0-.02.082c-.026.086-.047.174-.065.26 0 .036-.016.075-.017.113a.467.467 0 0 0-.018.081 5.388 5.388 0 0 0-.087.988z" class="prefix__cls-9" data-name="Path 2004" transform="translate(-361.512 -178.224)"/>
            <path id="prefix__Path_2005" d="M370.039 190.175a3.4 3.4 0 0 0 .961 2.37c.029.03.058.061.085.085a.364.364 0 0 0 .037.036 1.536 1.536 0 0 0 .118.107.29.29 0 0 0 .054.043.084.084 0 0 0 .039.034c.044.036.092.072.137.107s.066.046.1.066a.429.429 0 0 0 .04.03c.044.027.092.058.137.083a.411.411 0 0 0 .058.032c.02.009.032.02.049.026a3.389 3.389 0 0 0 3.1.053c.038-.019.072-.035.1-.053a.193.193 0 0 0 .047-.026c.049-.027.093-.051.14-.081l.056-.035a.427.427 0 0 0 .042-.03c.05-.031.1-.066.148-.1l.092-.076a.162.162 0 0 0 .039-.03c.041-.036.085-.07.123-.105.017-.013.033-.033.049-.047a.168.168 0 0 0 .036-.036 3.4 3.4 0 0 0 1.043-2.455 3.251 3.251 0 0 0-.029-.478 1.165 1.165 0 0 0-.022-.118.251.251 0 0 0-.008-.049 1.356 1.356 0 0 0-.031-.157.4.4 0 0 1-.016-.068.285.285 0 0 0-.015-.047c-.015-.058-.034-.113-.053-.169-.012-.037-.025-.076-.039-.111a.369.369 0 0 0-.017-.051c-.021-.049-.04-.1-.06-.148-.011-.018-.021-.041-.034-.059s-.012-.03-.022-.049a3.419 3.419 0 0 0-2.477-1.868c-.039 0-.077-.011-.118-.019l-.051-.006-.158-.012a.509.509 0 0 0-.069-.008h-.052a.189.189 0 0 0-.055 0h-.241a.478.478 0 0 1-.05 0h-.015c-.048 0-.1.01-.144.013l-.066.007-.054.006a3.43 3.43 0 0 0-2.541 1.782c-.02.036-.038.072-.053.105a.152.152 0 0 0-.023.049c-.023.047-.047.1-.068.146l-.024.061c-.007.02-.011.032-.021.051-.021.053-.038.107-.058.164-.011.039-.021.074-.03.116a.284.284 0 0 0-.014.047c-.013.054-.026.107-.035.157a.313.313 0 0 0-.014.068c0 .016-.007.032-.011.049a3.388 3.388 0 0 0-.042.598z" class="prefix__cls-10" data-name="Path 2005" transform="translate(-362.009 -178.721)"/>
            <path id="prefix__Path_2006" d="M376.849 190.04a1.1 1.1 0 0 0-.022-.118.25.25 0 0 0-.008-.05 1.355 1.355 0 0 0-.031-.157.414.414 0 0 1-.016-.067.345.345 0 0 0-.015-.049c-.015-.055-.034-.111-.053-.166-.012-.039-.025-.076-.039-.113 0-.016-.012-.033-.017-.048l-.06-.149-.034-.06c-.013-.021-.012-.03-.022-.048a3.427 3.427 0 0 0-2.477-1.868c-.039-.007-.077-.012-.118-.016-.015 0-.034 0-.051-.007l-.158-.016a.5.5 0 0 0-.069 0 .367.367 0 0 0-.052 0 .162.162 0 0 0-.055-.006h-.094a.236.236 0 0 0-.028 0h-.119a.323.323 0 0 1-.05 0h-.015c-.048 0-.1.007-.144.012l-.066.009a.49.49 0 0 0-.054.007 3.415 3.415 0 0 0-2.541 1.779 1.139 1.139 0 0 0-.053.105.149.149 0 0 0-.023.048c-.023.048-.047.095-.068.145l-.024.064a.305.305 0 0 1-.021.048c-.021.056-.038.109-.058.167l-.03.113a.342.342 0 0 0-.014.049c-.013.052-.026.1-.035.156a.285.285 0 0 0-.014.068c0 .016-.007.03-.011.049-.021.137-.035.275-.044.414 0-.054-.008-.107-.008-.161a3.388 3.388 0 0 1 .052-.6c0-.017.007-.033.011-.049a.313.313 0 0 1 .014-.068c.009-.05.022-.1.035-.157a.284.284 0 0 1 .014-.047c.009-.042.02-.077.03-.116.021-.057.037-.111.058-.164.01-.019.014-.035.021-.051s.016-.044.024-.061c.021-.049.045-.1.068-.146a.152.152 0 0 1 .023-.049c.015-.033.033-.069.053-.105a3.43 3.43 0 0 1 2.541-1.782l.054-.006.066-.007c.044 0 .1-.01.144-.013h.015a.478.478 0 0 0 .05 0h.241a.189.189 0 0 1 .055 0h.052a.509.509 0 0 1 .069.008l.158.012.051.006c.04.008.079.015.118.019a3.419 3.419 0 0 1 2.477 1.868c.011.02.015.034.022.049s.022.041.034.059c.02.048.039.1.06.148a.369.369 0 0 1 .017.051c.014.035.027.074.039.111.019.056.038.11.053.169a.285.285 0 0 1 .015.047.4.4 0 0 0 .016.068 1.356 1.356 0 0 1 .031.157.251.251 0 0 1 .008.049 1.165 1.165 0 0 1 .022.118 3.251 3.251 0 0 1 .029.478c0 .063 0 .13-.006.194-.006-.105-.008-.217-.023-.324z" class="prefix__cls-11" data-name="Path 2006" transform="translate(-362.009 -178.721)"/>
            <path id="prefix__Path_2007" d="M376.849 191.42a1.028 1.028 0 0 1-.022.118.3.3 0 0 1-.008.051 1.316 1.316 0 0 1-.031.155.387.387 0 0 0-.016.069c0 .012-.007.033-.015.048-.015.057-.034.113-.053.169l-.039.111a.42.42 0 0 1-.017.048c-.021.049-.04.1-.06.148l-.034.062a.336.336 0 0 1-.022.046 3.408 3.408 0 0 1-2.477 1.866c-.039.01-.077.015-.118.021a.311.311 0 0 0-.051.008c-.054.006-.106.009-.158.013h-.069a.367.367 0 0 1-.052 0 .189.189 0 0 1-.055 0 .57.57 0 0 1-.094 0 .082.082 0 0 1-.028 0h-.119a.323.323 0 0 0-.05 0h-.015c-.048 0-.1 0-.144-.011-.023 0-.049-.007-.066-.007s-.036-.007-.054-.008a3.424 3.424 0 0 1-2.541-1.778 1.094 1.094 0 0 1-.053-.109.116.116 0 0 1-.023-.046c-.023-.046-.047-.1-.068-.147l-.024-.062a.387.387 0 0 0-.021-.048l-.058-.166-.03-.114c-.006-.015-.011-.035-.014-.048-.013-.051-.026-.107-.035-.155a.285.285 0 0 1-.014-.068c0-.02-.007-.033-.011-.051-.021-.138-.035-.275-.044-.415 0 .054-.008.107-.008.165a3.316 3.316 0 0 0 .052.59.37.37 0 0 0 .011.051.27.27 0 0 0 .014.068c.009.052.022.1.035.155a.3.3 0 0 0 .014.05l.03.114c.021.058.037.113.058.165a.367.367 0 0 1 .021.051c.007.021.016.04.024.061.021.05.045.1.068.147a.133.133 0 0 0 .023.048.956.956 0 0 0 .053.1 3.417 3.417 0 0 0 2.541 1.779.118.118 0 0 0 .054.009.622.622 0 0 0 .066.008c.044 0 .1.009.144.014h.015a.478.478 0 0 1 .05 0h.119a.069.069 0 0 0 .018 0 .957.957 0 0 0 .1 0h.107a.632.632 0 0 1 .069-.007c.052 0 .1-.008.158-.015a.169.169 0 0 0 .051-.009c.04 0 .079-.012.118-.016a3.439 3.439 0 0 0 2.477-1.868.477.477 0 0 0 .022-.048c.012-.021.022-.043.034-.059.02-.05.039-.1.06-.149a.529.529 0 0 0 .017-.051c.014-.037.027-.075.039-.113.019-.056.038-.11.053-.167a.3.3 0 0 0 .015-.05.48.48 0 0 1 .016-.066 1.342 1.342 0 0 0 .031-.156.231.231 0 0 0 .008-.053 1.022 1.022 0 0 0 .022-.116 3.222 3.222 0 0 0 .029-.474c0-.067 0-.132-.006-.2-.002.122-.004.235-.019.342z" class="prefix__cls-8" data-name="Path 2007" transform="translate(-362.009 -179.492)"/>
        </g>
        <g id="prefix__Group_1649" data-name="Group 1649" transform="translate(392.913 173.371)">
            <path id="prefix__Path_2008" d="M405.585 188.9a9.328 9.328 0 0 0 18.617.851c.024-.28.036-.564.036-.848a9.339 9.339 0 0 0-9.266-9.331h-.058c-.139 0-.275 0-.409.007a9.343 9.343 0 0 0-8.845 8.165c0 .027-.007.053-.008.078a8.584 8.584 0 0 0-.067 1.078zm6.172 4.762c-.053-.039-.113-.075-.165-.115-.081-.057-.157-.117-.232-.173a.734.734 0 0 1-.067-.057c-.033-.027-.062-.047-.088-.073-.066-.058-.135-.118-.2-.178a.508.508 0 0 1-.065-.062 1.917 1.917 0 0 1-.142-.141 5.678 5.678 0 0 1-1.598-3.963 5.386 5.386 0 0 1 .09-.994c0-.03.01-.053.016-.081s.015-.076.02-.113c.017-.086.039-.174.065-.26a.4.4 0 0 1 .02-.082c.016-.067.033-.132.053-.193.031-.094.062-.183.1-.277.014-.026.02-.053.033-.082s.027-.071.042-.107c.034-.081.072-.163.114-.241a.269.269 0 0 1 .033-.078c.028-.06.057-.121.087-.178a5.709 5.709 0 0 1 4.251-2.972.315.315 0 0 1 .087-.016l.112-.015.243-.019h.025a.328.328 0 0 0 .084-.007h.4a.266.266 0 0 1 .09.01.343.343 0 0 1 .087 0c.042 0 .076.006.114.008l.268.025a.4.4 0 0 1 .082.016 1.933 1.933 0 0 1 .2.029 5.715 5.715 0 0 1 4.14 3.121.636.636 0 0 1 .039.078.6.6 0 0 1 .049.1c.038.081.072.164.1.244a.829.829 0 0 1 .03.082c.028.062.047.127.067.189.032.093.061.183.086.281a.82.82 0 0 1 .025.082c.007.039.022.075.026.108.021.09.042.174.057.26a.741.741 0 0 1 .014.086c.012.07.026.132.032.2a5.561 5.561 0 0 1 .055.794 5.7 5.7 0 0 1-1.745 4.1.37.37 0 0 1-.062.059c-.03.025-.055.055-.084.076l-.2.179c-.026.017-.045.035-.066.05-.05.041-.1.083-.158.122-.081.056-.16.118-.242.171l-.072.044c-.023.014-.061.04-.1.062-.075.048-.153.094-.228.135-.029.016-.053.03-.079.043-.056.031-.116.062-.173.092a5.705 5.705 0 0 1-5.185-.092.616.616 0 0 1-.079-.043.925.925 0 0 1-.1-.053c-.072-.044-.151-.092-.228-.141-.027-.013-.055-.026-.078-.042z" class="prefix__cls-5" data-name="Path 2008" transform="translate(-403.462 -177.443)"/>
            <path id="prefix__Path_2009" d="M403.78 190.283c-.011-.073-.025-.147-.035-.221l-.612.1a11.32 11.32 0 0 1-.128-1.889l.618.008c0-.112.008-.228.011-.34v-.023c0-.063.009-.124.012-.187s.007-.118.014-.177l-.618-.049a11.088 11.088 0 0 1 .309-1.871l.6.153c.028-.12.061-.234.1-.352s.072-.231.107-.346l-.59-.194a11.346 11.346 0 0 1 .737-1.744l.549.285c.059-.1.113-.212.173-.318l.106-.179c.019-.029.034-.06.051-.089l.008-.012.018-.028-.531-.326a12.052 12.052 0 0 1 1.118-1.529l.472.407.194-.22.046-.051.042-.043c.067-.074.138-.149.211-.221l-.442-.437a12.388 12.388 0 0 1 1.437-1.232l.364.506.044-.026c.039-.03.077-.055.118-.085s.089-.062.136-.095c.014-.011.03-.019.044-.03l.26-.167-.326-.528a11.55 11.55 0 0 1 1.681-.867l.238.576.014-.011.323-.127.345-.121-.2-.585c.309-.109.607-.188.912-.268.154-.039.307-.076.465-.106s.307-.058.465-.083l.1.613c.058-.01.116-.018.173-.025.029 0 .056-.008.083-.014s.068-.007.1-.013.075-.01.116-.015l.129-.012a.816.816 0 0 1 .119-.014l-.058-.619c.313-.028.641-.042.941-.048h.253l.224.008c.156 0 .314.01.471.02l-.042.619a.365.365 0 0 1 .044.006l.1.006c.07 0 .138.012.2.022h.01l.121.016.24.03.084-.617c.155.024.31.047.465.076s.32.064.469.1c.3.068.618.151.913.248l-.187.59.344.115.076.027c.022.01.043.016.064.023l.049.015.111.047.044.011.227-.571a10.94 10.94 0 0 1 1.7.837l-.317.532c.016.012.037.025.056.037.085.052.169.1.251.152l.1.072a.255.255 0 0 1 .052.031c.024.019.049.031.072.048s.05.031.077.05l.353-.51a11.59 11.59 0 0 1 1.46 1.205l-.432.44.108.109c.03.028.058.058.087.087.014.014.027.03.044.045l.021.021.037.038.092.1.033.039c.027.032.057.062.084.092l.462-.414a11.145 11.145 0 0 1 1.145 1.5l-.522.335c.039.063.077.124.114.189.026.039.051.081.076.123l.179.314.546-.3c.074.138.151.283.222.428.066.129.133.285.2.422s.122.29.182.437c.032.068.059.15.09.229l.081.215-.588.2.113.344.1.349.6-.161a11.075 11.075 0 0 1 .345 1.86l-.615.065c0 .053.007.111.014.173s.011.123.016.184V187.802l.012.219v.045l.617-.022a11.632 11.632 0 0 1-.09 1.892l-.617-.081a.226.226 0 0 1 0 .034c-.012.112-.032.219-.049.326l-.062.361.608.121a11.788 11.788 0 0 1-.526 1.818l-.581-.224c-.04.119-.089.229-.135.34l-.13.289-.018.044.564.257a11.1 11.1 0 0 1-.932 1.647l-.515-.349a.2.2 0 0 0-.016.025 1.431 1.431 0 0 0-.086.127c-.035.048-.072.1-.11.146-.065.1-.141.2-.216.289l.488.386a11.843 11.843 0 0 1-1.288 1.388l-.418-.457-.27.238c-.016.015-.034.027-.048.039a.731.731 0 0 1-.066.055c-.053.048-.11.094-.169.14l.386.483a11.107 11.107 0 0 1-1.549 1.048l-.319-.528-.025.013a.453.453 0 0 0-.066.036c-.019.012-.042.021-.06.032-.055.03-.113.062-.171.09-.111.053-.215.107-.324.158l.264.561a11.164 11.164 0 0 1-1.769.666l-.17-.594-.06.014-.067.021-.1.025-.13.034-.054.011-.3.074.132.6a11.169 11.169 0 0 1-1.886.24l-.022-.622-.178.007h-.54l-.019.617a10.605 10.605 0 0 1-1.876-.2l.114-.606c-.048-.012-.1-.021-.148-.034a1.294 1.294 0 0 1-.152-.029l-.024-.007a.137.137 0 0 1-.033-.006l-.353-.086-.158.6c-.308-.077-.612-.175-.9-.278s-.584-.219-.886-.357l.26-.562-.329-.155-.289-.147-.034-.016-.294.546-.209-.113-.2-.115c-.146-.083-.273-.168-.41-.254-.262-.17-.52-.354-.771-.544l.381-.494-.207-.158-.077-.066-.126-.109-.05-.041a.122.122 0 0 1-.03-.026l-.012-.012-.058-.052-.409.469a11.563 11.563 0 0 1-1.312-1.365l.482-.392c-.02-.023-.039-.046-.056-.069a.329.329 0 0 1-.027-.032l-.032-.042c-.035-.046-.077-.093-.112-.142l-.215-.292-.51.358a12.4 12.4 0 0 1-.963-1.628l.558-.27-.009-.024a.734.734 0 0 1-.034-.067c-.026-.054-.051-.109-.075-.168l-.033-.073c-.01-.017-.015-.038-.024-.055-.016-.036-.036-.072-.05-.111-.021-.055-.046-.114-.07-.169l-.571.234a11.111 11.111 0 0 1-.566-1.807l.605-.138-.074-.356c-.013-.045-.022-.092-.033-.138z" class="prefix__cls-1" data-name="Path 2009" transform="translate(-403.003 -176.984)"/>
            <path id="prefix__Path_2010" d="M424.033 189.673a9.307 9.307 0 0 0-18.614 0 4.226 4.226 0 0 1-.229-1.53 9.654 9.654 0 0 1 19.307 0c.003 1.274-.464 2.241-.464 1.53z" class="prefix__cls-6" data-name="Path 2010" transform="translate(-403.392 -177.252)"/>
            <g id="prefix__Group_1648" data-name="Group 1648" transform="translate(5.012 5.015)">
                <path id="prefix__Path_2011" d="M409.711 191.628c.007.022.016.04.024.061.034.1.073.187.109.279-.044-.111-.092-.223-.133-.34zm1.429 2.25c.03.032.063.066.1.1-.04-.033-.068-.065-.1-.099zm10.437-2.975a2.735 2.735 0 0 1-.092.354 1.652 1.652 0 0 0 .052-.192c.013-.053.029-.106.041-.165zm-12.48-1.381v.03a6.442 6.442 0 0 0 1.9 4.526c.054.057.109.105.164.155.02.018.037.038.057.056.051.04.1.09.152.131.034.032.072.063.108.1a.352.352 0 0 1 .067.047c.084.065.164.129.253.187a1.639 1.639 0 0 0 .181.128.283.283 0 0 0 .066.042c.057.039.115.077.172.113.039.021.083.048.127.071.024.013.042.026.067.038a6.4 6.4 0 0 0 3.133.816 6.33 6.33 0 0 0 2.93-.712 1.683 1.683 0 0 0 .2-.1.668.668 0 0 0 .068-.038l.174-.1c.045-.025.083-.054.123-.082a.187.187 0 0 0 .065-.042 2.774 2.774 0 0 0 .26-.183c.061-.045.122-.086.179-.135.021-.016.041-.033.061-.045.051-.046.1-.09.155-.132s.074-.068.114-.1l.054-.053a6.423 6.423 0 0 0 2.056-4.652v-.059-.3c0-.037 0-.072-.008-.109a2.249 2.249 0 0 0-.021-.248c-.008-.123-.027-.242-.043-.364-.012-.072-.027-.144-.04-.22-.008-.023-.012-.049-.019-.072-.018-.088-.038-.179-.062-.266a.468.468 0 0 0-.015-.065c-.039-.144-.081-.282-.128-.423l-.037-.111-.036-.1a.364.364 0 0 0-.019-.035 1.792 1.792 0 0 0-.072-.186 1.223 1.223 0 0 0-.067-.141.4.4 0 0 0-.027-.064.32.32 0 0 0-.037-.077 4.582 4.582 0 0 0-.3-.549 3.687 3.687 0 0 0-.21-.32c-.03-.047-.06-.1-.093-.14-.062-.085-.128-.168-.194-.243s-.126-.157-.195-.233a6.05 6.05 0 0 0-.647-.635c-.089-.077-.18-.153-.276-.224s-.161-.119-.246-.178c-.014-.011-.032-.02-.046-.03a1.247 1.247 0 0 0-.145-.096 2.257 2.257 0 0 0-.21-.129.076.076 0 0 0-.02-.015c-.107-.06-.211-.121-.32-.172-.011-.007-.025-.012-.033-.017-.114-.058-.229-.113-.344-.162s-.243-.1-.37-.143-.253-.086-.378-.124-.26-.071-.392-.1-.265-.056-.4-.075c-.079-.013-.163-.026-.243-.035h-.054a.247.247 0 0 1-.039-.007.911.911 0 0 0-.095-.007.6.6 0 0 0-.068 0c-.021 0-.04-.008-.063-.011-.143-.011-.285-.012-.428-.012s-.317 0-.474.014c-.026 0-.051.008-.077.011a.323.323 0 0 0-.057 0 .218.218 0 0 0-.049 0 .247.247 0 0 1-.039.007.282.282 0 0 0-.051 0 .251.251 0 0 0-.072.012c-.122.014-.241.035-.357.055-.135.024-.265.053-.4.085l-.342.095c-.028.012-.062.017-.093.032-.109.038-.216.073-.321.116-.131.048-.248.1-.369.158s-.234.114-.353.174c-.1.053-.192.109-.286.165-.142.085-.284.178-.418.274-.092.071-.186.139-.273.211a2.879 2.879 0 0 0-.271.234 4.351 4.351 0 0 0-.369.359c-.067.067-.128.136-.192.209-.006.007-.011.008-.011.016a3.183 3.183 0 0 0-.243.3 5.625 5.625 0 0 0-.435.646c-.065.113-.131.225-.188.345a.672.672 0 0 0-.052.1c-.071.136-.133.28-.192.426a.366.366 0 0 0-.024.067.347.347 0 0 1-.017.035.114.114 0 0 0-.009.039.854.854 0 0 0-.056.151.638.638 0 0 0-.048.148.793.793 0 0 1-.028.076c-.012.045-.027.088-.038.137a.363.363 0 0 0-.021.075c-.016.066-.034.132-.047.2a1.42 1.42 0 0 0-.035.139.325.325 0 0 1-.016.072 6.355 6.355 0 0 0-.12 1.249zm.239 0a6.1 6.1 0 0 1 .11-1.159.772.772 0 0 0 .015-.076c.014-.048.019-.094.03-.138.018-.071.035-.146.051-.217.007-.025.017-.05.024-.074a1.981 1.981 0 0 1 .063-.206c.03-.1.064-.2.1-.293a.385.385 0 0 1 .029-.077.544.544 0 0 1 .051-.13c.026-.067.055-.135.086-.2.012-.023.026-.051.036-.075a1.821 1.821 0 0 1 .1-.192 6.2 6.2 0 0 1 4.726-3.31.386.386 0 0 1 .08-.01c.044-.008.094-.012.137-.016.066 0 .133-.01.2-.016a.078.078 0 0 1 .024 0h.078c.07 0 .142-.006.215-.006h.188a1.145 1.145 0 0 1 .119 0h.082a.97.97 0 0 1 .135.012c.076 0 .149.011.222.019a.47.47 0 0 1 .081.01c.072.009.145.017.212.029a6.235 6.235 0 0 1 4.614 3.473l.031.075c.018.042.036.077.052.124a1.568 1.568 0 0 1 .086.207c.012.025.022.051.032.077.023.064.049.137.069.2a2.349 2.349 0 0 1 .091.3c.01.027.012.052.02.078a.924.924 0 0 1 .035.132c.02.072.034.147.05.22 0 .021.011.052.016.076.013.073.025.14.036.211a6.231 6.231 0 0 1 .071.943v.059c0 .163-.011.322-.024.479a.678.678 0 0 1-.009.113c-.007.076-.017.161-.031.238a1.4 1.4 0 0 1-.026.152 3.166 3.166 0 0 1-.067.339 2.735 2.735 0 0 1-.092.354 6.071 6.071 0 0 1-.669 1.505c-.053.086-.107.169-.163.251-.037.059-.078.113-.117.167s-.081.109-.124.161c-.071.089-.141.176-.216.261-.052.063-.1.116-.159.175l-.2.2c-.017.021-.038.037-.053.054s-.039.034-.059.053a.934.934 0 0 1-.1.091c-.03.025-.054.051-.081.073s-.057.049-.086.076a.5.5 0 0 0-.064.047c-.051.041-.109.09-.16.127l-.247.173a.134.134 0 0 0-.016.012.17.17 0 0 1-.035.018.147.147 0 0 1-.033.021l-.109.076a.1.1 0 0 0-.035.022l-.16.093a.369.369 0 0 1-.072.035.114.114 0 0 1-.044.024.788.788 0 0 1-.141.077c-.088.045-.18.088-.266.13s-.148.066-.228.093a1.181 1.181 0 0 1-.18.069 4.774 4.774 0 0 1-.576.178.557.557 0 0 1-.086.025c-.069.019-.141.035-.214.048a5.325 5.325 0 0 1-.608.092 5.18 5.18 0 0 1-.629.035c-.094 0-.187 0-.278-.01h-.053c-.078 0-.164-.011-.243-.021a.539.539 0 0 1-.085-.01 2.287 2.287 0 0 1-.281-.035 2.383 2.383 0 0 1-.305-.052 4.868 4.868 0 0 1-.588-.154 1.929 1.929 0 0 1-.224-.076c-.09-.031-.178-.059-.265-.1a2.454 2.454 0 0 1-.252-.109 3.5 3.5 0 0 1-.364-.183.127.127 0 0 1-.047-.024.38.38 0 0 1-.071-.035c-.035-.021-.078-.044-.117-.068-.063-.039-.126-.081-.191-.122a.659.659 0 0 0-.069-.039l-.016-.012c-.055-.039-.105-.074-.156-.116a2.67 2.67 0 0 1-.249-.184c-.154-.122-.308-.259-.453-.4-.033-.032-.061-.063-.093-.1-.1-.1-.2-.206-.293-.312s-.184-.224-.271-.338a6.152 6.152 0 0 1-.729-1.26c-.049-.111-.093-.223-.133-.34-.028-.072-.055-.142-.076-.212a6.311 6.311 0 0 1-.281-1.5c0-.093-.016-.181-.016-.271v-.067c-.018-.001-.018-.017-.018-.036z" class="prefix__cls-7" data-name="Path 2011" transform="translate(-409.098 -183.083)"/>
            </g>
            <path id="prefix__Path_2012" d="M415.588 197.244a6.205 6.205 0 0 1-6.2-6.2v-.063a6.2 6.2 0 0 0 12.4 0v.061a6.2 6.2 0 0 1-6.2 6.202z" class="prefix__cls-8" data-name="Path 2012" transform="translate(-404.139 -179.473)"/>
            <path id="prefix__Path_2013" d="M415.537 183.2a6.446 6.446 0 0 0-6.435 6.378v-.057a6.438 6.438 0 1 1 12.875 0v.059a6.444 6.444 0 0 0-6.44-6.38z" class="prefix__cls-8" data-name="Path 2013" transform="translate(-404.087 -178.068)"/>
            <path id="prefix__Path_2014" d="M409.976 189.679a5.678 5.678 0 0 0 1.606 3.963 1.911 1.911 0 0 0 .142.141.508.508 0 0 0 .065.063c.062.06.131.12.2.178.026.026.055.046.088.073a.735.735 0 0 0 .067.057c.075.056.151.116.232.173.052.04.112.076.165.115.022.016.05.03.069.045.076.049.155.1.228.141a.925.925 0 0 0 .1.053.615.615 0 0 0 .079.043 5.705 5.705 0 0 0 5.185.092c.058-.03.118-.061.173-.092.026-.012.05-.026.079-.043.075-.041.153-.087.228-.135.036-.021.067-.041.1-.062s.048-.027.072-.044c.082-.053.16-.115.242-.171.056-.039.108-.081.158-.122.021-.016.04-.033.066-.05.069-.058.135-.116.2-.179.029-.021.054-.051.084-.076a.37.37 0 0 0 .062-.059 5.7 5.7 0 0 0 1.745-4.1 5.561 5.561 0 0 0-.055-.794c-.006-.067-.021-.13-.032-.2a.728.728 0 0 0-.014-.086c-.015-.086-.035-.169-.057-.26 0-.033-.02-.068-.026-.108a.82.82 0 0 0-.025-.082c-.025-.1-.053-.188-.086-.281-.021-.062-.039-.127-.067-.189a.829.829 0 0 0-.03-.082c-.031-.081-.065-.163-.1-.244a.6.6 0 0 0-.049-.1.636.636 0 0 0-.039-.078 5.715 5.715 0 0 0-4.14-3.121 1.934 1.934 0 0 0-.2-.029.4.4 0 0 0-.082-.016l-.268-.025c-.038 0-.072-.007-.114-.008a.343.343 0 0 0-.087 0 .266.266 0 0 0-.09-.01h-.4a.329.329 0 0 1-.084.007h-.025l-.243.019-.112.015a.315.315 0 0 0-.087.016 5.709 5.709 0 0 0-4.251 2.972c-.03.057-.059.118-.087.178a.27.27 0 0 0-.033.078c-.042.078-.081.16-.114.241l-.042.107c-.014.033-.019.056-.033.082-.036.094-.067.183-.1.277-.02.062-.037.126-.053.193a.4.4 0 0 0-.02.082c-.026.086-.048.174-.065.26 0 .036-.016.075-.02.113s-.012.052-.016.081a5.386 5.386 0 0 0-.089.988z" class="prefix__cls-9" data-name="Path 2014" transform="translate(-404.243 -178.224)"/>
            <path id="prefix__Path_2015" d="M412.769 190.175a3.4 3.4 0 0 0 .959 2.37c.031.03.058.061.086.085s.026.028.037.036c.041.039.08.076.118.107a.278.278 0 0 0 .056.043.075.075 0 0 0 .039.034c.043.036.091.072.138.107s.066.046.1.066a.444.444 0 0 0 .041.03c.044.027.091.058.137.083a.525.525 0 0 0 .058.032c.019.009.034.02.048.026a3.392 3.392 0 0 0 3.1.053c.038-.019.072-.035.1-.053a.287.287 0 0 0 .047-.026c.046-.027.093-.051.139-.081l.057-.035c.014-.01.03-.019.042-.03.049-.031.1-.066.147-.1l.094-.076a.228.228 0 0 0 .038-.03l.123-.105a.657.657 0 0 0 .049-.047.191.191 0 0 0 .037-.036 3.4 3.4 0 0 0 1.043-2.455 3.139 3.139 0 0 0-.03-.478.97.97 0 0 0-.021-.118.2.2 0 0 0-.007-.049c-.006-.052-.021-.1-.03-.157a.483.483 0 0 1-.018-.068.225.225 0 0 0-.016-.047 1.333 1.333 0 0 0-.052-.169.979.979 0 0 0-.038-.111.369.369 0 0 0-.017-.051c-.021-.049-.039-.1-.061-.148-.009-.018-.021-.041-.033-.059s-.012-.03-.021-.049a3.425 3.425 0 0 0-2.478-1.868c-.039 0-.076-.011-.117-.019l-.052-.006-.159-.012a.47.47 0 0 0-.067-.008h-.052a.2.2 0 0 0-.056 0h-.305c-.049 0-.1.01-.144.013l-.067.007-.052.006a3.433 3.433 0 0 0-2.542 1.782c-.02.036-.037.072-.053.105a.2.2 0 0 0-.023.049c-.024.047-.048.1-.067.146a.453.453 0 0 0-.024.061.33.33 0 0 1-.023.051l-.056.164c-.012.039-.021.074-.03.116a.224.224 0 0 0-.015.047c-.012.054-.026.107-.035.157a.313.313 0 0 0-.014.068.323.323 0 0 0-.01.049 3.311 3.311 0 0 0-.048.598z" class="prefix__cls-10" data-name="Path 2015" transform="translate(-404.739 -178.721)"/>
            <path id="prefix__Path_2016" d="M419.577 190.04a.927.927 0 0 0-.021-.118.2.2 0 0 0-.007-.05c-.006-.052-.021-.1-.03-.157a.524.524 0 0 1-.018-.067.267.267 0 0 0-.016-.049 1.432 1.432 0 0 0-.052-.166 1.147 1.147 0 0 0-.038-.113c0-.016-.012-.033-.017-.048l-.061-.149c-.009-.019-.021-.039-.033-.06s-.012-.03-.021-.048a3.433 3.433 0 0 0-2.478-1.868c-.039-.007-.076-.012-.117-.016-.015 0-.034 0-.052-.007l-.159-.016a.464.464 0 0 0-.067 0 .366.366 0 0 0-.052 0 .175.175 0 0 0-.056-.006h-.093a.228.228 0 0 0-.028 0h-.118a.351.351 0 0 1-.052 0h-.014c-.049 0-.1.007-.144.012-.023 0-.048.007-.067.009a.44.44 0 0 0-.052.007 3.418 3.418 0 0 0-2.542 1.779c-.02.034-.037.072-.053.105a.194.194 0 0 0-.023.048c-.024.048-.048.095-.067.145-.008.021-.018.045-.024.064a.216.216 0 0 1-.023.048l-.056.167c-.012.038-.021.076-.03.113a.264.264 0 0 0-.015.049c-.012.052-.026.1-.035.156a12.6 12.6 0 0 0-.024.118c-.023.137-.035.275-.045.414 0-.054-.007-.107-.007-.161a3.311 3.311 0 0 1 .053-.6.323.323 0 0 1 .01-.049.313.313 0 0 1 .014-.068c.008-.05.022-.1.035-.157a.224.224 0 0 1 .015-.047l.03-.116.056-.164a.33.33 0 0 0 .023-.051.453.453 0 0 1 .024-.061c.02-.049.044-.1.067-.146a.2.2 0 0 1 .023-.049c.016-.033.033-.069.053-.105a3.433 3.433 0 0 1 2.542-1.782l.052-.006.067-.007c.044 0 .1-.01.144-.013h.305a.2.2 0 0 1 .056 0h.052a.47.47 0 0 1 .067.008l.159.012.052.006c.04.008.078.015.117.019a3.425 3.425 0 0 1 2.478 1.868l.021.049c.006.015.024.041.033.059.021.048.04.1.061.148a.369.369 0 0 1 .017.051.979.979 0 0 1 .038.111 1.333 1.333 0 0 1 .052.169.225.225 0 0 1 .016.047.483.483 0 0 0 .018.068c.009.053.025.105.03.157a.2.2 0 0 1 .007.049.97.97 0 0 1 .021.118 3.139 3.139 0 0 1 .03.478c0 .063 0 .13-.007.194-.007-.106-.007-.218-.024-.325z" class="prefix__cls-11" data-name="Path 2016" transform="translate(-404.739 -178.721)"/>
            <path id="prefix__Path_2017" d="M419.577 191.42a.878.878 0 0 1-.021.118.232.232 0 0 1-.007.051c-.006.051-.021.1-.03.155a.467.467 0 0 0-.018.069.367.367 0 0 1-.016.048 1.482 1.482 0 0 1-.052.169c-.011.036-.023.074-.038.111a.42.42 0 0 1-.017.048c-.021.049-.039.1-.061.148-.009.021-.021.04-.033.062a.319.319 0 0 1-.021.046 3.413 3.413 0 0 1-2.478 1.866c-.039.01-.076.015-.117.021a.334.334 0 0 0-.052.008c-.053.006-.106.009-.159.013h-.067a.366.366 0 0 1-.052 0 .2.2 0 0 1-.056 0 .565.565 0 0 1-.093 0 .079.079 0 0 1-.028 0h-.118a.351.351 0 0 0-.052 0h-.014c-.049 0-.1 0-.144-.011-.023 0-.048-.007-.067-.007s-.035-.007-.052-.008a3.427 3.427 0 0 1-2.542-1.778c-.02-.036-.037-.072-.053-.109a.142.142 0 0 1-.023-.046 1.516 1.516 0 0 1-.067-.147.586.586 0 0 1-.024-.062.255.255 0 0 0-.023-.048l-.056-.166c-.012-.038-.021-.076-.03-.114a.348.348 0 0 1-.015-.048c-.012-.051-.026-.107-.035-.155a.285.285 0 0 1-.014-.068.419.419 0 0 1-.01-.051c-.023-.138-.035-.275-.045-.415 0 .054-.007.107-.007.165a3.241 3.241 0 0 0 .053.59.231.231 0 0 0 .01.051.27.27 0 0 0 .014.068c.008.052.022.1.035.155a.238.238 0 0 0 .015.05l.03.114c.019.058.037.113.056.165a.251.251 0 0 1 .023.051.635.635 0 0 0 .024.061c.02.05.044.1.067.147a.167.167 0 0 0 .023.048 1.137 1.137 0 0 0 .053.1 3.42 3.42 0 0 0 2.542 1.779.108.108 0 0 0 .052.009c.019 0 .044.007.067.008.044 0 .1.009.144.014h.184a.058.058 0 0 0 .016 0 .965.965 0 0 0 .1 0h.108a.625.625 0 0 1 .067-.007c.053 0 .106-.008.159-.015a.17.17 0 0 0 .052-.009c.04 0 .078-.012.117-.016a3.445 3.445 0 0 0 2.478-1.868.441.441 0 0 0 .021-.048l.033-.059.061-.149a.529.529 0 0 0 .017-.051 1.13 1.13 0 0 0 .038-.113 1.4 1.4 0 0 0 .052-.167.239.239 0 0 0 .016-.05.651.651 0 0 1 .018-.066c.009-.053.025-.1.03-.156a.194.194 0 0 0 .007-.053.868.868 0 0 0 .021-.116 3.112 3.112 0 0 0 .03-.474c0-.067 0-.132-.007-.2a3.285 3.285 0 0 1-.019.342z" class="prefix__cls-8" data-name="Path 2017" transform="translate(-404.739 -179.492)"/>
        </g>
        <path id="prefix__Path_2018" d="M422.446 168.749H433.8l-.957 7.191h-10.397z" class="prefix__cls-2" data-name="Path 2018" transform="translate(-13.546 -2.149)"/>
        <path id="prefix__Path_2019" d="M415.726 156.661v2.445a60.1 60.1 0 0 0-6.983 1.385c-1.6.424-10.422 5.066-10.422 5.066l-8.235 12.7-1.506-.486-.166-.053L348.4 164.8l-.233-.076-1.676-.542-.243-.077 6.275-6.278h54.8v-1.169z" class="prefix__cls-12" data-name="Path 2019"/>
        <path id="prefix__Rectangle_380" d="M0 0H10.461V1.914H0z" class="prefix__cls-13" data-name="Rectangle 380" transform="rotate(-71.893 293.621 -161.502)"/>
        <path id="prefix__Path_2020" d="M366.774 170.493l-1.823-.589 3.738-11.693 1.823.587z" class="prefix__cls-13" data-name="Path 2020" transform="translate(-3.325 -.276)"/>
        <path id="prefix__Path_2021" d="M373.778 172.366l-1.825-.581 4.224-13.443 1.824.581z" class="prefix__cls-13" data-name="Path 2021" transform="translate(-4.569 -.299)"/>
        <path id="prefix__Path_2022" d="M380.782 174.237l-1.828-.572 4.712-15.193 1.827.573z" class="prefix__cls-13" data-name="Path 2022" transform="translate(-5.814 -.322)"/>
        <path id="prefix__Path_2023" d="M387.786 176.111l-1.83-.564 5.2-16.943 1.829.565z" class="prefix__cls-13" data-name="Path 2023" transform="translate(-7.059 -.345)"/>
        <path id="prefix__Rectangle_381" d="M0 0H19.538V1.915H0z" class="prefix__cls-13" data-name="Rectangle 381" transform="rotate(-73.09 311.696 -170.93)"/>
        <g id="prefix__Group_1650" data-name="Group 1650" transform="translate(357.402 157.828)" style="mix-blend-mode:multiply;isolation:isolate" opacity="0.5">
            <path id="prefix__Path_2024" d="M376.509 158.341l-.029.092 1.534.488-4.2 13.351.291.092 4.224-13.444z" class="prefix__cls-13" data-name="Path 2024" transform="translate(-362.303 -158.127)"/>
            <path id="prefix__Path_2025" d="M369.021 158.211l-.031.093 1.534.494-3.707 11.6.289.094 3.738-11.694z" class="prefix__cls-13" data-name="Path 2025" transform="translate(-361.058 -158.104)"/>
            <path id="prefix__Path_2026" d="M361.5 158.174l1.532.5-3.22 9.849.287.095 3.25-9.944-1.819-.595z" class="prefix__cls-13" data-name="Path 2026" transform="translate(-359.813 -158.081)"/>
            <path id="prefix__Path_2027" d="M384 158.472l-.029.091 1.537.482-4.683 15.1.291.091 4.712-15.193z" class="prefix__cls-13" data-name="Path 2027" transform="translate(-363.549 -158.15)"/>
            <path id="prefix__Path_2028" d="M398.976 158.734l-.027.089 1.54.468-5.658 18.6.292.089 5.685-18.693z" class="prefix__cls-13" data-name="Path 2028" transform="translate(-366.039 -158.197)"/>
            <path id="prefix__Path_2029" d="M391.487 158.6l-.028.09 1.538.475-5.169 16.852.292.09 5.2-16.942z" class="prefix__cls-13" data-name="Path 2029" transform="translate(-364.794 -158.173)"/>
        </g>
        <path id="prefix__Path_2030" d="M376.444 158.426l-.267-.085-4.224 13.443.385.123z" class="prefix__cls-11" data-name="Path 2030" transform="translate(-4.569 -.299)"/>
        <path id="prefix__Path_2031" d="M365.323 170.01l3.629-11.713-.263-.085-3.738 11.688z" class="prefix__cls-11" data-name="Path 2031" transform="translate(-3.325 -.276)"/>
        <path id="prefix__Path_2032" d="M358.322 168.072l3.14-9.906-.261-.085-3.25 9.944z" class="prefix__cls-11" data-name="Path 2032" transform="translate(-2.08 -.252)"/>
        <path id="prefix__Path_2033" d="M391.426 158.687l-.271-.084-5.2 16.943.418.129z" class="prefix__cls-11" data-name="Path 2033" transform="translate(-7.059 -.345)"/>
        <path id="prefix__Path_2034" d="M398.916 158.817l-.273-.083-5.685 18.693.434.132z" class="prefix__cls-11" data-name="Path 2034" transform="translate(-8.304 -.369)"/>
        <path id="prefix__Path_2035" d="M383.936 158.557l-.27-.085-4.712 15.193.4.125z" class="prefix__cls-11" data-name="Path 2035" transform="translate(-5.814 -.322)"/>
        <path id="prefix__Path_2036" d="M410.369 174.97v-6.384h2.288v-4.1H420l1.171 4.362h.8l1.808 1.916v4.2z" class="prefix__cls-12" data-name="Path 2036" transform="translate(-11.399 -1.392)"/>
        <path id="prefix__Path_2037" d="M402.672 181.14h-.585l2.873-4.682h25.217v7.928l-2.128 9.2h-1.171l-.212-8.246-1.49-6.118h-1.6l-2.553-1.383h-15.638z" class="prefix__cls-12" data-name="Path 2037" transform="translate(-9.927 -3.52)"/>
        <path id="prefix__Rectangle_382" d="M0 0H0.904V3.183H0z" class="prefix__cls-1" data-name="Rectangle 382" transform="translate(415.728 163.417)"/>
        <path id="prefix__Path_2038" fill="#63b5e4" d="M421.533 167.805v1.277h-3.723v-3.3H421l.2.767.2.76z" data-name="Path 2038" transform="translate(-12.722 -1.621)"/>
        <path id="prefix__Path_2039" fill="#fcbb1b" d="M415.779 157.049v2.126a60.093 60.093 0 0 0-6.983 1.385c-1.6.424-10.422 5.066-10.422 5.066l-8.235 12.7-1.506-.486 7.253-11.644-5.156-2.296.529-1.737 5.478 2.384 7.446-3.393v-1.346h-50.858l-4.868 5.062-.233-.076-1.676-.542 6.033-6.037h54.8v-1.168z" data-name="Path 2039" transform="translate(-.052 -.069)" style="mix-blend-mode:multiply;isolation:isolate" opacity="0.5"/>
        <path id="prefix__Path_2040" d="M415.726 156.661v2.445a60.1 60.1 0 0 0-6.983 1.385c-1.6.424-10.422 5.066-10.422 5.066l-8.235 12.7-1.672-.539 7.419-11.909-5.076-2.23.451-1.482 5.478 2.065 7.446-3.392v-1.348h-50.859l-5.1 5.3-1.922-.619 6.275-6.278h54.8v-1.169z" class="prefix__cls-13" data-name="Path 2040"/>
        <g id="prefix__Group_1651" class="prefix__cls-17" data-name="Group 1651" transform="translate(346.25 156.661)">
            <path id="prefix__Path_2041" d="M404.791 168.092l-7.262 11.659.165.053 7.253-11.644z" class="prefix__cls-18" data-name="Path 2041" transform="translate(-355.366 -158.693)"/>
            <path id="prefix__Path_2042" d="M352.525 158.4h54.8v-.319h-54.8l-6.275 6.278.242.079z" class="prefix__cls-18" data-name="Path 2042" transform="translate(-346.25 -156.913)"/>
            <path id="prefix__Path_2043" d="M413.85 161.976v-.319l-7.45 3.393-5.478-2.064 5.478 2.384z" class="prefix__cls-18" data-name="Path 2043" transform="translate(-355.97 -157.549)"/>
            <path id="prefix__Rectangle_383" d="M0 0H8.404V0.32H0z" class="prefix__cls-18" data-name="Rectangle 383" transform="translate(61.072)"/>
        </g>
        <g id="prefix__Group_1653" data-name="Group 1653" transform="translate(381.481 179.197)">
            <rect id="prefix__Rectangle_384" width="8.832" height="3.389" fill="#e0e0e0" data-name="Rectangle 384" rx="1.469" transform="translate(0 .258)"/>
            <path id="prefix__Path_2044" fill="#fff" d="M390.245 185.591H397a1.286 1.286 0 0 1 .543.122v-.173a1.035 1.035 0 0 0-1.034-1.035h-5.77a1.037 1.037 0 0 0-1.036 1.035v.173a1.283 1.283 0 0 1 .542-.122z" data-name="Path 2044" opacity="0.5" transform="translate(-389.206 -184.147)"/>
            <g id="prefix__Group_1652" data-name="Group 1652" transform="translate(1.712)">
                <path id="prefix__Rectangle_385" d="M0 0H0.604V3.905H0z" class="prefix__cls-21" data-name="Rectangle 385"/>
                <path id="prefix__Rectangle_386" d="M0 0H0.605V3.905H0z" class="prefix__cls-21" data-name="Rectangle 386" transform="translate(4.805)"/>
            </g>
        </g>
        <g id="prefix__Group_1654" data-name="Group 1654" transform="translate(398.97 169.575)">
            <path id="prefix__Rectangle_387" d="M0 0H13.406V0.319H0z" class="prefix__cls-13" data-name="Rectangle 387"/>
        </g>
        <g id="prefix__Group_1655" data-name="Group 1655" transform="translate(398.97 171.449)">
            <path id="prefix__Rectangle_388" d="M0 0H13.406V0.32H0z" class="prefix__cls-13" data-name="Rectangle 388"/>
        </g>
        <path id="prefix__Path_2045" d="M428.171 173.487a2.075 2.075 0 1 1-2.074-2.074 2.074 2.074 0 0 1 2.074 2.074z" class="prefix__cls-13" data-name="Path 2045" transform="translate(-13.826 -2.623)"/>
        <path id="prefix__Path_2046" d="M433.218 173.487a2.075 2.075 0 1 1-2.074-2.074 2.074 2.074 0 0 1 2.074 2.074z" class="prefix__cls-13" data-name="Path 2046" transform="translate(-14.723 -2.623)"/>
        <path id="prefix__Rectangle_389" d="M0 0H0.243V5.479H0z" class="prefix__cls-13" data-name="Rectangle 389" transform="translate(405.119 167.46)"/>
        <g id="prefix__Group_1656" class="prefix__cls-17" data-name="Group 1656" transform="translate(405.089 164.159)">
            <path id="prefix__Path_2047" d="M420.971 165.781l-2.714 3.3h-.446v-1.468l1.5-1.833z" class="prefix__cls-18" data-name="Path 2047" transform="translate(-417.81 -165.781)"/>
        </g>
        <g id="prefix__Group_1657" class="prefix__cls-17" data-name="Group 1657" transform="translate(406.401 164.926)">
            <path id="prefix__Path_2048" d="M421.685 167.473l-1.455 1.775h-.824l2.081-2.534z" class="prefix__cls-18" data-name="Path 2048" transform="translate(-419.406 -166.713)"/>
        </g>
        <g id="prefix__Group_1666" data-name="Group 1666" transform="translate(395.464 166.874)">
            <g id="prefix__Group_1658" data-name="Group 1658">
                <path id="prefix__Path_2049" d="M429.964 174.73h-23.621a.239.239 0 0 1-.215-.343l2.06-4.305a1.892 1.892 0 0 1 1.586-1h19.233a1.2 1.2 0 0 1 1.2 1.2v4.211a.239.239 0 0 1-.243.237zm-23.241-.479h23v-3.972a.719.719 0 0 0-.718-.719h-19.231a1.422 1.422 0 0 0-1.154.728z" class="prefix__cls-22" data-name="Path 2049" transform="translate(-406.104 -169.082)"/>
            </g>
            <g id="prefix__Group_1659" data-name="Group 1659" transform="translate(7.661 .239)">
                <path id="prefix__Rectangle_390" d="M0 0H0.479V7.215H0z" class="prefix__cls-22" data-name="Rectangle 390"/>
            </g>
            <g id="prefix__Group_1660" data-name="Group 1660" transform="translate(5.426 .239)">
                <path id="prefix__Rectangle_391" d="M0 0H0.479V7.215H0z" class="prefix__cls-22" data-name="Rectangle 391"/>
            </g>
            <g id="prefix__Group_1661" data-name="Group 1661" transform="translate(12.848 .239)">
                <path id="prefix__Rectangle_392" d="M0 0H0.479V7.215H0z" class="prefix__cls-22" data-name="Rectangle 392"/>
            </g>
            <g id="prefix__Group_1662" data-name="Group 1662" transform="translate(17.795 .239)">
                <path id="prefix__Rectangle_393" d="M0 0H0.479V7.215H0z" class="prefix__cls-22" data-name="Rectangle 393"/>
            </g>
            <g id="prefix__Group_1663" data-name="Group 1663" transform="translate(0 5.408)">
                <path id="prefix__Rectangle_394" d="M0 0H0.479V2.046H0z" class="prefix__cls-22" data-name="Rectangle 394"/>
            </g>
            <g id="prefix__Group_1664" data-name="Group 1664" transform="translate(23.62 5.408)">
                <path id="prefix__Rectangle_395" d="M0 0H0.479V2.046H0z" class="prefix__cls-22" data-name="Rectangle 395"/>
            </g>
            <g id="prefix__Group_1665" data-name="Group 1665" transform="translate(.239 5.408)">
                <path id="prefix__Rectangle_396" d="M0 0H23.62V0.789H0z" class="prefix__cls-22" data-name="Rectangle 396"/>
            </g>
        </g>
    </g>
</svg>
