<svg xmlns="http://www.w3.org/2000/svg" width="63" height="39.489" viewBox="0 0 63 39.489">
    <defs>
        <style>
            .prefix__cls-2{fill:#454545}.prefix__cls-5,.prefix__cls-7{fill:#de5240}.prefix__cls-6{fill:#c34838}.prefix__cls-7{mix-blend-mode:multiply;isolation:isolate}.prefix__cls-9{fill:#463f43}
        </style>
    </defs>
    <g id="prefix__Group_1635" data-name="Group 1635" transform="translate(-13.75 -154.69)">
        <path id="prefix__Rectangle_376" fill="#5e5e5e" d="M0 0H3.527V4.316H0z" data-name="Rectangle 376" transform="rotate(-85.451 119.444 74.922)"/>
        <path id="prefix__Path_1934" d="M27.455 190.884l-.276 3.47c-.044.556.857 1.512 1.967 1.6s9.078.708 9.078.708l.391-4.905z" class="prefix__cls-2" data-name="Path 1934" transform="translate(-2.853 -7.691)"/>
        <path id="prefix__Path_1935" d="M45.339 196.46c.85 1.011 2.239.521 3.764-.514a9.538 9.538 0 0 1 5.162-1.688 11.666 11.666 0 0 1 8.823 4.019c4.178 4.92 9.314 3.96 11.672 2.387 1.492-1 6.247-6.3 4.257-6.462s-11.118-2.279-12.551-2.4c-8.371-.71-16.149-1.157-19.229.7s-2.457 3.293-1.898 3.958z" class="prefix__cls-2" data-name="Path 1935" transform="translate(-6.615 -7.755)"/>
        <path id="prefix__Path_1936" fill="#ef685c" d="M76.088 188.353a55.6 55.6 0 0 0-10.607-2.5c-4.7-.762-9.567-1.309-12.464-1.592-3.852-.414-7.244-1.614-9.689-1.851s-15.374-1.395-18.518-1.986c.423-2.67.623-5.772 1.484-9.309.1-.432 1.852-1.094 2.01-1.5a40.454 40.454 0 0 1 3.144-6.765 17.7 17.7 0 0 1 5.8-5.157 24.014 24.014 0 0 1 11.979-3 29.6 29.6 0 0 1 21.467 9.433c5.356 5.581 5.394 19.219 5.394 24.227z" data-name="Path 1936" transform="translate(-2.35)"/>
        <path id="prefix__Path_1937" fill="#fff" d="M55.523 154.69c-.365 0-.726.009-1.084.024 4.476 1.262 9.7 3.876 12.609 7.954 4.59 6.429 6.523 14.047 6.076 23.388l.226.062a49.041 49.041 0 0 1 9.034 2.235c0-5.008-.038-18.646-5.394-24.23a29.6 29.6 0 0 0-21.467-9.433z" data-name="Path 1937" opacity="0.2" transform="translate(-8.646)"/>
        <path id="prefix__Path_1938" d="M50.786 191.205c-1.243-.122-2.123-.195-2.468-.217-1.865-.117-20.047 2.233-21.911 2.233a64.245 64.245 0 0 1-9.9-1.3 19.406 19.406 0 0 1-2.2-.583l8.268-3.97c3.144.591 16.071 1.749 18.518 1.986s5.841 1.437 9.693 1.851z" class="prefix__cls-5" data-name="Path 1938" transform="translate(-.119 -6.944)"/>
        <path id="prefix__Path_1939" d="M63.138 192.8c.547.044 1.174 1.059 1.273 1.558s.458 1.417 1.174 1.576c.88.2 1.273-.636 1.712-1.223a3.424 3.424 0 0 1 1.659-1.37c-1.708-.685-5.818-.541-5.818-.541zm2.642 2.253a.695.695 0 1 1 .684-.7.69.69 0 0 1-.684.701z" class="prefix__cls-5" data-name="Path 1939" transform="translate(-10.495 -8.096)"/>
        <g id="prefix__Group_1624" data-name="Group 1624" transform="translate(13.75 183.598)">
            <path id="prefix__Path_1940" d="M73.736 196.6a.45.45 0 0 1-.167-.033c-6.114-2.5-23.3-4.148-25.4-4.278-.967-.061-5.67.621-9.819 1.222-3.742.543-11.182 1.011-12.063 1.011a65.193 65.193 0 0 1-10.005-1.314 15.541 15.541 0 0 1-2.09-.569.443.443 0 1 1 0-.886c.168 0-.05.007 2.305.6a63.86 63.86 0 0 0 9.79 1.288c.817 0 8.538-.51 11.937-1 4.4-.637 8.94-1.292 10-1.229 2.114.132 19.458 1.795 25.679 4.342a.443.443 0 0 1-.168.854z" class="prefix__cls-6" data-name="Path 1940" transform="translate(-13.75 -191.399)"/>
        </g>
        <path id="prefix__Path_1941" d="M38.121 162.331a17.935 17.935 0 0 1 5.062-4.289 20.337 20.337 0 0 1 3.052-1.377c1.052-.372 2.12-.683 3.194-.957.265-.065.542-.135.81-.195s.556-.112.836-.155a15.019 15.019 0 0 1 1.677-.165 22.309 22.309 0 0 1 3.342.111 28.714 28.714 0 0 1 3.285.535c.54.123 1.079.254 1.611.408a12.722 12.722 0 0 1 1.569.538c-.264-.084-.532-.142-.8-.2s-.538-.113-.809-.163c-.542-.1-1.083-.194-1.628-.269-1.085-.161-2.177-.273-3.268-.34a19.61 19.61 0 0 0-6.461.538c-1.062.269-2.118.56-3.148.913a22.49 22.49 0 0 0-3.015 1.236 22.74 22.74 0 0 0-5.309 3.831z" class="prefix__cls-5" data-name="Path 1941" transform="translate(-5.179 -.103)"/>
        <path id="prefix__Path_1942" d="M47.289 161.7a7.883 7.883 0 0 1 1.349-.984c.476-.29.974-.543 1.476-.788a24.1 24.1 0 0 1 3.118-1.214 24.432 24.432 0 0 1 3.269-.788 17.3 17.3 0 0 1 3.4-.248 24.712 24.712 0 0 1 6.606 1.249 22.081 22.081 0 0 1 5.925 3.04 44.983 44.983 0 0 0-6.214-2.036A35.3 35.3 0 0 0 59.85 159a19.917 19.917 0 0 0-3.169.165c-1.062.132-2.125.322-3.182.55s-2.11.5-3.152.812c-.522.152-1.037.328-1.551.513a11.878 11.878 0 0 0-1.507.66z" class="prefix__cls-5" data-name="Path 1942" transform="translate(-7.127 -.632)"/>
        <path id="prefix__Path_1943" d="M43.183 158.264a20.338 20.338 0 0 1 3.052-1.378c1.052-.371 2.12-.683 3.194-.957.265-.065.542-.135.81-.195s.556-.111.836-.154a14.841 14.841 0 0 1 1.677-.165 22.208 22.208 0 0 1 3.342.11 29.062 29.062 0 0 1 3.285.534q.6.137 1.186.294c.127.023.256.044.384.069.271.05.539.1.809.163s.539.116.8.2a12.722 12.722 0 0 0-1.569-.538c-.532-.154-1.071-.285-1.611-.408a28.714 28.714 0 0 0-3.285-.535 22.309 22.309 0 0 0-3.342-.111 15.019 15.019 0 0 0-1.677.165c-.28.043-.554.094-.836.155s-.545.129-.81.195c-1.074.274-2.142.585-3.194.957a20.337 20.337 0 0 0-3.052 1.377 17.935 17.935 0 0 0-5.062 4.289c.321-.3.65-.593.983-.88a17.39 17.39 0 0 1 4.08-3.187z" class="prefix__cls-7" data-name="Path 1943" transform="translate(-5.179 -.103)"/>
        <path id="prefix__Path_1944" d="M48.638 160.933c.476-.291.974-.543 1.476-.787a24.861 24.861 0 0 1 6.387-2 17.177 17.177 0 0 1 3.4-.248 24.679 24.679 0 0 1 6.606 1.248 22.314 22.314 0 0 1 5.193 2.531q.365.142.732.287a22.081 22.081 0 0 0-5.925-3.04 24.712 24.712 0 0 0-6.606-1.249 17.3 17.3 0 0 0-3.4.248 24.432 24.432 0 0 0-3.269.788 24.1 24.1 0 0 0-3.118 1.214c-.5.246-1 .5-1.476.788a7.883 7.883 0 0 0-1.349.984c.219-.117.443-.222.669-.321.22-.156.448-.303.68-.443z" class="prefix__cls-7" data-name="Path 1944" transform="translate(-7.127 -.632)"/>
        <g id="prefix__Group_1633" data-name="Group 1633" transform="translate(16.661 170.967)">
            <path id="prefix__Path_1945" fill="#505159" d="M25.214 175.859v10.565a15.2 15.2 0 0 1-7.767 0v-10.565a15.342 15.342 0 0 1 7.767 0z" data-name="Path 1945" transform="translate(-17.447 -175.359)"/>
            <g id="prefix__Group_1631" data-name="Group 1631" transform="translate(.743 .556)">
                <g id="prefix__Group_1625" data-name="Group 1625">
                    <path id="prefix__Path_1946" d="M18.766 177.164a15.433 15.433 0 0 1 5.531 0 .309.309 0 0 0 .375-.32.512.512 0 0 0-.375-.481 12.972 12.972 0 0 0-5.531 0 .51.51 0 0 0-.375.481.308.308 0 0 0 .375.32z" class="prefix__cls-9" data-name="Path 1946" transform="translate(-18.391 -176.065)"/>
                </g>
                <g id="prefix__Group_1626" data-name="Group 1626" transform="translate(0 1.921)">
                    <path id="prefix__Path_1947" d="M18.766 179.494a27.276 27.276 0 0 1 5.531 0 .339.339 0 0 0 .375-.352.459.459 0 0 0-.375-.447 20.206 20.206 0 0 0-5.531 0 .458.458 0 0 0-.375.447.338.338 0 0 0 .375.352z" class="prefix__cls-9" data-name="Path 1947" transform="translate(-18.391 -178.504)"/>
                </g>
                <g id="prefix__Group_1627" data-name="Group 1627" transform="translate(0 3.842)">
                    <path id="prefix__Path_1948" d="M18.766 181.824c1.824-.041 3.708-.041 5.531 0a.374.374 0 0 0 .375-.384.416.416 0 0 0-.375-.417 48.727 48.727 0 0 0-5.531 0 .415.415 0 0 0-.375.417.373.373 0 0 0 .375.384z" class="prefix__cls-9" data-name="Path 1948" transform="translate(-18.391 -180.944)"/>
                </g>
                <g id="prefix__Group_1628" data-name="Group 1628" transform="translate(0 5.734)">
                    <path id="prefix__Path_1949" d="M18.766 184.145a48 48 0 0 0 5.531 0 .414.414 0 0 0 .375-.416.373.373 0 0 0-.375-.384c-1.824.039-3.708.039-5.531 0a.372.372 0 0 0-.375.384.412.412 0 0 0 .375.416z" class="prefix__cls-9" data-name="Path 1949" transform="translate(-18.391 -183.346)"/>
                </g>
                <g id="prefix__Group_1629" data-name="Group 1629" transform="translate(0 7.543)">
                    <path id="prefix__Path_1950" d="M18.766 186.446a20.268 20.268 0 0 0 5.531 0 .461.461 0 0 0 .375-.448.339.339 0 0 0-.375-.352 27.391 27.391 0 0 1-5.531 0 .338.338 0 0 0-.375.352.459.459 0 0 0 .375.448z" class="prefix__cls-9" data-name="Path 1950" transform="translate(-18.391 -185.644)"/>
                </g>
                <g id="prefix__Group_1630" data-name="Group 1630" transform="translate(0 9.351)">
                    <path id="prefix__Path_1951" d="M18.766 188.745a12.947 12.947 0 0 0 5.531 0 .511.511 0 0 0 .375-.48.308.308 0 0 0-.375-.319 15.469 15.469 0 0 1-5.531 0 .307.307 0 0 0-.375.319.509.509 0 0 0 .375.48z" class="prefix__cls-9" data-name="Path 1951" transform="translate(-18.391 -187.939)"/>
                </g>
            </g>
            <g id="prefix__Group_1632" data-name="Group 1632" opacity="0.2" transform="translate(.743 .556)">
                <path id="prefix__Path_1952" d="M18.766 187.945a15.469 15.469 0 0 0 5.531 0 .308.308 0 0 1 .375.319.5.5 0 0 1-.007.076.3.3 0 0 0-.368-.246 15.4 15.4 0 0 1-5.531 0 .305.305 0 0 0-.369.246.5.5 0 0 1-.006-.076.307.307 0 0 1 .375-.319z" data-name="Path 1952" transform="translate(-18.391 -178.588)"/>
                <path id="prefix__Path_1953" d="M24.3 176.513a13 13 0 0 0-5.531 0 .513.513 0 0 0-.369.4.444.444 0 0 1-.006-.073.51.51 0 0 1 .375-.481 12.972 12.972 0 0 1 5.531 0 .512.512 0 0 1 .375.481.444.444 0 0 1-.007.073.511.511 0 0 0-.368-.4z" data-name="Path 1953" transform="translate(-18.391 -176.065)"/>
                <path id="prefix__Path_1954" d="M18.766 185.646a27.391 27.391 0 0 0 5.531 0 .339.339 0 0 1 .375.352.473.473 0 0 1-.007.076.335.335 0 0 0-.368-.278 27.276 27.276 0 0 1-5.531 0 .336.336 0 0 0-.369.278.474.474 0 0 1-.006-.076.338.338 0 0 1 .375-.352z" data-name="Path 1954" transform="translate(-18.391 -178.101)"/>
                <path id="prefix__Path_1955" d="M18.766 183.346c1.824.039 3.708.039 5.531 0a.373.373 0 0 1 .375.384.482.482 0 0 1-.007.076.369.369 0 0 0-.368-.309c-1.824.04-3.708.04-5.531 0a.37.37 0 0 0-.369.309.481.481 0 0 1-.006-.076.372.372 0 0 1 .375-.384z" data-name="Path 1955" transform="translate(-18.391 -177.612)"/>
                <path id="prefix__Path_1956" d="M18.766 178.695a20.206 20.206 0 0 1 5.531 0 .459.459 0 0 1 .375.447.454.454 0 0 1-.007.074.455.455 0 0 0-.368-.372 20.268 20.268 0 0 0-5.531 0 .456.456 0 0 0-.369.372.453.453 0 0 1 .369-.521z" data-name="Path 1956" transform="translate(-18.391 -176.584)"/>
                <path id="prefix__Path_1957" d="M18.766 181.023a48.727 48.727 0 0 1 5.531 0 .416.416 0 0 1 .375.417.462.462 0 0 1-.007.074.411.411 0 0 0-.368-.341 48.727 48.727 0 0 0-5.531 0 .413.413 0 0 0-.369.341.461.461 0 0 1-.006-.074.415.415 0 0 1 .375-.417z" data-name="Path 1957" transform="translate(-18.391 -177.102)"/>
            </g>
            <path id="prefix__Path_1958" fill="#fff" d="M25.214 176.523v1.218l-.389-.106v.016a23.044 23.044 0 0 0-7.378-.381v-.743a18.889 18.889 0 0 1 2.114-.326 19.112 19.112 0 0 1 3.6.01 19.885 19.885 0 0 1 2.029.316v-.015z" data-name="Path 1958" opacity="0.3" transform="translate(-17.447 -175.521)"/>
        </g>
        <g id="prefix__Group_1634" data-name="Group 1634" transform="translate(24.427 176.918)">
            <path id="prefix__Path_1959" d="M76.543 189.485a259.759 259.759 0 0 1-26.884-1.625c-3.033-.4-5.743-.98-8.364-1.545a61.917 61.917 0 0 0-13.988-1.849v-1.549a63.206 63.206 0 0 1 14.315 1.883c2.59.558 5.268 1.135 8.239 1.523a257.605 257.605 0 0 0 26.682 1.614z" class="prefix__cls-9" data-name="Path 1959" transform="translate(-27.308 -182.916)"/>
        </g>
        <path id="prefix__Path_1960" d="M64.947 187.385l3.573.409a.459.459 0 0 0 .22-.039l.652-.331a.45.45 0 0 1 .218-.04l6.752.721a.328.328 0 0 1 .189.1l.552.674a.372.372 0 0 0 .187.113l3.188.668a.127.127 0 0 1 .1.139l-.3 2.276-15.835-1.775s.44-2.922.504-2.915z" class="prefix__cls-5" data-name="Path 1960" transform="translate(-10.772 -6.947)"/>
        <path id="prefix__Path_1961" d="M47.289 192.121c3.261-.6 11.879-1.982 14.13-1.788a132.351 132.351 0 0 1 16.847 1.98 18.162 18.162 0 0 1 5.124 2.1c1.117.809.157 2.685-1.318 2.3s-9.6-3.063-14.813-3.74a141.839 141.839 0 0 0-19.97-.852z" class="prefix__cls-6" data-name="Path 1961" transform="translate(-7.127 -7.57)"/>
    </g>
</svg>
