<svg xmlns="http://www.w3.org/2000/svg" xmlns:xlink="http://www.w3.org/1999/xlink" width="50" height="48.997" viewBox="0 0 50 48.997">
    <defs>
        <linearGradient id="prefix__linear-gradient" x1=".12" x2=".925" y1=".989" y2=".009" gradientUnits="objectBoundingBox">
            <stop offset="0" stop-color="#412a85"/>
            <stop offset=".173" stop-color="#432d87"/>
            <stop offset=".329" stop-color="#4a388f"/>
            <stop offset=".479" stop-color="#564a9d"/>
            <stop offset=".625" stop-color="#6864b0"/>
            <stop offset=".768" stop-color="#7e86c8"/>
            <stop offset=".907" stop-color="#99aee5"/>
            <stop offset="1" stop-color="#aecefd"/>
        </linearGradient>
        <linearGradient id="prefix__linear-gradient-2" x1=".003" x2=".95" y1=".512" y2=".027" xlink:href="#prefix__linear-gradient"/>
        <linearGradient id="prefix__linear-gradient-3" x1=".467" x2=".531" y1="1.102" y2=".229" gradientUnits="objectBoundingBox">
            <stop offset="0" stop-color="#ce40d6"/>
            <stop offset=".224" stop-color="#9f4cc6"/>
            <stop offset=".269" stop-color="#9247bd"/>
            <stop offset=".389" stop-color="#743da9"/>
            <stop offset=".516" stop-color="#5d3599"/>
            <stop offset=".652" stop-color="#4c308e"/>
            <stop offset=".804" stop-color="#432d88"/>
            <stop offset="1" stop-color="#402c86"/>
        </linearGradient>
        <linearGradient id="prefix__linear-gradient-4" x1=".308" x2=".616" y1="1.047" y2=".184" xlink:href="#prefix__linear-gradient-3"/>
        <linearGradient id="prefix__linear-gradient-5" x1=".111" x2="1.095" y1=".877" y2="-.093" xlink:href="#prefix__linear-gradient"/>
        <linearGradient id="prefix__linear-gradient-6" x1=".054" x2=".608" y1="1.03" y2=".101" gradientUnits="objectBoundingBox">
            <stop offset="0" stop-color="#6c7cd4"/>
            <stop offset=".017" stop-color="#6a79d1"/>
            <stop offset=".329" stop-color="#5252a4"/>
            <stop offset=".608" stop-color="#403684"/>
            <stop offset=".841" stop-color="#352571"/>
            <stop offset="1" stop-color="#321f6a"/>
        </linearGradient>
        <linearGradient id="prefix__linear-gradient-7" x1="0" x2="1" y1=".5" y2=".5" xlink:href="#prefix__linear-gradient"/>
        <linearGradient id="prefix__linear-gradient-8" x1=".518" x2=".489" y1=".953" y2=".015" xlink:href="#prefix__linear-gradient-6"/>
        <linearGradient id="prefix__linear-gradient-9" x1=".062" x2=".908" y1=".934" y2=".028" xlink:href="#prefix__linear-gradient"/>
        <linearGradient id="prefix__linear-gradient-10" x1=".611" x2=".161" y1="1.107" y2="-.005" xlink:href="#prefix__linear-gradient-3"/>
        <linearGradient id="prefix__linear-gradient-11" x2="1" y1=".5" y2=".5" gradientUnits="objectBoundingBox">
            <stop offset="0" stop-color="#aecefd"/>
            <stop offset=".093" stop-color="#99aee5"/>
            <stop offset=".232" stop-color="#7e86c8"/>
            <stop offset=".375" stop-color="#6864b0"/>
            <stop offset=".521" stop-color="#564a9d"/>
            <stop offset=".671" stop-color="#4a388f"/>
            <stop offset=".827" stop-color="#432d87"/>
            <stop offset="1" stop-color="#412a85"/>
        </linearGradient>
        <linearGradient id="prefix__linear-gradient-12" x1=".534" x2=".441" y1="1.008" y2="-.065" gradientUnits="objectBoundingBox">
            <stop offset="0" stop-color="#321f6a"/>
            <stop offset=".159" stop-color="#352571"/>
            <stop offset=".392" stop-color="#403684"/>
            <stop offset=".671" stop-color="#5252a4"/>
            <stop offset=".983" stop-color="#6a79d1"/>
            <stop offset="1" stop-color="#6c7cd4"/>
        </linearGradient>
        <linearGradient id="prefix__linear-gradient-13" x1=".178" x2=".698" y1="1.003" y2=".134" xlink:href="#prefix__linear-gradient"/>
        <linearGradient id="prefix__linear-gradient-14" x1="0" x2="1" y1=".5" y2=".5" xlink:href="#prefix__linear-gradient-6"/>
        <linearGradient id="prefix__linear-gradient-15" x1=".931" x2="-.079" y1="1.29" y2="-.172" xlink:href="#prefix__linear-gradient-3"/>
        <linearGradient id="prefix__linear-gradient-16" x1=".368" x2=".603" y1="1.018" y2=".011" xlink:href="#prefix__linear-gradient-12"/>
        <linearGradient id="prefix__linear-gradient-17" x1="1.134" x2=".078" y1="1.147" y2="-.013" xlink:href="#prefix__linear-gradient-12"/>
        <linearGradient id="prefix__linear-gradient-18" x1=".683" x2="-.123" y1=".849" y2="-.019" xlink:href="#prefix__linear-gradient"/>
        <style>
            .prefix__cls-21{fill:#402c86;opacity:.5}.prefix__cls-21,.prefix__cls-24{mix-blend-mode:multiply;isolation:isolate}.prefix__cls-22,.prefix__cls-24{fill:#ffcb0f}.prefix__cls-23{fill:#fff;opacity:.2}.prefix__cls-24{opacity:.4}.prefix__cls-26{fill:#1f2b38}.prefix__cls-27{fill:#3e4a57}.prefix__cls-28{fill:#4f5b68}
        </style>
    </defs>
    <g id="prefix__Group_1494" data-name="Group 1494" transform="translate(-355.079 -33.999)">
        <g id="prefix__Group_1487" data-name="Group 1487" transform="translate(363.989 33.999)">
            <g id="prefix__Group_1486" data-name="Group 1486">
                <path id="prefix__Path_1779" fill="url(#prefix__linear-gradient)" d="M411.277 35.568l-.731 3.384-3.15 1.34-.35-2.135z" data-name="Path 1779" transform="translate(-380.038 -34.483)"/>
                <path id="prefix__Path_1780" fill="url(#prefix__linear-gradient-2)" d="M405.646 39.312l-2.964 2.073-.169-2.076z" data-name="Path 1780" transform="translate(-378.639 -35.639)"/>
                <path id="prefix__Path_1781" fill="url(#prefix__linear-gradient-3)" d="M405.646 37.672h-3.133l5.53-3.672 1.835 1.085z" data-name="Path 1781" transform="translate(-378.639 -33.999)"/>
                <path id="prefix__Path_1782" fill="url(#prefix__linear-gradient-4)" d="M408.463 38.279l-1.233 5.305-.082.346c-.016.058-.032.12-.045.19l-.055.222-.444 1.934s-.7 8.893-.928 11.408c-.07.762-.337 2.631-.679 4.865-.495 3.236-1.142 7.239-1.55 9.75-.112.688-.206 1.262-.276 1.678-.074.47-.12.738-.12.738h-10.765c0-.032.017-.2.046-.482.012-.169.032-.379.054-.623.028-.326.066-.713.106-1.15v-.009c.371-3.858 1.163-11.423 1.847-12.771.012-.024.026-.046.037-.066a2.738 2.738 0 0 0 .256-.64.092.092 0 0 0 .012-.033c.845-2.946 1.691-12.763 2.271-14.8a51.971 51.971 0 0 1 2.442-5.986l.169 2.074 2.964-2.074.35 2.135 3.15-1.34.73-3.384 1.022.605z" data-name="Path 1782" transform="translate(-375.48 -34.483)"/>
                <path id="prefix__Path_1783" fill="url(#prefix__linear-gradient-5)" d="M400.794 44.14s-.952 4.861-1.684 7.1l-.008.027c-.072.223-.142.416-.209.576-.727 1.755-3.15 8.115-3.215 8.284.849-2.907 1.7-12.786 2.284-14.829a52.043 52.043 0 0 1 2.441-5.986l.169 2.076.057.7.023.288.119 1.46z" data-name="Path 1783" transform="translate(-376.527 -35.639)"/>
                <path id="prefix__Path_1784" fill="url(#prefix__linear-gradient-6)" d="M409.808 45.1l-.084.348c-.44 1.814-2.53 10.221-3.9 12.187-1.534 2.209-3.246 8.807-4.231 10.856-.587-5.6-.718-8.237-.57-10.087a57.664 57.664 0 0 0-.391-6.78l.008-.027c.115-.448 1.72-6.618 1.657-7.4l3.115-2.387 3.15-1.34z" data-name="Path 1784" transform="translate(-378.057 -35.995)"/>
                <path id="prefix__Path_1785" fill="url(#prefix__linear-gradient-7)" d="M409.878 35.083l-4.231 2.589h-3.133L408.043 34z" data-name="Path 1785" transform="translate(-378.639 -33.999)"/>
                <path id="prefix__Path_1786" fill="url(#prefix__linear-gradient-8)" d="M414.584 38.279l-1.231 5.307-1.243-4.633.731-3.384 1.025.605z" data-name="Path 1786" transform="translate(-381.602 -34.483)"/>
                <path id="prefix__Path_1787" fill="url(#prefix__linear-gradient-9)" d="M406.072 41.449l-3.115 2.387-.116-1.463-.024-.288-.057-.7 2.964-2.073z" data-name="Path 1787" transform="translate(-378.714 -35.64)"/>
                <path id="prefix__Path_1788" fill="url(#prefix__linear-gradient-10)" d="M392.983 76.748h-10.392l-3.118-11.581.4-15.967.124-5.041 1.04-2 .743 3.786a11.029 11.029 0 0 1 2.82 2.153 6.955 6.955 0 0 0 2.216 1.1 8.16 8.16 0 0 0-.583-1.1c-.816-1.187-5.2-5.939-5.2-5.939h2.449l3.918 3.781 1.577 7.646.306 1.776z" data-name="Path 1788" transform="translate(-371.523 -36.517)"/>
                <path id="prefix__Path_1789" fill="url(#prefix__linear-gradient-11)" d="M388.094 45.94l-1.17 2.153c-.816-1.187-5.2-5.939-5.2-5.939h2.449z" data-name="Path 1789" transform="translate(-372.219 -36.517)"/>
                <path id="prefix__Path_1790" fill="url(#prefix__linear-gradient-12)" d="M392.3 57.053c-.053-.151-1.5-4.062-2.467-6.162a8.16 8.16 0 0 0-.583-1.1l1.17-2.153 1.577 7.646z" data-name="Path 1790" transform="translate(-374.541 -38.209)"/>
                <path id="prefix__Path_1791" fill="url(#prefix__linear-gradient-13)" d="M381.951 45.94l-1.906 3.26.124-5.041 1.04-2z" data-name="Path 1791" transform="translate(-371.7 -36.517)"/>
                <path id="prefix__Path_1792" fill="url(#prefix__linear-gradient-14)" d="M387.507 49.2a6.955 6.955 0 0 1-2.216-1.1 11.029 11.029 0 0 0-2.82-2.153l-.743-3.786s4.38 4.751 5.2 5.939a8.16 8.16 0 0 1 .579 1.1z" data-name="Path 1792" transform="translate(-372.219 -36.517)"/>
                <path id="prefix__Path_1793" fill="url(#prefix__linear-gradient-15)" d="M386.066 83.179h-9.255l-1.467-2.1-3.459-4.952-3.166-4.527c-.029-.115-1.035-4.54-.668-5.343.3-.672 1.257-2.445 1.6-3.055l.057-.107c.013-.017.017-.029.026-.041l.02-.041.008-.021 3.047.445s1.617 2.622 3.2 4.627a12.974 12.974 0 0 0 1.62 1.756 21.542 21.542 0 0 1 2.73 3.537c.115.169.226.337.341.515.173.26.35.528.523.8s.355.545.528.825c.94 1.48 1.867 3.022 2.622 4.342.219.379.424.741.61 1.079.132.249.26.479.371.7.033.066.066.128.1.189.066.12.123.236.178.347l.078.162c.053.1.1.2.136.284s.082.185.115.264a2.517 2.517 0 0 1 .105.315z" data-name="Path 1793" transform="translate(-367.971 -42.951)"/>
                <path id="prefix__Path_1794" fill="url(#prefix__linear-gradient-16)" d="M370.8 67a1.525 1.525 0 0 1-.038.3 24.44 24.44 0 0 1-2.04 4.306s-1.04-4.529-.668-5.345l1.675-3.2.033-.062A21.231 21.231 0 0 1 370.8 67z" data-name="Path 1794" transform="translate(-367.971 -42.952)"/>
                <path id="prefix__Path_1795" fill="url(#prefix__linear-gradient-17)" d="M386.865 83.183a30.993 30.993 0 0 1-4.8-5.271c-1.485-2.376-4.083-5.939-5.642-8.092-1.443-1.993-2.631-1.952-3.5-3.523a3.575 3.575 0 0 1-.209-.413 7.365 7.365 0 0 0-2.152-2.895l3.044.444s2.969 4.826 4.825 6.386 8.186 12.102 8.434 13.364z" data-name="Path 1795" opacity="0.3" transform="translate(-368.77 -42.952)"/>
                <path id="prefix__Path_1796" fill="url(#prefix__linear-gradient-18)" d="M371.559 67.3a1.525 1.525 0 0 0 .038-.3 21.231 21.231 0 0 0-1.039-4.009 7.365 7.365 0 0 1 2.152 2.895 3.575 3.575 0 0 0 .209.413z" data-name="Path 1796" transform="translate(-368.77 -42.952)"/>
            </g>
            <path id="prefix__Path_1797" fill="#562e17" d="M398.728 90.379c-.276.231-.371.837-.882 1.158s-1.253 1.254-1.53 1.069-1.389.466-2.09.511a8.312 8.312 0 0 1-1.39-.046 3.787 3.787 0 0 1-.7.792.3.3 0 0 1-.083.04c-.28.091-1.113-.511-1.719-.6s-1.53 1.023-1.53 1.023a10.224 10.224 0 0 0-1.9-.606c-.415 0-1.022.606-1.946.606a3.088 3.088 0 0 1-.409-.025 4.2 4.2 0 0 1-1.31-.441c-.375-.14-1.253.466-1.253.466s-.928-.606-1.72-1.113-2-.095-2.317-.281a3.1 3.1 0 0 0-1.006-.231 6.555 6.555 0 0 1 .355-1.022c.231-.512-.7-1.113-.742-1.393a.547.547 0 0 1 0-.182 1.017 1.017 0 0 1 .053-.222 1.339 1.339 0 0 1 .416-.577 1.177 1.177 0 0 1 .162-.111c.037-.02.065-.05.106-.07a5.107 5.107 0 0 1 .7-.267 1.138 1.138 0 0 1 .127-.041c.73.069.866 1.224 2.029 1.7.218.086.9-.187 1.319-.28h.025a13.253 13.253 0 0 1 1.876 0c.189 0 1.252-1.024 1.628-.928.174.041.541.144.879.247.386.111.741.218.741.218s.087.425.854.7c.045.017.09.029.14.046a3.079 3.079 0 0 0 .742.115 1.973 1.973 0 0 0 .256 0 9.488 9.488 0 0 0 2.049-.4c.1 0 .28-.19.548-.372a1.91 1.91 0 0 1 .635-.281 1.577 1.577 0 0 1 .238-.033c.792-.045 1.176.408 1.642.268s1.018-1.534 1.484-1.393 1.113.7 1.3.7a10.144 10.144 0 0 0 1.471-.957 5.314 5.314 0 0 1 .61.375 6.187 6.187 0 0 0 .516.346c.509.284-.093 1.257-.374 1.492z" data-name="Path 1797" transform="translate(-370.618 -50.728)"/>
            <path id="prefix__Path_1798" fill="#422312" d="M398.728 90.7c-.276.231-.371.837-.882 1.158s-1.253 1.254-1.53 1.069-1.389.466-2.09.511a8.312 8.312 0 0 1-1.39-.046 3.787 3.787 0 0 1-.7.792.3.3 0 0 1-.083.04c-.28.091-1.113-.511-1.719-.6s-1.53 1.023-1.53 1.023a10.224 10.224 0 0 0-1.9-.606c-.415 0-1.022.606-1.946.606a3.088 3.088 0 0 1-.409-.025 4.2 4.2 0 0 1-1.31-.441c-.375-.14-1.253.466-1.253.466s-.928-.606-1.72-1.113-2-.095-2.317-.281a3.1 3.1 0 0 0-1.006-.231A6.555 6.555 0 0 1 377.29 92c.231-.512-.7-1.113-.742-1.393a.548.548 0 0 1 0-.182 1.017 1.017 0 0 1 .053-.222 1.339 1.339 0 0 1 .416-.577 1.178 1.178 0 0 1 .162-.111.965.965 0 0 0-.1.495c.045.28.928.882.705 1.393s.314 1.068.623 1.254 1.459-.231 2.2.275 2.479.511 2.833.652a3.414 3.414 0 0 0 1.554.462.633.633 0 0 0 .083 0c.881 0 1.456-.605 1.855-.605a30.843 30.843 0 0 1 3.273-.415 5.626 5.626 0 0 0 1.225-.058c.6-.075 1.158-.173 1.158-.173a7.421 7.421 0 0 0 1.328.046 5.4 5.4 0 0 0 3.43-1.563l.017-.017c.189-.205.574-.424.932-.721a1.921 1.921 0 0 0 .792-1.333c.524.286-.078 1.259-.359 1.493z" data-name="Path 1798" transform="translate(-370.618 -51.05)"/>
        </g>
        <path id="prefix__Path_1799" d="M405.253 86.191c-.276.231-.371.837-.882 1.158s-1.253 1.254-1.53 1.069-1.389.466-2.09.511a8.312 8.312 0 0 1-1.39-.046 3.786 3.786 0 0 1-.7.792c-.149-.273-.321-.512-.479-.8-.069-.127-.144-.267-.209-.415a3.175 3.175 0 0 1-.281-.867 3.5 3.5 0 0 1 .017-.824 5.011 5.011 0 0 0 .032-.9c0-.062-.008-.128-.008-.189a3.758 3.758 0 0 1 .433-1.463 4.314 4.314 0 0 0 .3-.858c.091-.445.219-.9.281-1.356a6.016 6.016 0 0 1 .07-1.41c.177-.478.631-.569.9-.944s.252-.8.581-1.167a1.509 1.509 0 0 1 .309-.26 2.208 2.208 0 0 1 .515-.231c.124-.036.248-.066.38-.094.132-.923 1.686-1.076 2.221-1.74.223-.259.252-.491.586-.668.527-.272 1.17-.2 1.67-.556a1.313 1.313 0 0 1 .693-.326c-.495 3.236-1.143 7.239-1.55 9.75a6.178 6.178 0 0 0 .516.346c.497.28-.105 1.253-.385 1.488z" class="prefix__cls-21" data-name="Path 1799" transform="translate(-13.153 -12.541)"/>
        <g id="prefix__Group_1490" data-name="Group 1490" transform="translate(385.377 62.872)">
            <g id="prefix__Group_1488" data-name="Group 1488">
                <path id="prefix__Path_1800" d="M415.571 83.833a2.228 2.228 0 0 1 .194 1.183 5.761 5.761 0 0 1-.519.943.745.745 0 0 0-.035.435c0 .072.01.138.01.2a5.7 5.7 0 0 1 .085 1.457 2.775 2.775 0 0 1-.925 1.149 4.564 4.564 0 0 0-1.032 1.317 2.488 2.488 0 0 1-1.663 1.141 2.184 2.184 0 0 1-.4.055c-.043 0-.08.009-.123.011a.477.477 0 0 0-.077 0h-.066c-.086 0-.174 0-.259.009s-.172 0-.259.008c-.419.03-.654.33-1.005.393-.516.084-.833-.258-1.362-.041a2.558 2.558 0 0 0-1.1.852 1.261 1.261 0 0 1-1.228.418c-.573-.022-.941.313-1.487.332a5.9 5.9 0 0 1-1.382-.048c-.222-.06-.252-.18-.456-.339a.625.625 0 0 0-.113-.068 2.6 2.6 0 0 1-.417-.162c-.317-.232-.245-.7-.612-1.027-.129-.11-.263-.131-.357-.27-.127-.182-.067-.375-.25-.551s-.344-.272-.48-.4a1.17 1.17 0 0 1-.276-.384c-.16-.359-.38-.641-.573-.99a3.937 3.937 0 0 1-.471-1.228c-.07-.543.1-1.106.05-1.657-.082-.882.514-1.564.69-2.4.089-.429.208-.868.268-1.3a5.927 5.927 0 0 1 .068-1.351c.171-.458.6-.543.858-.9s.241-.767.558-1.118a2 2 0 0 1 1.152-.561c.125-.883 1.614-1.031 2.13-1.666.211-.251.242-.473.56-.642.507-.261 1.122-.194 1.6-.532.556-.4.623-.344 1.273-.257.389.051.8-.04 1.187.04a2.629 2.629 0 0 1 .98.538 1.541 1.541 0 0 0 .634.194.99.99 0 0 1 .522.214c.167.141.245.374.448.462.181.079.449-.018.668.077a2.195 2.195 0 0 1 .646.506c.063.062.122.125.189.181a.863.863 0 0 0 .113.1c.386.328.547.369.722.9.164.5.484.628.753 1 .687.952-.067 2.228.375 3.248.046.109.2.18.227.272s-.057.169-.033.257z" class="prefix__cls-22" data-name="Path 1800" transform="translate(-398.915 -75.774)"/>
                <path id="prefix__Path_1801" d="M399.569 93.043a6.128 6.128 0 0 0 .308.962 2.667 2.667 0 0 1-.591-1.953c.129-.581-.082-1.2.116-1.742a2.618 2.618 0 0 1 .162 1.774.964.964 0 0 0 .005.959z" class="prefix__cls-23" data-name="Path 1801" transform="translate(-399.02 -80.263)"/>
                <path id="prefix__Path_1802" d="M409.3 76.891a4.534 4.534 0 0 0 .693-.164c.126-.065.47-.487.8-.537s1.149.121 1.522.079c-.437.256-1.06.068-1.283.161a7.052 7.052 0 0 1-.617.509 6.88 6.88 0 0 1-1.115-.048z" class="prefix__cls-23" data-name="Path 1802" transform="translate(-402.123 -75.899)"/>
                <path id="prefix__Path_1803" d="M416.2 83.949c-.03-.092-.181-.163-.227-.272-.442-1.021.312-2.3-.375-3.248-.268-.376-.589-.506-.753-1-.175-.535-.336-.576-.722-.9a.863.863 0 0 1-.113-.1c-.068-.056-.126-.12-.189-.181a2.194 2.194 0 0 0-.646-.506c-.219-.095-.487 0-.668-.077-.2-.088-.281-.321-.448-.462a.99.99 0 0 0-.522-.214.191.191 0 0 0-.012.128.37.37 0 0 0 .015.064c.007.013.01.032.017.046.131.355.608.912.675 1.181.1.346-.353.993-.645 1.229a.492.492 0 0 1 .109.044 1.7 1.7 0 0 1 .74.963.383.383 0 0 1 0 .135 10.328 10.328 0 0 0-1.159 1.4l-.1.156c.592 0 1.116-.188 1.381-.13a.217.217 0 0 1-.029.058 2.646 2.646 0 0 1-.535.588 5.558 5.558 0 0 0-.484.456.688.688 0 0 1-.652.666 1.766 1.766 0 0 1-1.632-.633.76.76 0 0 1-.1-.143c-.213-.124-.571.075-.571.075a3.71 3.71 0 0 1 .077 1.143c-.151.285-.625.946-.923 1.01-.4-.088-.7-.218-.921-.269a1.214 1.214 0 0 0-.187-.022c-.167.485-.219.576-.169.765a.252.252 0 0 0 .079.1c.243.22.957.575.853.766-.117.222-.5.627-.612.853a1.018 1.018 0 0 1 .433.377 2.619 2.619 0 0 1 .433 1.017 2.839 2.839 0 0 1-.786.53s-.6-.476-1.118-.823a2.6 2.6 0 0 0-.634-.369c-.259.216-.858.088-.858.088l-.237.2s.405.382.395.581a.833.833 0 0 0 0 .092 3.221 3.221 0 0 0 .207.91c-.028.361.587 1.494.485 1.628a1.5 1.5 0 0 1-1.984.6 3.322 3.322 0 0 1-.552-.4 8.982 8.982 0 0 1-.874-.888l-.822.044c.137.131.3.226.48.4s.124.369.25.551c.095.139.228.16.357.27.366.325.294.795.612 1.027a2.6 2.6 0 0 0 .417.162.625.625 0 0 1 .113.068c.2.16.234.279.455.339a5.9 5.9 0 0 0 1.382.048c.546-.019.914-.354 1.487-.332a1.261 1.261 0 0 0 1.228-.418 2.558 2.558 0 0 1 1.1-.852c.529-.217.845.126 1.362.041.351-.063.586-.362 1-.393.087 0 .172-.008.259-.008s.173-.006.259-.009h.066a.3.3 0 0 0 .071-.008.536.536 0 0 0 .129-.006 2.185 2.185 0 0 0 .4-.055 2.488 2.488 0 0 0 1.663-1.141 4.564 4.564 0 0 1 1.032-1.317 2.775 2.775 0 0 0 .925-1.149 5.7 5.7 0 0 0-.085-1.457c0-.063-.008-.129-.01-.2a.745.745 0 0 1 .035-.435 5.761 5.761 0 0 0 .519-.943 2.228 2.228 0 0 0-.194-1.183c-.008-.087.078-.159.048-.256zm-2.807-4.59c.29.151.27 1.08.27 1.08l-.445-.655s-.7-.252-.9-.311a1.121 1.121 0 0 1 1.082-.114zm-1.6 4.7l.883-.589.227-.992a5.442 5.442 0 0 1 .038 1.079c-.05.375-.741.425-.811.548a2.034 2.034 0 0 1-.511.344zm-2.575.023a4.225 4.225 0 0 0 1.258.906 2.325 2.325 0 0 1-.988-.055l-.267-.4a3.48 3.48 0 0 1 0-.453zm-4.27 6.158l.366-.7.527.328-.148.747.548.811-.241.474s-.412-.337-.632-.561a2.343 2.343 0 0 1-.417-1.101z" class="prefix__cls-24" data-name="Path 1803" transform="translate(-399.513 -76.146)"/>
                <path id="prefix__Path_1804" d="M417.116 84.205a2.228 2.228 0 0 1 .194 1.183 5.761 5.761 0 0 1-.519.943.745.745 0 0 0-.035.435c0 .072.01.138.01.2a5.7 5.7 0 0 1 .085 1.457 2.775 2.775 0 0 1-.925 1.149 4.564 4.564 0 0 0-1.032 1.317 2.488 2.488 0 0 1-1.663 1.141 2.185 2.185 0 0 1-.4.055.536.536 0 0 1-.129.006.3.3 0 0 1-.071.008h-.066c-.086 0-.173 0-.259.009s-.172 0-.259.008c-.419.03-.654.33-1 .393-.516.084-.833-.258-1.362-.041a2.558 2.558 0 0 0-1.1.852 1.261 1.261 0 0 1-1.228.418c-.573-.022-.941.313-1.487.332a5.9 5.9 0 0 1-1.382-.048c-.222-.06-.252-.18-.455-.339a.625.625 0 0 0-.113-.068c.245 0 .485-.012.673-.019.547-.012.914-.352 1.488-.326a1.256 1.256 0 0 0 1.228-.419 2.53 2.53 0 0 1 1.1-.851c.528-.221.845.126 1.362.041.351-.063.585-.361 1-.392a7.9 7.9 0 0 0 1.181-.087 2.7 2.7 0 0 0 .435-.14 2.225 2.225 0 0 0 1.228-1 4.368 4.368 0 0 1 1.037-1.318 2.794 2.794 0 0 0 .919-1.149 3.2 3.2 0 0 0-.067-1.2 2.463 2.463 0 0 1-.018-.256 1.419 1.419 0 0 1 .026-.636 4.993 4.993 0 0 0 .518-.949 2.209 2.209 0 0 0-.194-1.178c-.024-.087.059-.164.035-.256s-.18-.162-.227-.27c-.443-1.022.316-2.3-.377-3.255-.268-.37-.588-.5-.753-1-.169-.532-.33-.573-.721-.9a4.467 4.467 0 0 0-.949-.789.726.726 0 0 0-.34-.045.159.159 0 0 1-.013-.046.22.22 0 0 1 0-.192.99.99 0 0 1 .522.214c.167.141.245.374.448.462.181.079.449-.018.668.077a2.194 2.194 0 0 1 .646.506c.063.062.122.125.189.181a.863.863 0 0 0 .113.1c.386.328.547.369.722.9.164.5.485.628.753 1 .687.952-.067 2.228.375 3.248.046.109.2.18.227.272s-.062.175-.038.262z" class="prefix__cls-24" data-name="Path 1804" transform="translate(-400.461 -76.146)"/>
                <path id="prefix__Path_1805" d="M409.9 90.782c-.12.221-.5.623-.612.852-.129-.309.041-.39.048-.69a3.13 3.13 0 0 0-.272-.86l-.018-.072c.248.221.961.58.854.77z" class="prefix__cls-23" data-name="Path 1805" transform="translate(-402.045 -80.171)"/>
                <path id="prefix__Path_1806" d="M409.374 92.906a2.68 2.68 0 0 1 .431 1.017 2.8 2.8 0 0 1-.785.531s-.605-.474-1.116-.824l.922.254a1.148 1.148 0 0 0 .548-.978z" class="prefix__cls-23" data-name="Path 1806" transform="translate(-401.691 -81.065)"/>
                <path id="prefix__Path_1807" d="M405.249 88.964c-.089.159-.335.6-.42.8-.079.178.228.486.385.626-.167-.077-.559-.187-.569-.484s.301-.417.604-.942z" class="prefix__cls-23" data-name="Path 1807" transform="translate(-400.685 -79.847)"/>
                <path id="prefix__Path_1808" d="M405.147 94.812a3.146 3.146 0 0 0 .206.91c-.028.359.587 1.495.484 1.627a1.5 1.5 0 0 1-1.984.6 3.239 3.239 0 0 1-.552-.4c.571-.046 1.776.373 1.765-.612 0-.37-.147-.68-.126-1.049.017-.288.193-.748.207-1.076z" class="prefix__cls-23" data-name="Path 1808" transform="translate(-400.27 -81.653)"/>
                <path id="prefix__Path_1809" d="M402.82 91.626c-.281-.077-.455.117-.8.042s-.97.5-1.083.731a3.528 3.528 0 0 0-.135.341 1.821 1.821 0 0 0-.268.632 2.168 2.168 0 0 1 .481-1.585c.109-.13.9-.744 1.322-.508.174.098.425.16.483.347z" class="prefix__cls-23" data-name="Path 1809" transform="translate(-399.413 -80.546)"/>
                <path id="prefix__Path_1810" d="M411.217 86.072a3.766 3.766 0 0 1 .079 1.141c-.151.284-.626.946-.921 1.013-.409-.089-.7-.219-.923-.27.431-.034.937-.558 1.184-.876.146-.185.112-.342.141-.566a1.014 1.014 0 0 1 .084-.334c.024-.044.354-.074.356-.108z" class="prefix__cls-23" data-name="Path 1810" transform="translate(-402.17 -78.954)"/>
                <path id="prefix__Path_1811" d="M412.786 78.639l-1.165.957-.9.272-.171.855s.266.811.617.917a1.934 1.934 0 0 1-1.27-.86c-.2-.446-.471-.622-.133-.977a6.865 6.865 0 0 1 3.022-1.164z" class="prefix__cls-23" data-name="Path 1811" transform="translate(-402.216 -76.659)"/>
                <path id="prefix__Path_1812" d="M408.252 82.909a.881.881 0 0 0-.165.041c-.375.63-.966 1.112-1.121 1.389a3.486 3.486 0 0 0 .067 1.345l.241.355c-.039-.034-.378-.426-.414-.478a3.732 3.732 0 0 0-.56-.7c-.011-.017.7-.9.751-1.008.2-.394.131-.867.339-1.254.126.284.584.338.862.31z" class="prefix__cls-23" data-name="Path 1812" transform="translate(-401.196 -77.881)"/>
                <path id="prefix__Path_1813" d="M417.1 81.972a10.215 10.215 0 0 0-1.158 1.4 5.979 5.979 0 0 1 .478-1.4 2.1 2.1 0 0 0-.059-1.105c.333.184.8.788.739 1.105z" class="prefix__cls-23" data-name="Path 1813" transform="translate(-404.173 -77.349)"/>
            </g>
            <path id="prefix__Path_1814" fill="#ffcb0f" d="M419.615 91a5.7 5.7 0 0 1 .085 1.457 2.775 2.775 0 0 1-.925 1.149 4.564 4.564 0 0 0-1.032 1.317 2.488 2.488 0 0 1-1.663 1.141 2.185 2.185 0 0 1-.4.055c-.043 0-.08.009-.123.011h-.006a3.087 3.087 0 0 1-.317-.67c-.044-.093-.079-.185-.123-.279a1.379 1.379 0 0 0-.626-.706c-.321-.16-.748-.09-1.075-.378-.351-.314-.27-.462-.234-.892a4.4 4.4 0 0 1 .318-1.966c.149-.323.219-1.1.662-1.188.407-.076.953.253 1.375.27a4.187 4.187 0 0 1 1.807.2 1.582 1.582 0 0 0 .9.285.944.944 0 0 0 .113-.013 4.966 4.966 0 0 1 .852-.242.411.411 0 0 1 .4.254c.005.064.012.13.012.195z" data-name="Path 1814" transform="translate(-403.31 -80.177)" style="mix-blend-mode:multiply;isolation:isolate" opacity="0.5"/>
            <g id="prefix__Group_1489" data-name="Group 1489" transform="translate(10.643 10.463)">
                <path id="prefix__Path_1815" d="M423.238 95.49c.008.751-.066.8-.738 1.149-.6.3-.422.811-.8 1.248-.433.514-1.366.636-1.938.936-.617.321-.23.223-.814.007-.373-.139-.741.1-1.043-.063a2.948 2.948 0 0 1-.549-.711c-.313-.481-.463-1.023-.8-1.489a5.225 5.225 0 0 1-.429-.906 1.258 1.258 0 0 0-.579-.651c-.3-.15-.69-.086-.991-.352-.324-.289-.248-.424-.218-.821a4.138 4.138 0 0 1 .3-1.818c.14-.3.2-1.015.61-1.095.379-.072.88.23 1.271.251a3.822 3.822 0 0 1 1.671.181 1.441 1.441 0 0 0 .828.263c.267-.007.668-.25.892-.232.291.021.329.16.4.3a.512.512 0 0 0 .217.23 1.981 1.981 0 0 0 .708.2 3.174 3.174 0 0 1 1.208.261c.413.231.388.444.543.78a7.18 7.18 0 0 1 .337.644 7.474 7.474 0 0 1-.086 1.688z" class="prefix__cls-22" data-name="Path 1815" transform="translate(-414.314 -90.912)"/>
                <path id="prefix__Path_1816" d="M424.051 96.029c.008.751-.066.8-.738 1.149-.6.3-.422.811-.8 1.248-.433.514-1.366.636-1.938.936-.617.321-.23.223-.814.007-.373-.139-.741.1-1.043-.063a2.948 2.948 0 0 1-.549-.711c-.313-.481-.463-1.023-.8-1.489a5.225 5.225 0 0 1-.429-.906 3.52 3.52 0 0 1 .677.219c.306.141.445.415.691.572.372.238.518.066.949.086.346.017.526.2.848.17.854-.075.78-.8.677-1.486-.1-.652-.769-1.008.085-1.443.585-.3 1.23.007 1.327-.907a1.658 1.658 0 0 0-.145-.754 3.174 3.174 0 0 1 1.208.261c.413.231.388.444.543.78a7.179 7.179 0 0 1 .337.644 7.474 7.474 0 0 1-.086 1.687z" class="prefix__cls-24" data-name="Path 1816" transform="translate(-415.126 -91.451)"/>
                <path id="prefix__Path_1817" d="M417.166 95.789s-.527-1.411-.26-1.535a6.254 6.254 0 0 1 1.961-.332 1.352 1.352 0 0 1 .587.341 10.012 10.012 0 0 0-1.689.6c-.187.178-.122 1.189-.122 1.189z" class="prefix__cls-24" data-name="Path 1817" transform="translate(-415.091 -91.837)"/>
            </g>
        </g>
        <path id="prefix__Path_1818" d="M385.3 83.627v.009c0 .062-.066.742-.173 1.674-.041.375-.091.791-.148 1.224-.063.458-.129.932-.207 1.4a13.268 13.268 0 0 1-.66 2.766 1.246 1.246 0 0 1-.2.343 2.114 2.114 0 0 1-.268.23 4.2 4.2 0 0 1-1.31-.441c-.375-.14-1.253.466-1.253.466s-.928-.606-1.72-1.113-2-.095-2.317-.281a3.1 3.1 0 0 0-1.006-.231 6.555 6.555 0 0 1 .355-1.022c.231-.512-.7-1.113-.742-1.393a1.275 1.275 0 0 1 .635-1.093v.006a1.234 1.234 0 0 1 .108-.073 5.109 5.109 0 0 1 .7-.267l-3.459-4.952c.581-.577 1.138-1.315 1.608-1.839a2.01 2.01 0 0 1 .809-.668l2.391.841 2.989 1.052 1.015.358 2.6 2.734z" class="prefix__cls-21" data-name="Path 1818" transform="translate(-5.73 -13.705)"/>
        <g id="prefix__Group_1493" data-name="Group 1493" transform="translate(355.079 66.254)">
            <g id="prefix__Group_1491" data-name="Group 1491" transform="translate(5.349)">
                <path id="prefix__Path_1819" d="M383.921 85.467v.006c-.053.055-1.787 1.974-2.6 2.066s-1.98-1.778-1.98-1.778l-4.568 2.067-2.316-4.228c1.175-.652 2.388-2.8 3.016-2.935l5.84 2.058 2.374 2.5z" class="prefix__cls-26" data-name="Path 1819" transform="translate(-365.795 -80.667)"/>
                <path id="prefix__Path_1820" d="M380.943 86.784c-.016.178-.529 5.945-1.266 6.769-.612.676-4.748 2.6-6.28 3.3l-.569.257s-5.965-1.442-6.409-1.938-3.146-1.7-3.526-2.294.8-7.011.8-7.011 3.915-.659 5.242-.772a1.346 1.346 0 0 0 .548-.184l2.314 4.226 4.568-2.067s1.155 1.869 1.98 1.778 2.546-2.009 2.598-2.064z" class="prefix__cls-27" data-name="Path 1820" transform="translate(-362.818 -81.978)"/>
                <path id="prefix__Path_1821" d="M362.893 93.307c.38.6 3.084 1.8 3.526 2.294s6.409 1.938 6.409 1.938l.569-.257a6.577 6.577 0 0 0-1.042-2.767 7.606 7.606 0 0 0-2.283-1.207l-1.264-1.59-2.485-1.755-2.633-3.663s-1.176 6.411-.797 7.007z" class="prefix__cls-26" data-name="Path 1821" transform="translate(-362.818 -82.405)"/>
                <path id="prefix__Path_1822" d="M372.458 83.6l2.313 4.226a9.556 9.556 0 0 0 .216-2.667c-.14-1.069.758-.413 1.084-1.664a4.529 4.529 0 0 0-.6-2.83c-.626.135-1.839 2.285-3.013 2.935z" class="prefix__cls-28" data-name="Path 1822" transform="translate(-365.795 -80.667)"/>
            </g>
            <g id="prefix__Group_1492" data-name="Group 1492" transform="translate(0 9.107)">
                <path id="prefix__Path_1823" d="M361.26 99.912l-.35 2.682s3.589-.688 4.191-1.344 2.478-3.792 2.478-3.792z" class="prefix__cls-26" data-name="Path 1823" transform="translate(-356.88 -94.959)"/>
                <path id="prefix__Path_1824" d="M359.112 102.18l.35-2.682.093-3.15-4.466-.23s-.05 2.944.8 4.163 3.223 1.899 3.223 1.899z" class="prefix__cls-27" data-name="Path 1824" transform="translate(-355.082 -94.546)"/>
                <path id="prefix__Path_1825" d="M355.087 95.415c-.219.789 4.373 3.38 4.373 3.38l6.318-2.454s-1.239-1.68-5.221-2.465c-1.524-.3-5.47 1.539-5.47 1.539z" class="prefix__cls-28" data-name="Path 1825" transform="translate(-355.079 -93.843)"/>
            </g>
        </g>
    </g>
</svg>
