<svg xmlns="http://www.w3.org/2000/svg" width="49.063" height="48.999" viewBox="0 0 49.063 48.999">
    <defs>
        <style>
            .prefix__cls-1{fill:#828285}.prefix__cls-2{fill:#474747}.prefix__cls-3{fill:#1c1c1c}.prefix__cls-4{fill:#333}.prefix__cls-5{fill:#404040}.prefix__cls-6{fill:#a6a8ab}.prefix__cls-8{opacity:.1}.prefix__cls-9{fill:#bdbfc3}.prefix__cls-10{fill:#fff;opacity:.3}.prefix__cls-11{fill:#d8d8d8}.prefix__cls-12{fill:#989898}
        </style>
    </defs>
    <g id="prefix__Group_1623" data-name="Group 1623" transform="translate(-246.701 -140.82)">
        <g id="prefix__Group_1495" data-name="Group 1495" transform="translate(247.168 171.636)">
            <path id="prefix__Rectangle_372" d="M0 0H4.197V2.034H0z" class="prefix__cls-1" data-name="Rectangle 372" transform="translate(41.715 .869)"/>
            <path id="prefix__Rectangle_373" d="M0 0H2.216V3.771H0z" class="prefix__cls-2" data-name="Rectangle 373" transform="translate(45.912)"/>
            <path id="prefix__Rectangle_374" d="M0 0H4.197V2.034H0z" class="prefix__cls-1" data-name="Rectangle 374" transform="translate(2.216 .869)"/>
            <path id="prefix__Rectangle_375" d="M0 0H2.216V3.771H0z" class="prefix__cls-2" data-name="Rectangle 375"/>
        </g>
        <g id="prefix__Group_1622" data-name="Group 1622" transform="translate(246.701 140.82)">
            <g id="prefix__Group_1605" data-name="Group 1605" transform="translate(1.654)">
                <g id="prefix__Group_1499" data-name="Group 1499" transform="translate(6.378 7.108)">
                    <g id="prefix__Group_1496" data-name="Group 1496">
                        <path id="prefix__Path_1826" d="M257.194 153.26s2.757 2.389 3.286 2.657 2.925-.622 2.925-.622-.086-2.925-.619-3.413a8.469 8.469 0 0 0-3.015-1.767 1.153 1.153 0 0 0-.607.086l-.224.1a9.537 9.537 0 0 0-1.213.965c-.354.224-.533 1.994-.533 1.994z" class="prefix__cls-3" data-name="Path 1826" transform="translate(-257.194 -150.105)"/>
                    </g>
                    <g id="prefix__Group_1497" data-name="Group 1497" transform="translate(3.286 1.777)">
                        <path id="prefix__Path_1827" d="M261.487 156.462c.534.273 2.925-.622 2.925-.622s-.087-2.925-.619-3.413l-1.212 2.12z" class="prefix__cls-4" data-name="Path 1827" transform="translate(-261.487 -152.427)"/>
                    </g>
                    <g id="prefix__Group_1498" data-name="Group 1498" transform="translate(1.969)">
                        <path id="prefix__Path_1828" d="M260.374 150.116a1.153 1.153 0 0 0-.607.086l2.41 3.8 1.212-2.12a8.47 8.47 0 0 0-3.015-1.766z" class="prefix__cls-5" data-name="Path 1828" transform="translate(-259.767 -150.105)"/>
                    </g>
                </g>
                <g id="prefix__Group_1503" data-name="Group 1503" transform="translate(15.304 3.614)">
                    <g id="prefix__Group_1500" data-name="Group 1500">
                        <path id="prefix__Path_1829" d="M272.322 147.861l-2.1 2.388-1.368-.249.252-3.066 1.618-1.391 1.536.332z" class="prefix__cls-3" data-name="Path 1829" transform="translate(-268.854 -145.542)"/>
                    </g>
                    <g id="prefix__Group_1501" data-name="Group 1501" transform="translate(1.372 .518)">
                        <path id="prefix__Path_1830" d="M272.688 146.218l-1.791 1.836-.25 2.353 2.1-2.388z" class="prefix__cls-4" data-name="Path 1830" transform="translate(-270.646 -146.218)"/>
                    </g>
                    <g id="prefix__Group_1502" data-name="Group 1502" transform="translate(.252)">
                        <path id="prefix__Path_1831" d="M270.554 147.9l-1.37-.963 1.618-1.391 1.536.332z" class="prefix__cls-5" data-name="Path 1831" transform="translate(-269.184 -145.542)"/>
                    </g>
                </g>
                <g id="prefix__Group_1504" data-name="Group 1504" transform="translate(2.654 1.961)">
                    <path id="prefix__Path_1832" d="M274.311 157.7c4.026 0 8.052.091 12.073-.077a35.457 35.457 0 0 1 4.882.015c1.33.126 3.082.428 4.166-.574-1.994-1.331-4.857-.393-6.765-2.015-1.084-.926-1.523-2.9-2.205-4.113a7.278 7.278 0 0 0-3.63-3.137c-1.078-.5-3.234-1.136-3.617-2.447-1.245-1.155-4.661-2.08-6.375-1.956a2.105 2.105 0 0 1-.758.973c-2.438.789-3.407 2.733-5.219 4.257-1.392 1.173-3.748 1.007-5.577 1.76a11.829 11.829 0 0 0-2.95 1.34c-.564.49-1.172 1.388-1.783 1.958-1.248 1.176-3.37 2.557-4.224 3.839a4.85 4.85 0 0 0 1.952.179q3.734-.006 7.471 0 6.278-.002 12.559-.002z" class="prefix__cls-2" data-name="Path 1832" transform="translate(-252.329 -143.381)"/>
                </g>
                <g id="prefix__Group_1508" data-name="Group 1508" transform="translate(16.212 9.911)">
                    <g id="prefix__Group_1505" data-name="Group 1505">
                        <path id="prefix__Path_1833" d="M270.041 156.09l.428 2.516 1.082 1.318 1.317.581h1.972l1.395-2.129s-1-3.252-1.2-3.638-1.427-.933-1.5-.967l-2.322 1.009z" class="prefix__cls-3" data-name="Path 1833" transform="translate(-270.041 -153.768)"/>
                    </g>
                    <g id="prefix__Group_1506" data-name="Group 1506" transform="translate(3.49 .002)">
                        <path id="prefix__Path_1834" d="M274.6 153.77l.926 2.593 1.777 2.013s-1-3.252-1.2-3.638-1.426-.938-1.503-.968z" class="prefix__cls-5" data-name="Path 1834" transform="translate(-274.6 -153.77)"/>
                    </g>
                    <g id="prefix__Group_1507" data-name="Group 1507" transform="translate(3.097 2.594)">
                        <path id="prefix__Path_1835" d="M274.087 161.3h1.7l1.394-2.13-1.777-2.013z" class="prefix__cls-4" data-name="Path 1835" transform="translate(-274.087 -157.157)"/>
                    </g>
                </g>
                <g id="prefix__Group_1512" data-name="Group 1512" transform="translate(24.136 10.53)">
                    <g id="prefix__Group_1509" data-name="Group 1509">
                        <path id="prefix__Path_1836" d="M280.394 156.9l.429 2.518 1.082 1.317 1.317.581h1.973l1.392-2.129s-1-3.252-1.2-3.638-1.428-.933-1.5-.966l-2.323 1.008z" class="prefix__cls-3" data-name="Path 1836" transform="translate(-280.394 -154.577)"/>
                    </g>
                    <g id="prefix__Group_1510" data-name="Group 1510" transform="translate(3.489 .003)">
                        <path id="prefix__Path_1837" d="M284.952 154.581l.925 2.59 1.778 2.014s-1-3.252-1.2-3.638-1.426-.933-1.503-.966z" class="prefix__cls-5" data-name="Path 1837" transform="translate(-284.952 -154.581)"/>
                    </g>
                    <g id="prefix__Group_1511" data-name="Group 1511" transform="translate(3.096 2.593)">
                        <path id="prefix__Path_1838" d="M284.439 162.109h1.7l1.393-2.13-1.778-2.014z" class="prefix__cls-4" data-name="Path 1838" transform="translate(-284.439 -157.965)"/>
                    </g>
                </g>
                <g id="prefix__Group_1516" data-name="Group 1516" transform="translate(23.672 9.447)">
                    <g id="prefix__Group_1513" data-name="Group 1513">
                        <path id="prefix__Path_1839" d="M279.788 154.537s1.2 1.043 1.434 1.162 1.275-.272 1.275-.272-.037-1.275-.269-1.491a3.708 3.708 0 0 0-1.317-.77.52.52 0 0 0-.267.037l-.1.044a4.28 4.28 0 0 0-.528.42c-.15.099-.228.87-.228.87z" class="prefix__cls-3" data-name="Path 1839" transform="translate(-279.788 -153.162)"/>
                    </g>
                    <g id="prefix__Group_1514" data-name="Group 1514" transform="translate(1.434 .774)">
                        <path id="prefix__Path_1840" d="M281.661 155.937c.232.116 1.275-.273 1.275-.273s-.037-1.275-.269-1.491l-.53.925z" class="prefix__cls-4" data-name="Path 1840" transform="translate(-281.661 -154.173)"/>
                    </g>
                    <g id="prefix__Group_1515" data-name="Group 1515" transform="translate(.857)">
                        <path id="prefix__Path_1841" d="M281.174 153.166a.52.52 0 0 0-.267.037l1.054 1.659.53-.925a3.708 3.708 0 0 0-1.317-.771z" class="prefix__cls-5" data-name="Path 1841" transform="translate(-280.907 -153.162)"/>
                    </g>
                </g>
                <g id="prefix__Group_1520" data-name="Group 1520" transform="translate(15.955 7.133)">
                    <g id="prefix__Group_1517" data-name="Group 1517">
                        <path id="prefix__Path_1842" d="M271.819 150.139s-1.862 2.113-2.073 2.524.467 2.262.467 2.262 2.257-.049 2.639-.457a6.486 6.486 0 0 0 1.382-2.322.883.883 0 0 0-.063-.472l-.073-.17a7.1 7.1 0 0 0-.739-.942c-.173-.278-1.54-.423-1.54-.423z" class="prefix__cls-3" data-name="Path 1842" transform="translate(-269.706 -150.139)"/>
                    </g>
                    <g id="prefix__Group_1518" data-name="Group 1518" transform="translate(0 2.524)">
                        <path id="prefix__Path_1843" d="M269.747 153.436c-.211.408.467 2.262.467 2.262s2.257-.049 2.639-.457l-1.633-.951z" class="prefix__cls-4" data-name="Path 1843" transform="translate(-269.706 -153.436)"/>
                    </g>
                    <g id="prefix__Group_1519" data-name="Group 1519" transform="translate(1.514 1.534)">
                        <path id="prefix__Path_1844" d="M274.7 152.615a.883.883 0 0 0-.063-.472l-2.952 1.843 1.633.951a6.486 6.486 0 0 0 1.382-2.322z" class="prefix__cls-5" data-name="Path 1844" transform="translate(-271.684 -152.143)"/>
                    </g>
                </g>
                <g id="prefix__Group_1524" data-name="Group 1524" transform="translate(11.8 6.05)">
                    <g id="prefix__Group_1521" data-name="Group 1521">
                        <path id="prefix__Path_1845" d="M266.752 149.187a12.269 12.269 0 0 0-2.475 3.213l1.679 2.719 3.137-2.074 1.023-3.243-1.2-1.077s-1.316.875-2.164.462z" class="prefix__cls-3" data-name="Path 1845" transform="translate(-264.277 -148.724)"/>
                    </g>
                    <g id="prefix__Group_1522" data-name="Group 1522" transform="translate(1.679 1.077)">
                        <path id="prefix__Path_1846" d="M270.63 150.131a22.107 22.107 0 0 0-2.456 2.057c-.037.047-.081.109-.128.183-.54.824-1.575 3.077-1.575 3.077l3.137-2.074z" class="prefix__cls-4" data-name="Path 1846" transform="translate(-266.471 -150.131)"/>
                    </g>
                    <g id="prefix__Group_1523" data-name="Group 1523" transform="translate(2.475)">
                        <path id="prefix__Path_1847" d="M267.51 149.187l.78 2.854 2.584-2.24-1.2-1.077s-1.317.876-2.164.463z" class="prefix__cls-5" data-name="Path 1847" transform="translate(-267.51 -148.724)"/>
                    </g>
                </g>
                <g id="prefix__Group_1528" data-name="Group 1528" transform="translate(21.195 9.775)">
                    <g id="prefix__Group_1525" data-name="Group 1525">
                        <path id="prefix__Path_1848" d="M276.551 156.324a12.531 12.531 0 0 0 1.7 3.767l3.25-.207-.361-3.815-2.427-2.479-1.547.568s.16 1.602-.615 2.166z" class="prefix__cls-3" data-name="Path 1848" transform="translate(-276.551 -153.59)"/>
                    </g>
                    <g id="prefix__Group_1526" data-name="Group 1526" transform="translate(2.167)">
                        <path id="prefix__Path_1849" d="M279.382 153.59a22.419 22.419 0 0 0 .673 3.2c.024.053.059.121.1.2.483.88 2.013 2.893 2.013 2.893l-.361-3.815z" class="prefix__cls-4" data-name="Path 1849" transform="translate(-279.382 -153.59)"/>
                    </g>
                    <g id="prefix__Group_1527" data-name="Group 1527">
                        <path id="prefix__Path_1850" d="M276.551 156.324l2.942.667-.775-3.4-1.547.568s.155 1.601-.62 2.165z" class="prefix__cls-5" data-name="Path 1850" transform="translate(-276.551 -153.59)"/>
                    </g>
                </g>
                <g id="prefix__Group_1532" data-name="Group 1532" transform="translate(29.681 6.184)">
                    <g id="prefix__Group_1529" data-name="Group 1529">
                        <path id="prefix__Path_1851" d="M287.9 152.258a12.456 12.456 0 0 0 3.027 2.816l2.919-1.445-1.808-3.383-3.2-1.346-1.207 1.121s.769 1.414.269 2.237z" class="prefix__cls-3" data-name="Path 1851" transform="translate(-287.638 -148.899)"/>
                    </g>
                    <g id="prefix__Group_1530" data-name="Group 1530" transform="translate(1.207)">
                        <path id="prefix__Path_1852" d="M289.215 148.9a22.256 22.256 0 0 0 1.857 2.69 2.053 2.053 0 0 0 .171.147c.786.625 2.977 1.893 2.977 1.893l-1.808-3.383z" class="prefix__cls-4" data-name="Path 1852" transform="translate(-289.215 -148.899)"/>
                    </g>
                    <g id="prefix__Group_1531" data-name="Group 1531">
                        <path id="prefix__Path_1853" d="M287.9 152.258l2.969-.522-2.028-2.837-1.207 1.121s.766 1.415.266 2.238z" class="prefix__cls-5" data-name="Path 1853" transform="translate(-287.638 -148.899)"/>
                    </g>
                </g>
                <g id="prefix__Group_1536" data-name="Group 1536" transform="translate(19.802 8.92)">
                    <g id="prefix__Group_1533" data-name="Group 1533">
                        <path id="prefix__Path_1854" d="M277.517 153.965l-.722 2.586-1.135.31-.929-2.426.723-1.652 1.29-.309z" class="prefix__cls-3" data-name="Path 1854" transform="translate(-274.731 -152.473)"/>
                    </g>
                    <g id="prefix__Group_1534" data-name="Group 1534" transform="translate(1.393 .142)">
                        <path id="prefix__Path_1855" d="M277.244 152.659l-.694 2.052.671 1.884.722-2.586z" class="prefix__cls-4" data-name="Path 1855" transform="translate(-276.551 -152.659)"/>
                    </g>
                    <g id="prefix__Group_1535" data-name="Group 1535">
                        <path id="prefix__Path_1856" d="M276.124 154.667l-1.393-.233.723-1.652 1.29-.309z" class="prefix__cls-5" data-name="Path 1856" transform="translate(-274.731 -152.473)"/>
                    </g>
                </g>
                <g id="prefix__Group_1540" data-name="Group 1540" transform="translate(8.323 8.296)">
                    <g id="prefix__Group_1537" data-name="Group 1537">
                        <path id="prefix__Path_1857" d="M264.847 153.008l-.5 2.413-3.053.711-1.561-1.986 1.632-2.487h2.982z" class="prefix__cls-3" data-name="Path 1857" transform="translate(-259.735 -151.659)"/>
                    </g>
                    <g id="prefix__Group_1538" data-name="Group 1538">
                        <path id="prefix__Path_1858" d="M261.3 156.132l.993-3.052-.922-1.421-1.632 2.487z" class="prefix__cls-5" data-name="Path 1858" transform="translate(-259.735 -151.659)"/>
                    </g>
                    <g id="prefix__Group_1539" data-name="Group 1539" transform="translate(1.632)">
                        <path id="prefix__Path_1859" d="M262.79 153.08l-.922-1.421h2.982l.5 1.349z" class="prefix__cls-4" data-name="Path 1859" transform="translate(-261.867 -151.659)"/>
                    </g>
                </g>
                <g id="prefix__Group_1544" data-name="Group 1544" transform="translate(21.352)">
                    <g id="prefix__Group_1541" data-name="Group 1541">
                        <path id="prefix__Path_1860" d="M281.353 140.82l1.6 1.912-1.362 3.075-4.839 1 .183-3.684 2.978-1.936z" class="prefix__cls-4" data-name="Path 1860" transform="translate(-276.757 -140.82)"/>
                    </g>
                    <g id="prefix__Group_1542" data-name="Group 1542" transform="translate(2.709)">
                        <path id="prefix__Path_1861" d="M282.184 140.82s-2.188 3.2-1.852 3.878c.387.278 2.095 1.109 2.095 1.109l1.362-3.075z" class="prefix__cls-3" data-name="Path 1861" transform="translate(-280.296 -140.82)"/>
                    </g>
                    <g id="prefix__Group_1543" data-name="Group 1543" transform="translate(0 3.878)">
                        <path id="prefix__Path_1862" d="M281.6 147l-4.839 1 2.744-2.112 2.237 1.051z" class="prefix__cls-5" data-name="Path 1862" transform="translate(-276.757 -145.886)"/>
                    </g>
                </g>
                <g id="prefix__Group_1548" data-name="Group 1548" transform="translate(12.033 8.79)">
                    <g id="prefix__Group_1545" data-name="Group 1545">
                        <path id="prefix__Path_1863" d="M269.379 158.96l-2.425.772-2.373-2.475.928-4.953 3.4 1.6.672 3.56z" class="prefix__cls-4" data-name="Path 1863" transform="translate(-264.582 -152.304)"/>
                    </g>
                    <g id="prefix__Group_1546" data-name="Group 1546" transform="translate(0 3.404)">
                        <path id="prefix__Path_1864" d="M269.38 160s-2.168-3.3-2.942-3.251c-.411.259-1.855 1.548-1.855 1.548l2.373 2.475z" class="prefix__cls-3" data-name="Path 1864" transform="translate(-264.582 -156.751)"/>
                    </g>
                    <g id="prefix__Group_1547" data-name="Group 1547">
                        <path id="prefix__Path_1865" d="M264.582 157.257l.928-4.953.927 3.4-1.855 1.705z" class="prefix__cls-5" data-name="Path 1865" transform="translate(-264.582 -152.304)"/>
                    </g>
                </g>
                <g id="prefix__Group_1552" data-name="Group 1552" transform="translate(32.961 9.82)">
                    <g id="prefix__Group_1549" data-name="Group 1549">
                        <path id="prefix__Path_1866" d="M291.923 155.928l.419 2.469 1.063 1.287 1.291.572h1.933l1.371-2.089s-.983-3.188-1.175-3.568-1.4-.912-1.475-.947l-2.276.99z" class="prefix__cls-3" data-name="Path 1866" transform="translate(-291.923 -153.649)"/>
                    </g>
                    <g id="prefix__Group_1550" data-name="Group 1550" transform="translate(3.422 .004)">
                        <path id="prefix__Path_1867" d="M296.394 153.654l.907 2.542 1.743 1.973s-.983-3.188-1.175-3.568-1.4-.913-1.475-.947z" class="prefix__cls-5" data-name="Path 1867" transform="translate(-296.394 -153.654)"/>
                    </g>
                    <g id="prefix__Group_1551" data-name="Group 1551" transform="translate(3.036 2.546)">
                        <path id="prefix__Path_1868" d="M295.89 161.036h1.669l1.367-2.088-1.743-1.973z" class="prefix__cls-4" data-name="Path 1868" transform="translate(-295.89 -156.975)"/>
                    </g>
                </g>
                <g id="prefix__Group_1556" data-name="Group 1556" transform="translate(0 10.259)">
                    <g id="prefix__Group_1553" data-name="Group 1553">
                        <path id="prefix__Path_1869" d="M253.048 160.28l1.382-1.93.156-1.578-.478-1.249-1.291-1.3-2.32.472s-1.487 2.793-1.614 3.177a4.361 4.361 0 0 0 .348 1.627l2.187.873z" class="prefix__cls-3" data-name="Path 1869" transform="translate(-248.861 -154.223)"/>
                    </g>
                    <g id="prefix__Group_1554" data-name="Group 1554" transform="translate(0 .472)">
                        <path id="prefix__Path_1870" d="M249.232 159.645l1.1-2.31.163-2.495s-1.487 2.793-1.614 3.177a4.361 4.361 0 0 0 .351 1.628z" class="prefix__cls-5" data-name="Path 1870" transform="translate(-248.861 -154.84)"/>
                    </g>
                    <g id="prefix__Group_1555" data-name="Group 1555" transform="translate(1.473)">
                        <path id="prefix__Path_1871" d="M254.385 155.345l-1.115-1.122-2.32.472-.163 2.494z" class="prefix__cls-4" data-name="Path 1871" transform="translate(-250.786 -154.223)"/>
                    </g>
                </g>
                <g id="prefix__Group_1560" data-name="Group 1560" transform="translate(32.633 6.433)">
                    <g id="prefix__Group_1557" data-name="Group 1557">
                        <path id="prefix__Path_1872" d="M291.494 151.5s1.992 1.726 2.374 1.92 2.112-.449 2.112-.449-.062-2.112-.447-2.465a6.115 6.115 0 0 0-2.177-1.276.854.854 0 0 0-.439.062l-.161.071a7.143 7.143 0 0 0-.876.7c-.257.16-.386 1.437-.386 1.437z" class="prefix__cls-3" data-name="Path 1872" transform="translate(-291.494 -149.224)"/>
                    </g>
                    <g id="prefix__Group_1558" data-name="Group 1558" transform="translate(2.374 1.283)">
                        <path id="prefix__Path_1873" d="M294.6 153.815c.386.2 2.112-.449 2.112-.449s-.062-2.112-.447-2.465l-.875 1.531z" class="prefix__cls-4" data-name="Path 1873" transform="translate(-294.595 -150.9)"/>
                    </g>
                    <g id="prefix__Group_1559" data-name="Group 1559" transform="translate(1.422)">
                        <path id="prefix__Path_1874" d="M293.791 149.231a.854.854 0 0 0-.439.062l1.741 2.745.875-1.531a6.115 6.115 0 0 0-2.177-1.276z" class="prefix__cls-5" data-name="Path 1874" transform="translate(-293.352 -149.224)"/>
                    </g>
                </g>
                <g id="prefix__Group_1564" data-name="Group 1564" transform="translate(29.149 11.808)">
                    <g id="prefix__Group_1561" data-name="Group 1561">
                        <path id="prefix__Path_1875" d="M286.943 158.676s2.12 1.842 2.529 2.047 2.252-.481 2.252-.481-.064-2.248-.476-2.626a6.561 6.561 0 0 0-2.322-1.362.906.906 0 0 0-.468.067l-.171.075a7.538 7.538 0 0 0-.935.744c-.274.173-.409 1.536-.409 1.536z" class="prefix__cls-3" data-name="Path 1875" transform="translate(-286.943 -156.247)"/>
                    </g>
                    <g id="prefix__Group_1562" data-name="Group 1562" transform="translate(2.529 1.369)">
                        <path id="prefix__Path_1876" d="M290.247 161.142c.409.211 2.252-.481 2.252-.481s-.064-2.248-.476-2.626l-.932 1.635z" class="prefix__cls-4" data-name="Path 1876" transform="translate(-290.247 -158.035)"/>
                    </g>
                    <g id="prefix__Group_1563" data-name="Group 1563" transform="translate(1.515)">
                        <path id="prefix__Path_1877" d="M289.39 156.254a.906.906 0 0 0-.468.067l1.858 2.929.932-1.635a6.561 6.561 0 0 0-2.322-1.361z" class="prefix__cls-5" data-name="Path 1877" transform="translate(-288.922 -156.247)"/>
                    </g>
                </g>
                <g id="prefix__Group_1568" data-name="Group 1568" transform="translate(21.708 4.675)">
                    <g id="prefix__Group_1565" data-name="Group 1565">
                        <path id="prefix__Path_1878" d="M277.221 149.611a12.281 12.281 0 0 0 1.67 3.694l3.189-.2-.354-3.743-2.38-2.43-1.517.556s.152 1.567-.608 2.123z" class="prefix__cls-3" data-name="Path 1878" transform="translate(-277.221 -146.927)"/>
                    </g>
                    <g id="prefix__Group_1566" data-name="Group 1566" transform="translate(2.125)">
                        <path id="prefix__Path_1879" d="M280 146.927a21.87 21.87 0 0 0 .659 3.138c.026.057.058.122.1.2.472.863 1.974 2.837 1.974 2.837l-.354-3.743z" class="prefix__cls-4" data-name="Path 1879" transform="translate(-279.997 -146.927)"/>
                    </g>
                    <g id="prefix__Group_1567" data-name="Group 1567">
                        <path id="prefix__Path_1880" d="M277.221 149.611l2.885.653-.76-3.337-1.517.556s.152 1.572-.608 2.128z" class="prefix__cls-5" data-name="Path 1880" transform="translate(-277.221 -146.927)"/>
                    </g>
                </g>
                <g id="prefix__Group_1572" data-name="Group 1572" transform="translate(9.181 11.718)">
                    <g id="prefix__Group_1569" data-name="Group 1569">
                        <path id="prefix__Path_1881" d="M260.856 158.13s1.747 1.515 2.084 1.686 1.853-.4 1.853-.4-.054-1.855-.393-2.164a5.385 5.385 0 0 0-1.911-1.121.761.761 0 0 0-.388.057l-.138.063a5.7 5.7 0 0 0-.771.611c-.223.145-.336 1.268-.336 1.268z" class="prefix__cls-3" data-name="Path 1881" transform="translate(-260.856 -156.129)"/>
                    </g>
                    <g id="prefix__Group_1570" data-name="Group 1570" transform="translate(2.084 1.127)">
                        <path id="prefix__Path_1882" d="M263.579 160.161c.336.171 1.853-.4 1.853-.4s-.054-1.855-.393-2.164l-.769 1.344z" class="prefix__cls-4" data-name="Path 1882" transform="translate(-263.579 -157.601)"/>
                    </g>
                    <g id="prefix__Group_1571" data-name="Group 1571" transform="translate(1.246)">
                        <path id="prefix__Path_1883" d="M262.872 156.134a.761.761 0 0 0-.388.057l1.529 2.409.769-1.344a5.385 5.385 0 0 0-1.91-1.122z" class="prefix__cls-5" data-name="Path 1883" transform="translate(-262.484 -156.129)"/>
                    </g>
                </g>
                <g id="prefix__Group_1576" data-name="Group 1576" transform="translate(17.482 3.82)">
                    <g id="prefix__Group_1573" data-name="Group 1573">
                        <path id="prefix__Path_1884" d="M271.7 148.089l.419 2.469 1.063 1.289 1.291.57h1.934l1.366-2.087s-.982-3.19-1.175-3.567-1.4-.916-1.477-.949l-2.276.99z" class="prefix__cls-3" data-name="Path 1884" transform="translate(-271.7 -145.811)"/>
                    </g>
                    <g id="prefix__Group_1574" data-name="Group 1574" transform="translate(3.421 .003)">
                        <path id="prefix__Path_1885" d="M276.169 145.815l.908 2.54 1.744 1.976s-.982-3.19-1.175-3.567-1.4-.916-1.477-.949z" class="prefix__cls-5" data-name="Path 1885" transform="translate(-276.169 -145.815)"/>
                    </g>
                    <g id="prefix__Group_1575" data-name="Group 1575" transform="translate(3.035 2.544)">
                        <path id="prefix__Path_1886" d="M275.665 153.2h1.671l1.366-2.086-1.743-1.976z" class="prefix__cls-4" data-name="Path 1886" transform="translate(-275.665 -149.134)"/>
                    </g>
                </g>
                <g id="prefix__Group_1580" data-name="Group 1580" transform="translate(26.894 6.39)">
                    <g id="prefix__Group_1577" data-name="Group 1577">
                        <path id="prefix__Path_1887" d="M286.867 151.087l-1.735 1.979-1.132-.209.208-2.538 1.338-1.152 1.274.274z" class="prefix__cls-3" data-name="Path 1887" transform="translate(-283.997 -149.167)"/>
                    </g>
                    <g id="prefix__Group_1578" data-name="Group 1578" transform="translate(1.135 .431)">
                        <path id="prefix__Path_1888" d="M287.168 149.73l-1.481 1.52-.206 1.949 1.735-1.979z" class="prefix__cls-4" data-name="Path 1888" transform="translate(-285.48 -149.73)"/>
                    </g>
                    <g id="prefix__Group_1579" data-name="Group 1579" transform="translate(.209)">
                        <path id="prefix__Path_1889" d="M285.4 151.118l-1.133-.8 1.338-1.152 1.274.274z" class="prefix__cls-5" data-name="Path 1889" transform="translate(-284.27 -149.167)"/>
                    </g>
                </g>
                <g id="prefix__Group_1584" data-name="Group 1584" transform="translate(38.069 10.04)">
                    <g id="prefix__Group_1581" data-name="Group 1581">
                        <path id="prefix__Path_1890" d="M298.6 156.616a12.289 12.289 0 0 0 1.67 3.695l3.188-.2-.354-3.745-2.38-2.426-1.516.554s.147 1.565-.608 2.122z" class="prefix__cls-3" data-name="Path 1890" transform="translate(-298.596 -153.936)"/>
                    </g>
                    <g id="prefix__Group_1582" data-name="Group 1582" transform="translate(2.125)">
                        <path id="prefix__Path_1891" d="M301.372 153.936a22.082 22.082 0 0 0 .66 3.136c.024.054.057.119.1.2.472.864 1.973 2.837 1.973 2.837l-.354-3.745z" class="prefix__cls-4" data-name="Path 1891" transform="translate(-301.372 -153.936)"/>
                    </g>
                    <g id="prefix__Group_1583" data-name="Group 1583">
                        <path id="prefix__Path_1892" d="M298.6 156.616l2.885.653-.76-3.333-1.516.554s.146 1.569-.609 2.126z" class="prefix__cls-5" data-name="Path 1892" transform="translate(-298.596 -153.936)"/>
                    </g>
                </g>
                <g id="prefix__Group_1588" data-name="Group 1588" transform="translate(27.388 2.848)">
                    <g id="prefix__Group_1585" data-name="Group 1585">
                        <path id="prefix__Path_1893" d="M285.766 145.437a10 10 0 0 0-1.124 3.11l1.979 1.7 1.923-2.39-.009-2.775-1.2-.536s-.809.997-1.569.891z" class="prefix__cls-3" data-name="Path 1893" transform="translate(-284.642 -144.541)"/>
                    </g>
                    <g id="prefix__Group_1586" data-name="Group 1586" transform="translate(1.979 .536)">
                        <path id="prefix__Path_1894" d="M289.142 145.241a17.929 17.929 0 0 0-1.4 2.208 1.8 1.8 0 0 0-.053.175c-.215.775-.462 2.783-.462 2.783l1.923-2.39z" class="prefix__cls-4" data-name="Path 1894" transform="translate(-287.228 -145.241)"/>
                    </g>
                    <g id="prefix__Group_1587" data-name="Group 1587" transform="translate(1.124)">
                        <path id="prefix__Path_1895" d="M286.11 145.437l1.317 2.022 1.452-2.383-1.2-.536s-.809 1.003-1.569.897z" class="prefix__cls-5" data-name="Path 1895" transform="translate(-286.11 -144.541)"/>
                    </g>
                </g>
                <g id="prefix__Group_1592" data-name="Group 1592" transform="translate(42.374 12.39)">
                    <g id="prefix__Group_1589" data-name="Group 1589">
                        <path id="prefix__Path_1896" d="M307.09 158.927l-1.736 1.978-1.134-.208.208-2.538 1.34-1.152 1.272.274z" class="prefix__cls-3" data-name="Path 1896" transform="translate(-304.221 -157.006)"/>
                    </g>
                    <g id="prefix__Group_1590" data-name="Group 1590" transform="translate(1.134 .429)">
                        <path id="prefix__Path_1897" d="M307.392 157.566l-1.482 1.52-.208 1.949 1.736-1.977z" class="prefix__cls-4" data-name="Path 1897" transform="translate(-305.702 -157.566)"/>
                    </g>
                    <g id="prefix__Group_1591" data-name="Group 1591" transform="translate(.208)">
                        <path id="prefix__Path_1898" d="M305.626 158.955l-1.134-.8 1.34-1.152 1.272.274z" class="prefix__cls-5" data-name="Path 1898" transform="translate(-304.492 -157.006)"/>
                    </g>
                </g>
                <g id="prefix__Group_1596" data-name="Group 1596" transform="translate(25.072 3.176)">
                    <g id="prefix__Group_1593" data-name="Group 1593">
                        <path id="prefix__Path_1899" d="M285.26 145.932l-.354 1.72-2.175.505-1.114-1.415 1.165-1.773h2.124z" class="prefix__cls-3" data-name="Path 1899" transform="translate(-281.617 -144.969)"/>
                    </g>
                    <g id="prefix__Group_1594" data-name="Group 1594">
                        <path id="prefix__Path_1900" d="M282.731 148.157l.708-2.174-.657-1.014-1.165 1.773z" class="prefix__cls-5" data-name="Path 1900" transform="translate(-281.617 -144.969)"/>
                    </g>
                    <g id="prefix__Group_1595" data-name="Group 1595" transform="translate(1.165)">
                        <path id="prefix__Path_1901" d="M283.8 145.983l-.657-1.014h2.124l.354.963z" class="prefix__cls-4" data-name="Path 1901" transform="translate(-283.139 -144.969)"/>
                    </g>
                </g>
                <g id="prefix__Group_1600" data-name="Group 1600" transform="translate(27.69 9.599)">
                    <g id="prefix__Group_1597" data-name="Group 1597">
                        <path id="prefix__Path_1902" d="M285.828 153.6l1.74-.236 1.2 1.887-.968 1.519-2.056-.514-.7-2z" class="prefix__cls-3" data-name="Path 1902" transform="translate(-285.037 -153.36)"/>
                    </g>
                    <g id="prefix__Group_1598" data-name="Group 1598" transform="translate(.704 1.887)">
                        <path id="prefix__Path_1903" d="M288.981 155.825l-2.288.053-.736.953 2.056.514z" class="prefix__cls-5" data-name="Path 1903" transform="translate(-285.957 -155.825)"/>
                    </g>
                    <g id="prefix__Group_1599" data-name="Group 1599" transform="translate(0 .236)">
                        <path id="prefix__Path_1904" d="M286.477 155.372l-.736.953-.7-2 .791-.653z" class="prefix__cls-4" data-name="Path 1904" transform="translate(-285.037 -153.669)"/>
                    </g>
                </g>
                <g id="prefix__Group_1604" data-name="Group 1604" transform="translate(4.996 9.49)">
                    <g id="prefix__Group_1601" data-name="Group 1601">
                        <path id="prefix__Path_1905" d="M260.092 159.745l-2.376.761-2.328-2.43.91-4.858 3.337 1.571.661 3.492z" class="prefix__cls-4" data-name="Path 1905" transform="translate(-255.388 -153.218)"/>
                    </g>
                    <g id="prefix__Group_1602" data-name="Group 1602" transform="translate(0 3.34)">
                        <path id="prefix__Path_1906" d="M260.092 160.769s-2.126-3.238-2.883-3.186c-.4.25-1.821 1.517-1.821 1.517l2.328 2.429z" class="prefix__cls-3" data-name="Path 1906" transform="translate(-255.388 -157.582)"/>
                    </g>
                    <g id="prefix__Group_1603" data-name="Group 1603">
                        <path id="prefix__Path_1907" d="M255.388 158.076l.91-4.858.91 3.34-1.821 1.671z" class="prefix__cls-5" data-name="Path 1907" transform="translate(-255.388 -153.218)"/>
                    </g>
                </g>
            </g>
            <path id="prefix__Path_1908" d="M295.147 164.117c0 .336-.011.681-.021 1.016a43.692 43.692 0 0 1-4.046 15.761h-39.148a43.693 43.693 0 0 1-4.046-15.761c-.011-.335-.021-.68-.021-1.016z" class="prefix__cls-6" data-name="Path 1908" transform="translate(-246.974 -146.285)"/>
            <path id="prefix__Path_1909" d="M292.19 187.9h-39.656a.976.976 0 0 1-1.017-.932v-.932h41.69v.932a.976.976 0 0 1-1.017.932z" class="prefix__cls-1" data-name="Path 1909" transform="translate(-247.831 -151.427)"/>
            <path id="prefix__Path_1910" fill="#454545" d="M284.909 193.814h-21.354l-4.067-5.338h29.489z" data-name="Path 1910" transform="translate(-249.7 -151.998)"/>
            <g id="prefix__Group_1610" data-name="Group 1610" transform="translate(8.997 20.971)">
                <g id="prefix__Group_1606" data-name="Group 1606" transform="translate(28.118)">
                    <path id="prefix__Path_1911" d="M297.291 168.881l2.681 13.135h-2.681z" class="prefix__cls-8" data-name="Path 1911" transform="translate(-295.683 -168.374)"/>
                    <path id="prefix__Path_1912" d="M295.19 181.86v-13.135a.508.508 0 0 1 .508-.507h.591a.508.508 0 0 1 .509.507v13.135z" class="prefix__cls-9" data-name="Path 1912" transform="translate(-295.19 -168.218)"/>
                    <path id="prefix__Path_1913" d="M296.123 168.218h-.423a.508.508 0 0 0-.508.507v13.135h.426v-13.135a.508.508 0 0 1 .505-.507z" class="prefix__cls-10" data-name="Path 1913" transform="translate(-295.19 -168.218)"/>
                </g>
                <g id="prefix__Group_1607" data-name="Group 1607" transform="translate(18.745)">
                    <path id="prefix__Path_1914" d="M285.046 168.881l2.681 13.135h-2.681z" class="prefix__cls-8" data-name="Path 1914" transform="translate(-283.438 -168.374)"/>
                    <path id="prefix__Path_1915" d="M282.945 181.86v-13.135a.508.508 0 0 1 .509-.507h.591a.508.508 0 0 1 .508.507v13.135z" class="prefix__cls-9" data-name="Path 1915" transform="translate(-282.945 -168.218)"/>
                    <path id="prefix__Path_1916" d="M283.88 168.218h-.426a.508.508 0 0 0-.509.507v13.135h.426v-13.135a.508.508 0 0 1 .509-.507z" class="prefix__cls-10" data-name="Path 1916" transform="translate(-282.945 -168.218)"/>
                </g>
                <g id="prefix__Group_1608" data-name="Group 1608" transform="translate(9.373)">
                    <path id="prefix__Path_1917" d="M272.8 168.881l2.68 13.135h-2.68z" class="prefix__cls-8" data-name="Path 1917" transform="translate(-271.193 -168.374)"/>
                    <path id="prefix__Path_1918" d="M270.7 181.86v-13.135a.508.508 0 0 1 .508-.507h.591a.508.508 0 0 1 .509.507v13.135z" class="prefix__cls-9" data-name="Path 1918" transform="translate(-270.7 -168.218)"/>
                    <path id="prefix__Path_1919" d="M271.634 168.218h-.426a.508.508 0 0 0-.508.507v13.135h.426v-13.135a.508.508 0 0 1 .508-.507z" class="prefix__cls-10" data-name="Path 1919" transform="translate(-270.7 -168.218)"/>
                </g>
                <g id="prefix__Group_1609" data-name="Group 1609">
                    <path id="prefix__Path_1920" d="M260.556 168.881l2.681 13.135h-2.681z" class="prefix__cls-8" data-name="Path 1920" transform="translate(-258.948 -168.374)"/>
                    <path id="prefix__Path_1921" d="M258.455 181.86v-13.135a.508.508 0 0 1 .508-.507h.592a.508.508 0 0 1 .508.507v13.135z" class="prefix__cls-9" data-name="Path 1921" transform="translate(-258.455 -168.218)"/>
                    <path id="prefix__Path_1922" d="M259.388 168.218h-.425a.508.508 0 0 0-.508.507v13.135h.426v-13.135a.508.508 0 0 1 .507-.507z" class="prefix__cls-10" data-name="Path 1922" transform="translate(-258.455 -168.218)"/>
                </g>
            </g>
            <g id="prefix__Group_1621" data-name="Group 1621" transform="translate(7.239 36.696)">
                <g id="prefix__Group_1615" data-name="Group 1615" transform="translate(22.283)">
                    <g id="prefix__Group_1611" data-name="Group 1611">
                        <path id="prefix__Path_1923" d="M285.269 194.914a6.152 6.152 0 1 0 6.152-6.153 6.153 6.153 0 0 0-6.152 6.153z" class="prefix__cls-11" data-name="Path 1923" transform="translate(-285.269 -188.761)"/>
                    </g>
                    <g id="prefix__Group_1612" data-name="Group 1612" transform="translate(.361 .361)">
                        <path id="prefix__Path_1924" d="M285.741 195.025a5.791 5.791 0 1 0 5.79-5.792 5.792 5.792 0 0 0-5.79 5.792z" class="prefix__cls-2" data-name="Path 1924" transform="translate(-285.741 -189.233)"/>
                    </g>
                    <g id="prefix__Group_1613" data-name="Group 1613" transform="translate(4.118 4.118)">
                        <path id="prefix__Path_1925" d="M290.649 196.176a2.034 2.034 0 1 0 2.034-2.035 2.034 2.034 0 0 0-2.034 2.035z" class="prefix__cls-11" data-name="Path 1925" transform="translate(-290.649 -194.141)"/>
                    </g>
                    <g id="prefix__Group_1614" data-name="Group 1614" transform="translate(4.629 4.629)">
                        <path id="prefix__Path_1926" d="M291.316 196.333a1.524 1.524 0 1 0 1.523-1.525 1.524 1.524 0 0 0-1.523 1.525z" class="prefix__cls-12" data-name="Path 1926" transform="translate(-291.316 -194.808)"/>
                    </g>
                </g>
                <g id="prefix__Group_1620" data-name="Group 1620">
                    <g id="prefix__Group_1616" data-name="Group 1616">
                        <path id="prefix__Path_1927" d="M268.462 194.914a6.152 6.152 0 1 1-6.152-6.153 6.152 6.152 0 0 1 6.152 6.153z" class="prefix__cls-11" data-name="Path 1927" transform="translate(-256.158 -188.761)"/>
                    </g>
                    <g id="prefix__Group_1617" data-name="Group 1617" transform="translate(.361 .361)">
                        <path id="prefix__Path_1928" d="M268.212 195.025a5.791 5.791 0 1 1-5.791-5.792 5.793 5.793 0 0 1 5.791 5.792z" class="prefix__cls-2" data-name="Path 1928" transform="translate(-256.629 -189.233)"/>
                    </g>
                    <g id="prefix__Group_1618" data-name="Group 1618" transform="translate(4.118 4.118)">
                        <path id="prefix__Path_1929" d="M265.605 196.176a2.034 2.034 0 1 1-2.034-2.035 2.034 2.034 0 0 1 2.034 2.035z" class="prefix__cls-11" data-name="Path 1929" transform="translate(-261.538 -194.141)"/>
                    </g>
                    <g id="prefix__Group_1619" data-name="Group 1619" transform="translate(4.629 4.629)">
                        <path id="prefix__Path_1930" d="M265.251 196.333a1.523 1.523 0 1 1-1.523-1.525 1.525 1.525 0 0 1 1.523 1.525z" class="prefix__cls-12" data-name="Path 1930" transform="translate(-262.205 -194.808)"/>
                    </g>
                </g>
                <path id="prefix__Path_1931" d="M287.489 191.908h-26.1a1.017 1.017 0 0 0-1.017 1.017v3.262h.72s.592-2.626 1.781-2.626h.507c1.568 0 3.3 3.77 5.423 3.77h11.269c2.119 0 3.855-3.77 5.423-3.77h.507c1.188 0 1.78 2.626 1.78 2.626h.72v-3.262a1.017 1.017 0 0 0-1.013-1.017zm-18.272 3.674c0 .762-.408.916-.913.345l-1.622-1.84c-.505-.571-.3-1.035.465-1.035h1.035a1.167 1.167 0 0 1 1.035 1.265zm9.375 1.071h-8.3v-3.6h8.3zm3.607-2.566l-1.622 1.84c-.506.571-.913.417-.913-.345v-1.264a1.167 1.167 0 0 1 1.034-1.265h1.035c.761-.001.967.463.467 1.034z" class="prefix__cls-6" data-name="Path 1931" transform="translate(-257.147 -189.499)"/>
            </g>
            <path id="prefix__Path_1932" d="M295.147 164.117c0 .336-.011.681-.021 1.016h-47.24c-.011-.335-.021-.68-.021-1.016z" class="prefix__cls-8" data-name="Path 1932" transform="translate(-246.974 -146.285)"/>
            <path id="prefix__Path_1933" d="M246.7 163.206v-1.976a1.017 1.017 0 0 1 1.017-1.017h47.028a1.018 1.018 0 0 1 1.017 1.017v1.976z" class="prefix__cls-1" data-name="Path 1933" transform="translate(-246.701 -145.369)"/>
        </g>
    </g>
</svg>
