<svg xmlns="http://www.w3.org/2000/svg" width="304.076" height="134.5" viewBox="0 0 304.076 134.5">
    <defs>
        <style>
            .prefix__cls-1{fill:#daa812;fill-rule:evenodd}.prefix__cls-2{fill:none;stroke:#daa825}
        </style>
    </defs>
    <g id="prefix__Group_1721" data-name="Group 1721" transform="translate(-28 -84)">
        <g id="prefix__Group_1682" data-name="Group 1682" transform="translate(-202.343 -89.342)">
            <path id="prefix__Path_2053" d="M231.757 201.148a5.94 5.94 0 0 0 3.954-.743c1.674-.961 2.415-2.632 3.088-4.338a14.117 14.117 0 0 1 1.792-2.9v-8.852h-7.914a12.155 12.155 0 0 0-.268 1.281h1.042c.075 0 .142-.04.2-.023a4.474 4.474 0 0 1 4.469 5.4 4.879 4.879 0 0 1-2.7 2.9 4.1 4.1 0 0 1 .507 3.823 2.98 2.98 0 0 1-3.35 1.775 2.559 2.559 0 0 1-1.858-3.232 4.55 4.55 0 0 1 2.55-2.844c-.17-.2-.334-.4-.481-.591a9.741 9.741 0 0 1-1.349-9.1.706.706 0 0 1 .222-.313.637.637 0 0 1 .6-.355h8.327v-8.08c0-.3.026-.5.231-.6a.584.584 0 0 1 .272-.224 9.663 9.663 0 0 1 9.063 1.351c.193.146.37.31.57.48a4.532 4.532 0 0 1 2.834-2.549 2.55 2.55 0 0 1 3.224 1.857 2.983 2.983 0 0 1-1.782 3.346 4.125 4.125 0 0 1-3.831-.507 4.906 4.906 0 0 1-2.91 2.7c-2.936.694-5.171-1.657-5.255-4.47-.018-.062.146-.13.146-.2v-1.04c-.64.066-1.281.155-1.281.269v7.667h8.6a13.426 13.426 0 0 1 2.9-1.642c1.7-.673 3.376-1.282 4.338-2.956a5.519 5.519 0 0 0 .743-3.8.64.64 0 0 1 .334-1.208h31.05v1.28h-29.943a6.934 6.934 0 0 1-2.612 6.374c-1.251 1-2.813 1.312-4.219 1.953h5.9a7.777 7.777 0 0 0 3.026-5.888c0-.022 0-.2.007-.219-.036-.376.189-.938.677-.938h27.17v1.921h-26.487a9.459 9.459 0 0 1-3.645 6.463 7.346 7.346 0 0 1-4.662 7.838 5.861 5.861 0 0 1-5.061-.17 4.949 4.949 0 0 1-2.062-3.506 5.855 5.855 0 0 1 1.163-4.22h-7.215v7.461a5.53 5.53 0 0 1 4.086-1.162 4.712 4.712 0 0 1 3.385 2.062c.958 1.443.717 3.524.143 5.06a7.543 7.543 0 0 1-8 4.663 9.888 9.888 0 0 1-6.664 3.645v24.323h-1.281v-25a.716.716 0 0 1 .831-.679c.021 0 .156 0 .178-.005a8.081 8.081 0 0 0 6.037-3.027v-5.9c-.64 1.405-.957 2.967-1.952 4.219a7.591 7.591 0 0 1-6.374 2.611v27.785h-1.921v-28.892c0-.778 1.117-.888 1.414-.334m.283-3.939a1.108 1.108 0 0 0 1.233.915 1.553 1.553 0 0 0 1.431-1.179 2.672 2.672 0 0 0-.543-2.441c-1.121.588-2.3 1.385-2.121 2.706m.448-8.352a9.46 9.46 0 0 0 2.07 3.842c1.333-.717 2.561-1.658 2.238-3.377a3.3 3.3 0 0 0-3.686-2.4 2.274 2.274 0 0 1-.3-.049h-.536a8.754 8.754 0 0 0 .212 1.981m21.768-11.464a1.553 1.553 0 0 0 1.179-1.432 1.107 1.107 0 0 0-.915-1.232c-1.321-.18-2.117 1-2.706 2.12a2.67 2.67 0 0 0 2.441.543m-7.6 2.092c1.72.323 2.654-.907 3.37-2.238a9.026 9.026 0 0 0-3.728-2.071 7.723 7.723 0 0 0-1.861-.211v.536c0 .085-.064.184-.073.3-.123 1.6.573 3.364 2.292 3.686m3.1 6.455a4.038 4.038 0 0 0 .008 3.8 3.354 3.354 0 0 0 3.89 1.269 6.026 6.026 0 0 0 4.68-6.7h-7.38a11.3 11.3 0 0 0-1.2 1.626m-7.877 7.7v7.379a5.922 5.922 0 0 0 6.595-4.679 3.393 3.393 0 0 0-1.355-3.89 3.9 3.9 0 0 0-3.731-.007 10.711 10.711 0 0 0-1.509 1.2" class="prefix__cls-1" data-name="Path 2053"/>
            <path id="prefix__Path_2054" d="M232.231 174.411h7.686v7.689h-7.686zm1.282 6.4h5.124v-5.124h-5.124z" class="prefix__cls-1" data-name="Path 2054" transform="translate(-.608 -.344)"/>
            <path id="prefix__Path_2055" d="M234.862 261.551a1.993 1.993 0 1 0-1.9 2.079 2 2 0 0 0 1.9-2.079" class="prefix__cls-1" data-name="Path 2055" transform="translate(-.172 -27.778)"/>
            <path id="prefix__Path_2056" d="M323.088 174.219a1.993 1.993 0 1 0 2.08 1.9 2 2 0 0 0-2.08-1.9" class="prefix__cls-1" data-name="Path 2056" transform="translate(-29.238 -.281)"/>
            <path id="prefix__Path_2057" d="M334.83 174.727a1.642 1.642 0 1 0 1.714 1.563 1.643 1.643 0 0 0-1.714-1.563" class="prefix__cls-1" data-name="Path 2057" transform="translate(-33.127 -.445)"/>
            <path id="prefix__Path_2058" d="M231.757 316.812a5.943 5.943 0 0 1 3.954.741c1.674.962 2.415 2.633 3.088 4.339a14.135 14.135 0 0 0 1.792 2.9v8.852h-7.914a12.133 12.133 0 0 1-.268-1.282h1.042c.075 0 .142.041.2.023a4.474 4.474 0 0 0 4.469-5.4 4.876 4.876 0 0 0-2.7-2.9 4.105 4.105 0 0 0 .507-3.823 2.981 2.981 0 0 0-3.35-1.776 2.559 2.559 0 0 0-1.858 3.233 4.553 4.553 0 0 0 2.55 2.844c-.17.2-.334.4-.481.591a9.742 9.742 0 0 0-1.349 9.1.7.7 0 0 0 .222.313.637.637 0 0 0 .6.355h8.327v8.08c0 .3.026.5.231.6a.583.583 0 0 0 .272.223 9.661 9.661 0 0 0 9.063-1.351c.193-.146.37-.309.57-.479a4.534 4.534 0 0 0 2.834 2.549 2.55 2.55 0 0 0 3.224-1.857 2.983 2.983 0 0 0-1.782-3.345 4.123 4.123 0 0 0-3.831.507 4.9 4.9 0 0 0-2.91-2.7c-2.936-.694-5.171 1.657-5.255 4.47-.018.062.146.129.146.2v1.042c-.64-.066-1.281-.155-1.281-.269v-7.667h8.6a13.455 13.455 0 0 0 2.9 1.642c1.7.673 3.376 1.282 4.338 2.955a5.518 5.518 0 0 1 .743 3.8.64.64 0 0 0 .334 1.21h31.05v-1.281h-29.943a6.937 6.937 0 0 0-2.612-6.374c-1.251-1-2.813-1.311-4.219-1.952h5.9a7.776 7.776 0 0 1 3.026 5.887c0 .022 0 .2.007.22-.036.376.189.938.677.938h27.17v-1.922h-26.487a9.457 9.457 0 0 0-3.645-6.462 7.346 7.346 0 0 0-4.662-7.838c-1.537-.574-3.618-.787-5.061.17a4.951 4.951 0 0 0-2.062 3.506 5.858 5.858 0 0 0 1.163 4.221h-7.215v-7.461a5.527 5.527 0 0 0 4.086 1.163 4.713 4.713 0 0 0 3.385-2.061c.958-1.444.717-3.525.143-5.061a7.543 7.543 0 0 0-8-4.663 9.887 9.887 0 0 0-6.664-3.644v-24.325h-1.281v25a.715.715 0 0 0 .831.677l.178.006a8.082 8.082 0 0 1 6.037 3.026v5.9c-.64-1.406-.957-2.967-1.952-4.219a7.592 7.592 0 0 0-6.374-2.612v-27.778h-1.921v28.884c0 .778 1.117.888 1.414.335m.283 3.938a1.107 1.107 0 0 1 1.233-.915 1.554 1.554 0 0 1 1.431 1.179 2.675 2.675 0 0 1-.543 2.443c-1.121-.589-2.3-1.385-2.121-2.706m.448 8.352a9.461 9.461 0 0 1 2.07-3.841c1.333.717 2.561 1.658 2.238 3.376a3.3 3.3 0 0 1-3.686 2.4 2.507 2.507 0 0 0-.3.05h-.536a8.764 8.764 0 0 1 .212-1.982m21.768 11.464a1.553 1.553 0 0 1 1.185 1.43 1.108 1.108 0 0 1-.915 1.233c-1.321.18-2.117-1-2.706-2.12a2.669 2.669 0 0 1 2.441-.543m-7.6-2.093c1.72-.323 2.654.907 3.37 2.238a9.035 9.035 0 0 1-3.728 2.071 7.825 7.825 0 0 1-1.861.211v-.536c0-.085-.064-.184-.073-.3-.123-1.6.573-3.364 2.292-3.687m3.1-6.455a4.037 4.037 0 0 1 .008-3.8 3.355 3.355 0 0 1 3.89-1.269 6.027 6.027 0 0 1 4.68 6.7h-7.38a11.273 11.273 0 0 1-1.2-1.627m-7.877-7.7v-7.38a5.923 5.923 0 0 1 6.595 4.68 3.394 3.394 0 0 1-1.355 3.89 3.9 3.9 0 0 1-3.731.007 10.7 10.7 0 0 1-1.509-1.2" class="prefix__cls-1" data-name="Path 2058" transform="translate(0 -36.775)"/>
            <path id="prefix__Path_2059" d="M232.231 366.968h7.686v-7.686h-7.686zm1.282-6.405h5.124v5.125h-5.124z" class="prefix__cls-1" data-name="Path 2059" transform="translate(-.608 -59.85)"/>
            <path id="prefix__Path_2060" d="M234.862 281.581a1.993 1.993 0 1 1-1.9-2.079 2 2 0 0 1 1.9 2.079" class="prefix__cls-1" data-name="Path 2060" transform="translate(-.172 -34.17)"/>
            <path id="prefix__Path_2061" d="M234.687 272.29a1.642 1.642 0 1 1-1.563-1.714 1.643 1.643 0 0 1 1.563 1.714" class="prefix__cls-1" data-name="Path 2061" transform="translate(-.342 -31.297)"/>
        </g>
        <g id="prefix__Group_1683" data-name="Group 1683" transform="translate(259 84)">
            <path id="prefix__Path_2053-2" d="M288.429 201.149a5.94 5.94 0 0 1-3.954-.743c-1.674-.961-2.415-2.632-3.088-4.338a14.118 14.118 0 0 0-1.792-2.9v-8.852h7.914a12.156 12.156 0 0 1 .268 1.281h-1.042c-.075 0-.142-.04-.2-.023a4.474 4.474 0 0 0-4.47 5.4 4.879 4.879 0 0 0 2.7 2.9 4.1 4.1 0 0 0-.507 3.823 2.98 2.98 0 0 0 3.35 1.775 2.559 2.559 0 0 0 1.858-3.232 4.55 4.55 0 0 0-2.55-2.844c.17-.2.334-.4.481-.591a9.741 9.741 0 0 0 1.349-9.1.706.706 0 0 0-.222-.313.637.637 0 0 0-.6-.355H279.6v-8.081c0-.3-.026-.5-.231-.6a.584.584 0 0 0-.272-.224 9.663 9.663 0 0 0-9.063 1.351c-.193.146-.37.31-.57.48a4.532 4.532 0 0 0-2.834-2.549 2.55 2.55 0 0 0-3.224 1.857 2.983 2.983 0 0 0 1.781 3.351 4.125 4.125 0 0 0 3.831-.507 4.906 4.906 0 0 0 2.911 2.7c2.936.694 5.171-1.657 5.255-4.47.018-.062-.146-.13-.146-.2V175.1c.64.066 1.281.155 1.281.269v7.667h-8.6a13.426 13.426 0 0 0-2.9-1.642c-1.7-.673-3.376-1.282-4.338-2.956a5.519 5.519 0 0 1-.743-3.8.64.64 0 0 0-.334-1.208h-31.05v1.28h29.951a6.934 6.934 0 0 0 2.612 6.374c1.251 1 2.813 1.312 4.219 1.953h-5.9a7.777 7.777 0 0 1-3.026-5.888c0-.022 0-.2-.007-.219.036-.376-.189-.938-.677-.938h-27.17v1.921h26.49a9.459 9.459 0 0 0 3.645 6.463 7.346 7.346 0 0 0 4.662 7.838 5.861 5.861 0 0 0 5.061-.17 4.949 4.949 0 0 0 2.062-3.506 5.855 5.855 0 0 0-1.163-4.22h7.215v7.461a5.53 5.53 0 0 0-4.086-1.162 4.712 4.712 0 0 0-3.385 2.062c-.958 1.443-.717 3.524-.143 5.06a7.543 7.543 0 0 0 8 4.663 9.888 9.888 0 0 0 6.664 3.645v24.324h1.281v-25a.716.716 0 0 0-.831-.679c-.021 0-.156 0-.178-.005a8.081 8.081 0 0 1-6.037-3.027v-5.9c.64 1.405.957 2.967 1.952 4.219a7.591 7.591 0 0 0 6.374 2.611v27.785h1.921v-28.893c0-.778-1.117-.888-1.414-.334m-.283-3.939a1.108 1.108 0 0 1-1.233.915 1.553 1.553 0 0 1-1.431-1.179 2.672 2.672 0 0 1 .543-2.441c1.121.588 2.3 1.385 2.121 2.706m-.448-8.352a9.46 9.46 0 0 1-2.07 3.842c-1.333-.717-2.561-1.658-2.238-3.377a3.3 3.3 0 0 1 3.686-2.4 2.275 2.275 0 0 0 .3-.049h.536a8.754 8.754 0 0 1-.212 1.981m-21.787-11.461a1.553 1.553 0 0 1-1.179-1.432 1.107 1.107 0 0 1 .915-1.232c1.321-.18 2.117 1 2.706 2.12a2.67 2.67 0 0 1-2.441.543m7.6 2.092c-1.72.323-2.654-.907-3.37-2.238a9.026 9.026 0 0 1 3.728-2.071 7.723 7.723 0 0 1 1.861-.211v.536c0 .085.064.184.073.3.123 1.6-.573 3.364-2.292 3.686m-3.1 6.455a4.038 4.038 0 0 1-.008 3.8 3.354 3.354 0 0 1-3.89 1.269 6.026 6.026 0 0 1-4.68-6.7h7.38a11.306 11.306 0 0 1 1.2 1.626m7.877 7.7v7.379a5.922 5.922 0 0 1-6.595-4.679 3.393 3.393 0 0 1 1.355-3.89 3.9 3.9 0 0 1 3.731-.007 10.711 10.711 0 0 1 1.509 1.2" class="prefix__cls-1" data-name="Path 2053" transform="translate(-216.767 -173.343)"/>
            <path id="prefix__Path_2054-2" d="M239.917 174.411h-7.686v7.689h7.686zm-1.282 6.4h-5.124v-5.124h5.124z" class="prefix__cls-1" data-name="Path 2054" transform="translate(-168.121 -173.686)"/>
            <path id="prefix__Path_2055-2" d="M230.879 261.551a1.993 1.993 0 1 1 1.9 2.079 2 2 0 0 1-1.9-2.079" class="prefix__cls-1" data-name="Path 2055" transform="translate(-162.15 -201.12)"/>
            <path id="prefix__Path_2056-2" d="M323.261 174.219a1.993 1.993 0 1 1-2.08 1.9 2 2 0 0 1 2.08-1.9" class="prefix__cls-1" data-name="Path 2056" transform="translate(-313.691 -173.624)"/>
            <path id="prefix__Path_2057-2" d="M334.977 174.727a1.642 1.642 0 1 1-1.714 1.563 1.643 1.643 0 0 1 1.714-1.563" class="prefix__cls-1" data-name="Path 2057" transform="translate(-333.261 -173.788)"/>
            <path id="prefix__Path_2058-2" d="M288.429 316.812a5.943 5.943 0 0 0-3.954.741c-1.674.962-2.415 2.633-3.088 4.339a14.135 14.135 0 0 1-1.792 2.9v8.852h7.914a12.133 12.133 0 0 0 .268-1.282h-1.042c-.075 0-.142.041-.2.023a4.474 4.474 0 0 1-4.47-5.4 4.876 4.876 0 0 1 2.7-2.9 4.105 4.105 0 0 1-.507-3.823 2.981 2.981 0 0 1 3.35-1.776 2.559 2.559 0 0 1 1.858 3.233 4.553 4.553 0 0 1-2.55 2.844c.17.2.334.4.481.591a9.742 9.742 0 0 1 1.349 9.1.7.7 0 0 1-.222.313.637.637 0 0 1-.6.355H279.6v8.08c0 .3-.026.5-.231.6a.582.582 0 0 1-.272.223 9.661 9.661 0 0 1-9.063-1.351c-.193-.146-.37-.309-.57-.479a4.534 4.534 0 0 1-2.834 2.549 2.55 2.55 0 0 1-3.224-1.857 2.983 2.983 0 0 1 1.781-3.351 4.123 4.123 0 0 1 3.831.507 4.9 4.9 0 0 1 2.911-2.7c2.936-.694 5.171 1.657 5.255 4.47.018.062-.146.129-.146.2v1.042c.64-.066 1.281-.155 1.281-.269v-7.667h-8.6a13.455 13.455 0 0 1-2.9 1.642c-1.7.673-3.376 1.282-4.338 2.955a5.518 5.518 0 0 0-.743 3.8.64.64 0 0 1-.334 1.21h-31.05v-1.281h29.951a6.937 6.937 0 0 1 2.612-6.374c1.251-1 2.813-1.311 4.219-1.952h-5.9a7.776 7.776 0 0 0-3.026 5.887c0 .022 0 .2-.007.22.036.376-.189.938-.677.938h-27.17v-1.922h26.49a9.457 9.457 0 0 1 3.645-6.462 7.346 7.346 0 0 1 4.662-7.838c1.537-.574 3.618-.787 5.061.17a4.951 4.951 0 0 1 2.062 3.506 5.858 5.858 0 0 1-1.163 4.221h7.215v-7.461a5.527 5.527 0 0 1-4.086 1.163 4.713 4.713 0 0 1-3.385-2.061c-.958-1.444-.717-3.525-.143-5.061a7.543 7.543 0 0 1 8-4.663 9.887 9.887 0 0 1 6.664-3.644v-24.319h1.281v25a.715.715 0 0 1-.831.677l-.178.006a8.082 8.082 0 0 0-6.037 3.026v5.9c.64-1.406.957-2.967 1.952-4.219a7.592 7.592 0 0 1 6.374-2.612v-27.778h1.921v28.884c0 .778-1.117.888-1.414.335m-.283 3.938a1.107 1.107 0 0 0-1.233-.915 1.554 1.554 0 0 0-1.431 1.179 2.675 2.675 0 0 0 .543 2.443c1.121-.589 2.3-1.385 2.121-2.706m-.463 8.349a9.462 9.462 0 0 0-2.07-3.841c-1.333.717-2.561 1.658-2.238 3.376a3.3 3.3 0 0 0 3.686 2.4 2.508 2.508 0 0 1 .3.05h.536a8.764 8.764 0 0 0-.212-1.982m-21.772 11.463a1.553 1.553 0 0 0-1.179 1.434 1.108 1.108 0 0 0 .915 1.233c1.321.18 2.117-1 2.706-2.12a2.669 2.669 0 0 0-2.441-.543m7.6-2.093c-1.72-.323-2.654.907-3.37 2.238a9.035 9.035 0 0 0 3.728 2.071 7.825 7.825 0 0 0 1.861.211v-.536c0-.085.064-.184.073-.3.123-1.6-.573-3.364-2.292-3.687m-3.1-6.455a4.037 4.037 0 0 0-.008-3.8 3.355 3.355 0 0 0-3.89-1.269 6.027 6.027 0 0 0-4.68 6.7h7.38a11.273 11.273 0 0 0 1.2-1.627m7.877-7.7v-7.38a5.923 5.923 0 0 0-6.595 4.68 3.394 3.394 0 0 0 1.355 3.89 3.9 3.9 0 0 0 3.731.007 10.7 10.7 0 0 0 1.509-1.2" class="prefix__cls-1" data-name="Path 2058" transform="translate(-216.767 -210.117)"/>
            <path id="prefix__Path_2059-2" d="M239.917 366.968h-7.686v-7.686h7.686zm-1.282-6.406h-5.124v5.125h5.124z" class="prefix__cls-1" data-name="Path 2059" transform="translate(-168.121 -233.192)"/>
            <path id="prefix__Path_2060-2" d="M230.879 281.581a1.993 1.993 0 1 0 1.9-2.079 2 2 0 0 0-1.9 2.079" class="prefix__cls-1" data-name="Path 2060" transform="translate(-162.15 -207.512)"/>
            <path id="prefix__Path_2061-2" d="M231.406 272.29a1.642 1.642 0 1 0 1.563-1.714 1.643 1.643 0 0 0-1.563 1.714" class="prefix__cls-1" data-name="Path 2061" transform="translate(-162.332 -204.639)"/>
        </g>
        <path id="prefix__Line_177" d="M0 0L143 0" class="prefix__cls-2" data-name="Line 177" transform="translate(108.5 87.5)"/>
        <path id="prefix__Line_178" d="M0 0L130 0" class="prefix__cls-2" data-name="Line 178" transform="translate(116.5 84.5)"/>
    </g>
</svg>
