<svg xmlns="http://www.w3.org/2000/svg" width="109.721" height="120.5" viewBox="0 0 109.721 120.5">
    <defs>
        <clipPath id="prefix__clip-path">
            <path id="prefix__Path_1650" d="M454.66 551.319l9.45-4.628 1.69-3.391 6.091-2.753 3.409 6.183-.331 6.094s-1.954 2.793-2.817 3.19-5.539 1.514-5.539 1.514l-9.472-.964z" class="prefix__cls-1" data-name="Path 1650" transform="translate(-454.66 -540.546)"/>
        </clipPath>
        <clipPath id="prefix__clip-path-2">
            <path id="prefix__Path_1657" d="M387.866 521.174l-7.756-3.8-1.389-2.784-5-2.259-2.8 5.074.272 5a12.68 12.68 0 0 0 2.312 2.618c.708.326 4.546 1.243 4.546 1.243l7.774-.791z" class="prefix__cls-1" data-name="Path 1657" transform="translate(-370.924 -512.332)"/>
        </clipPath>
        <style>
            .prefix__cls-1{fill:none}.prefix__cls-2{fill:#808285}.prefix__cls-3{fill:#fc0}.prefix__cls-4{fill:#ffe300}.prefix__cls-5{fill:#ff9500}.prefix__cls-6{fill:#ff7500}.prefix__cls-7{fill:#939598}.prefix__cls-8{fill:#a7a9ac}.prefix__cls-11{fill:#efb086}.prefix__cls-12{fill:#f9c7a5}.prefix__cls-14{fill:#f15a29}.prefix__cls-15{fill:#d8421a}.prefix__cls-16{fill:#191718}.prefix__cls-17{fill:#2d2b2c}.prefix__cls-18{fill:#414042}.prefix__cls-20{fill:#ffe04a}.prefix__cls-21{fill:#8b5e3c}.prefix__cls-22{fill:#754c29}.prefix__cls-24,.prefix__cls-30{fill:#603913}.prefix__cls-25,.prefix__cls-29{fill:#47270c}.prefix__cls-29,.prefix__cls-30{fill-rule:evenodd}.prefix__cls-35{fill:#cdeff9}.prefix__cls-36{fill:#75431a}.prefix__cls-39{fill:#c5d1d7}.prefix__cls-40{fill:#afb8bc}.prefix__cls-41{fill:#dae5ea}
        </style>
    </defs>
    <g id="prefix__Group_1740" data-name="Group 1740" transform="translate(-53 -43.5)">
        <g id="prefix__Group_1456" data-name="Group 1456" transform="translate(53 107.105)">
            <path id="prefix__Path_1623" d="M554.749 476.353l16.329-1.432 16.407 15.2 3.526 12.425-36.926-4.457z" class="prefix__cls-2" data-name="Path 1623" transform="translate(-504.95 -462.547)"/>
            <path id="prefix__Path_1624" d="M288.815 468.854l12.705-22.378 31.162-9.4 11.782 17.182z" class="prefix__cls-2" data-name="Path 1624" transform="translate(-288.815 -431.708)"/>
            <g id="prefix__Group_1447" data-name="Group 1447">
                <g id="prefix__Group_1446" data-name="Group 1446">
                    <g id="prefix__Group_1440" data-name="Group 1440" transform="translate(26.574 7.208)">
                        <circle id="prefix__Ellipse_15" cx="12.228" cy="12.228" r="12.228" class="prefix__cls-3" data-name="Ellipse 15" transform="rotate(-45 20.874 8.646)"/>
                        <path id="prefix__Path_1625" d="M498.335 487.077A12.228 12.228 0 0 0 477.7 478.2a12.228 12.228 0 1 1 17.286 17.286 12.186 12.186 0 0 0 3.349-8.409z" class="prefix__cls-4" data-name="Path 1625" transform="translate(-469.29 -469.308)"/>
                        <circle id="prefix__Ellipse_16" cx="9.734" cy="9.734" r="9.734" class="prefix__cls-5" data-name="Ellipse 16" transform="rotate(-80.783 17.956 9.07)"/>
                        <path id="prefix__Path_1626" d="M502.678 498.348a9.733 9.733 0 0 0-16.218-7.259 9.733 9.733 0 1 1 13.74 13.743 9.7 9.7 0 0 0 2.478-6.484z" class="prefix__cls-6" data-name="Path 1626" transform="translate(-476.426 -480.28)"/>
                    </g>
                    <g id="prefix__Group_1441" data-name="Group 1441" transform="translate(68.016 26.993)">
                        <path id="prefix__Path_1627" d="M669 556.625a7.259 7.259 0 1 1-10.191-1.239A7.259 7.259 0 0 1 669 556.625z" class="prefix__cls-3" data-name="Path 1627" transform="translate(-656.024 -553.842)"/>
                        <path id="prefix__Path_1628" d="M657.965 565.627a7.259 7.259 0 0 1 6.392-11.7 7.259 7.259 0 1 0-1.751 14.406 7.232 7.232 0 0 1-4.641-2.706z" class="prefix__cls-4" data-name="Path 1628" transform="translate(-656.024 -553.843)"/>
                        <path id="prefix__Path_1629" d="M674.346 564.053a5.778 5.778 0 1 1-8.112-.986 5.778 5.778 0 0 1 8.112.986z" class="prefix__cls-5" data-name="Path 1629" transform="translate(-662.538 -560.356)"/>
                        <path id="prefix__Path_1630" d="M665.894 571.258a5.778 5.778 0 0 1 4.922-9.329 5.778 5.778 0 1 0-1.392 11.453 5.756 5.756 0 0 1-3.53-2.124z" class="prefix__cls-6" data-name="Path 1630" transform="translate(-662.538 -560.357)"/>
                    </g>
                    <g id="prefix__Group_1442" data-name="Group 1442" transform="translate(52.417 18.034)">
                        <path id="prefix__Path_1631" d="M592.1 526.9a12.228 12.228 0 1 1 1.132-17.256A12.228 12.228 0 0 1 592.1 526.9z" class="prefix__cls-3" data-name="Path 1631" transform="translate(-571.808 -505.477)"/>
                        <path id="prefix__Path_1632" d="M575.972 509.183a12.228 12.228 0 0 1 20.281 9.658 12.228 12.228 0 1 0-24.394-1.6 12.185 12.185 0 0 1 4.113-8.058z" class="prefix__cls-4" data-name="Path 1632" transform="translate(-571.85 -505.477)"/>
                        <path id="prefix__Path_1633" d="M601.427 536a9.734 9.734 0 1 1 .9-13.736 9.734 9.734 0 0 1-.9 13.736z" class="prefix__cls-5" data-name="Path 1633" transform="translate(-582.781 -516.449)"/>
                        <path id="prefix__Path_1634" d="M588.524 522.452a9.733 9.733 0 0 1 16.15 7.408 9.733 9.733 0 1 0-19.394-1.272 9.7 9.7 0 0 1 3.244-6.136z" class="prefix__cls-6" data-name="Path 1634" transform="translate(-582.785 -516.449)"/>
                    </g>
                    <g id="prefix__Group_1443" data-name="Group 1443" transform="translate(17.689)">
                        <path id="prefix__Path_1635" d="M407.626 415.172a12.228 12.228 0 1 1-16.252-5.91 12.228 12.228 0 0 1 16.252 5.91z" class="prefix__cls-3" data-name="Path 1635" transform="translate(-384.314 -408.112)"/>
                        <path id="prefix__Path_1636" d="M386.1 425.746a12.228 12.228 0 0 1 14.942-16.774 12.228 12.228 0 1 0-8.354 22.975 12.186 12.186 0 0 1-6.588-6.201z" class="prefix__cls-4" data-name="Path 1636" transform="translate(-384.314 -408.113)"/>
                        <path id="prefix__Path_1637" d="M416.341 427.2a9.734 9.734 0 1 1-12.937-4.7 9.734 9.734 0 0 1 12.937 4.7z" class="prefix__cls-5" data-name="Path 1637" transform="translate(-395.289 -419.087)"/>
                        <path id="prefix__Path_1638" d="M399.729 435.811a9.733 9.733 0 0 1 11.627-13.436 9.733 9.733 0 1 0-6.642 18.266 9.7 9.7 0 0 1-4.985-4.83z" class="prefix__cls-6" data-name="Path 1638" transform="translate(-395.289 -419.089)"/>
                    </g>
                    <g id="prefix__Group_1445" data-name="Group 1445" transform="translate(0 7.674)">
                        <path id="prefix__Path_1639" d="M374.481 479.014l-25.087-6.024-3.193.912-17.885-24.36-18.789 7.773-14.208 13.142-6.5 8.556 4.6 5.345h85.349z" class="prefix__cls-7" data-name="Path 1639" transform="translate(-288.815 -449.543)"/>
                        <g id="prefix__Group_1444" data-name="Group 1444" transform="translate(32.941 20.8)">
                            <path id="prefix__Path_1640" d="M482.084 566.222c-.781-2.887-3.936-4.628-7.469-4.356l-1.026 2.057-6.61 3.237a5.345 5.345 0 0 0-.143 3.185c.912 3.372 5.064 5.184 9.275 4.045s6.889-4.796 5.973-8.168z" class="prefix__cls-2" data-name="Path 1640" transform="translate(-466.658 -561.838)"/>
                        </g>
                        <path id="prefix__Path_1641" d="M583.638 576.135l3.324 11.369h-10.653l4.136-10.457z" class="prefix__cls-8" data-name="Path 1641" transform="translate(-523.058 -552.687)"/>
                        <path id="prefix__Path_1642" d="M401.591 449.543l-15.442 34.817h-7.4l4.055-27.043z" class="prefix__cls-8" data-name="Path 1642" transform="translate(-362.089 -449.543)"/>
                        <path id="prefix__Path_1643" d="M295.319 562.46l10.153 13.9h-12.056l-4.6-5.345z" class="prefix__cls-8" data-name="Path 1643" transform="translate(-288.815 -541.545)"/>
                    </g>
                </g>
            </g>
            <path id="prefix__Path_1644" d="M384.349 538.93c-3.456-.934-3.917-2.072-4.666.7s1.446 5.769 4.9 6.7 6.863-.552 7.612-3.32a4.235 4.235 0 0 0 .136-1.407c-.161-2.314-5.109-1.896-7.982-2.673z" class="prefix__cls-7" data-name="Path 1644" transform="translate(-362.733 -513.848)"/>
            <g id="prefix__Group_1451" data-name="Group 1451" transform="translate(30.719 24.53)">
                <g id="prefix__Group_1450" clip-path="url(#prefix__clip-path)" data-name="Group 1450">
                    <g id="prefix__Group_1449" data-name="Group 1449" transform="translate(2.046 -.302)">
                        <path id="prefix__Rectangle_366" d="M0 0H2.249V3.069H0z" class="prefix__cls-5" data-name="Rectangle 366" transform="rotate(-105.131 4.47 5.047)"/>
                        <path id="prefix__Rectangle_367" d="M0 0H2.249V3.069H0z" class="prefix__cls-5" data-name="Rectangle 367" transform="rotate(-105.132 9.34 -1.316)"/>
                        <g id="prefix__Group_1448" data-name="Group 1448">
                            <path id="prefix__Path_1645" d="M475.025 550.975c4.211-1.138 8.363.673 9.275 4.045s-1.762 7.03-5.972 8.168-8.363-.673-9.275-4.045 1.762-7.029 5.972-8.168z" class="prefix__cls-5" data-name="Path 1645" transform="translate(-468.288 -548.464)"/>
                            <path id="prefix__Path_1646" d="M471.856 539.256c4.211-1.139 8.363.673 9.275 4.045s-1.762 7.029-5.972 8.168-8.363-.673-9.275-4.045 1.761-7.029 5.972-8.168z" class="prefix__cls-3" data-name="Path 1646" transform="translate(-465.705 -538.916)"/>
                            <path id="prefix__Path_1647" d="M475.391 566.234c-4.21 1.138-8.363-.673-9.275-4.045a5.709 5.709 0 0 1 .952-4.762 5.8 5.8 0 0 0-1.184 5.08c.912 3.372 5.065 5.183 9.275 4.045a8.9 8.9 0 0 0 5.021-3.406 9 9 0 0 1-4.789 3.088z" class="prefix__cls-4" data-name="Path 1647" transform="translate(-465.705 -553.998)"/>
                            <path id="prefix__Path_1648" d="M479.193 546.286c3.352-.906 6.657.535 7.383 3.22s-1.4 5.6-4.754 6.5-6.657-.535-7.383-3.22 1.403-5.593 4.754-6.5z" class="prefix__cls-5" data-name="Path 1648" transform="translate(-472.706 -544.7)"/>
                            <path id="prefix__Path_1649" d="M482.2 566.928c-3.351.906-6.657-.536-7.383-3.22a4.508 4.508 0 0 1 .667-3.656 4.659 4.659 0 0 0-1.046 4.173c.726 2.685 4.031 4.126 7.383 3.22a7.039 7.039 0 0 0 4.087-2.846 7.212 7.212 0 0 1-3.708 2.329z" class="prefix__cls-6" data-name="Path 1649" transform="translate(-472.706 -556.137)"/>
                        </g>
                    </g>
                </g>
            </g>
            <path id="prefix__Path_1651" d="M464.11 546.692l-9.45 4.628 7.818-5.635 2.721-4.434 6.695-.7-6.094 2.749z" class="prefix__cls-2" data-name="Path 1651" transform="translate(-423.941 -516.016)"/>
            <g id="prefix__Group_1455" data-name="Group 1455" transform="translate(15.209 19.304)">
                <g id="prefix__Group_1454" clip-path="url(#prefix__clip-path-2)" data-name="Group 1454">
                    <g id="prefix__Group_1453" data-name="Group 1453" transform="translate(1.975 -.248)">
                        <path id="prefix__Rectangle_368" d="M0 0H1.846V2.519H0z" class="prefix__cls-5" data-name="Rectangle 368" transform="rotate(-74.87 10.41 -2.627)"/>
                        <path id="prefix__Rectangle_369" d="M0 0H1.845V2.519H0z" class="prefix__cls-5" data-name="Rectangle 369" transform="rotate(-74.869 3.588 2.595)"/>
                        <g id="prefix__Group_1452" data-name="Group 1452">
                            <path id="prefix__Path_1652" d="M389.345 520.891c-3.456-.934-6.863.552-7.612 3.32s1.446 5.769 4.9 6.7 6.863-.552 7.612-3.32-1.445-5.766-4.9-6.7z" class="prefix__cls-5" data-name="Path 1652" transform="translate(-381.587 -518.83)"/>
                            <path id="prefix__Path_1653" d="M391.946 511.274c-3.456-.934-6.863.552-7.612 3.32s1.446 5.769 4.9 6.7 6.864-.552 7.612-3.32-1.446-5.766-4.9-6.7z" class="prefix__cls-3" data-name="Path 1653" transform="translate(-383.706 -510.994)"/>
                            <path id="prefix__Path_1654" d="M393.125 533.414c3.456.934 6.863-.552 7.612-3.32a4.685 4.685 0 0 0-.781-3.908 4.763 4.763 0 0 1 .972 4.169c-.748 2.768-4.156 4.254-7.612 3.32a7.3 7.3 0 0 1-4.12-2.8 7.389 7.389 0 0 0 3.929 2.539z" class="prefix__cls-4" data-name="Path 1654" transform="translate(-387.786 -523.372)"/>
                            <path id="prefix__Path_1655" d="M397.415 517.043c-2.751-.744-5.464.44-6.059 2.643s1.151 4.592 3.9 5.336 5.463-.439 6.059-2.643-1.149-4.592-3.9-5.336z" class="prefix__cls-5" data-name="Path 1655" transform="translate(-389.452 -515.742)"/>
                            <path id="prefix__Path_1656" d="M397.869 533.984c2.751.744 5.464-.439 6.059-2.643a3.7 3.7 0 0 0-.548-3 3.825 3.825 0 0 1 .858 3.425c-.6 2.2-3.309 3.386-6.059 2.643a5.776 5.776 0 0 1-3.354-2.336 5.915 5.915 0 0 0 3.044 1.911z" class="prefix__cls-6" data-name="Path 1656" transform="translate(-392.374 -525.128)"/>
                        </g>
                    </g>
                </g>
            </g>
            <path id="prefix__Path_1658" d="M399.991 519.918l5.672 2.778-4.333-3.6-2.233-3.639-3.773.2 3.277 1.481z" class="prefix__cls-7" data-name="Path 1658" transform="translate(-375.596 -495.57)"/>
        </g>
        <g id="prefix__Group_1483" data-name="Group 1483" transform="translate(74.355 43.5)">
            <g id="prefix__Group_1482" data-name="Group 1482">
                <path id="prefix__Path_1659" d="M752.768 463.576s-3.587-.623-2.291-2.616 5.091-3.081 6.777-2.307 1.495 3.421.958 3.822a26.557 26.557 0 0 1-3.671 1.359z" class="prefix__cls-11" data-name="Path 1659" transform="translate(-686.091 -385.482)"/>
                <path id="prefix__Path_1660" d="M434.255 179.3s-15.041 6.634-25.767-14.8c0 0-5.956-3.048-3.98-10.982a29.17 29.17 0 0 1 5.9-11.679c.437-.51.165-8.923 6.163-3.761 2.2 1.894 1.529 7.734 1.529 7.734l-2.98.429-.6 1.933-3.051.4s6.518 1.661 6.174 7.405c0 0 5.529-2.213 9.81-1.282 4.72 1.026 6.485 3.51 6.485 3.51l.9 16.979z" class="prefix__cls-12" data-name="Path 1660" transform="translate(-404.107 -123.134)"/>
                <g id="prefix__Group_1457" data-name="Group 1457" transform="translate(7.084 13.68)">
                    <path id="prefix__Path_1661" d="M459.971 208.549c-.423-.132-.874-.252-1.357-.357-4.282-.931-9.81 1.282-9.81 1.282.344-5.745-6.174-7.405-6.174-7.405-1.278 1.9 2.172 1.435 3.091 5.768a10.557 10.557 0 0 0 11.944 7.588c2.558-.487 2.874-3.54 2.306-6.876z" class="prefix__cls-11" data-name="Path 1661" transform="translate(-442.349 -190.308)"/>
                    <path id="prefix__Path_1662" d="M447.476 148.007l2.98-.429s2.513-3.514.1-5.123l-.037-.023c-2.456-.4-4.719-3.856-4.719-3.856s-2.139 7.164-1.972 11.76l3.053 1.708z" class="prefix__cls-11" data-name="Path 1662" transform="translate(-443.543 -138.576)"/>
                </g>
                <path id="prefix__Path_1663" d="M433.126 194.425a10.626 10.626 0 0 0-2.311-1.513c-1.644.654-4.05 3.988-4.846 8.129-1.257 6.535-6.848 8.277-11.373 3.948s-1.736-8.836-1.736-8.836a6.315 6.315 0 0 1-5.574-6.129c-.366-5.657.092-5.589.936-8.119l-.081.13-.153.246-.108.18c-.051.085-.1.17-.154.258l-.107.186q-.139.24-.278.492c-.044.08-.089.159-.133.241l-.124.235-.141.268c-.047.091-.082.161-.122.242l-.141.281c-.047.095-.081.167-.121.252l-.139.293-.119.259c-.04.087-.092.2-.137.306l-.116.266-.136.32-.111.272q-.067.166-.133.335-.054.137-.107.277l-.13.351c-.034.093-.068.186-.1.28-.044.122-.086.247-.128.372l-.094.278c-.043.132-.086.267-.127.4l-.084.268c-.045.15-.089.3-.132.456l-.067.232q-.1.347-.185.7a11.836 11.836 0 0 0-.309 4.477c.015.108.03.215.049.32a9.24 9.24 0 0 0 .235 1.025q.071.244.152.474t.172.449q.091.218.189.425l.1.2q.1.2.21.388.054.094.109.185c.111.182.225.355.341.519.155.219.314.423.474.612.12.142.24.275.358.4q.119.125.236.239c.078.076.154.148.23.217l.112.1q.111.1.217.185a6.841 6.841 0 0 0 1.1.764 42.924 42.924 0 0 0 3.649 6.071q.8 1.1 1.621 2.053.272.316.545.617a26.369 26.369 0 0 0 2.189 2.152q.274.239.548.463a21.754 21.754 0 0 0 2.178 1.575q.27.171.539.329a18.284 18.284 0 0 0 4.666 1.955q.247.064.49.12a16.571 16.571 0 0 0 8.829-.342c.335-.113.515-.193.515-.193l.585-4.117-.9-16.976-.817-.842z" class="prefix__cls-11" data-name="Path 1663" transform="translate(-404.109 -160.199)"/>
                <g id="prefix__Group_1459" data-name="Group 1459" transform="translate(8.593)">
                    <path id="prefix__Rectangle_370" d="M0 0H5.599V7.643H0z" class="prefix__cls-5" data-name="Rectangle 370" transform="translate(15.752)"/>
                    <path id="prefix__Rectangle_371" d="M0 0H5.599V7.642H0z" class="prefix__cls-5" data-name="Rectangle 371" transform="translate(15.752 31.689)"/>
                    <g id="prefix__Group_1458" data-name="Group 1458">
                        <ellipse id="prefix__Ellipse_17" cx="15.752" cy="19.666" class="prefix__cls-5" data-name="Ellipse 17" rx="15.752" ry="19.666"/>
                        <ellipse id="prefix__Ellipse_18" cx="15.752" cy="19.666" class="prefix__cls-3" data-name="Ellipse 18" rx="15.752" ry="19.666" transform="translate(5.599)"/>
                        <path id="prefix__Path_1664" d="M481.34 85.151c0-10.861 7.053-19.666 15.752-19.666a14.217 14.217 0 0 1 10.827 5.383 14.45 14.45 0 0 0-11.441-6.149c-8.7 0-15.752 8.8-15.752 19.666a22.157 22.157 0 0 0 4.925 14.283 22.421 22.421 0 0 1-4.311-13.517z" class="prefix__cls-4" data-name="Path 1664" transform="translate(-475.128 -64.719)"/>
                        <ellipse id="prefix__Ellipse_19" cx="12.539" cy="15.654" class="prefix__cls-5" data-name="Ellipse 19" rx="12.539" ry="15.654" transform="translate(8.813 4.011)"/>
                        <path id="prefix__Path_1665" d="M499.072 103.277c0-8.646 5.614-15.654 12.539-15.654a11.224 11.224 0 0 1 8.353 3.98 11.6 11.6 0 0 0-9.351-5.226c-6.925 0-12.539 7.009-12.539 15.654a17.525 17.525 0 0 0 4.186 11.674 17.954 17.954 0 0 1-3.188-10.428z" class="prefix__cls-6" data-name="Path 1665" transform="translate(-489.262 -82.365)"/>
                    </g>
                </g>
                <path id="prefix__Path_1666" fill="#231f20" d="M526.657 129.273c8.7 0 15.752-8.8 15.752-19.666a22.282 22.282 0 0 0-4.635-13.932c0 .008 2.054 4.138.468 5.976a27.954 27.954 0 0 0-3.008 4.6c-8.909.553-2.073 7.186-4.847 9.029s-5.045 7.01-7.114 9.685c-2.031 2.625-5.385.939-5.509.876a13.617 13.617 0 0 0 8.893 3.432z" data-name="Path 1666" opacity="0.2" transform="translate(-496.713 -89.942)"/>
                <path id="prefix__Path_1667" d="M625.792 118.419s2.734-10.03 11.236-9.585 22.582 12.348 8.212 23.7c-12.04 9.505-19.448-14.115-19.448-14.115z" class="prefix__cls-14" data-name="Path 1667" transform="translate(-584.73 -100.651)"/>
                <path id="prefix__Path_1668" d="M651.406 127.984c-3.636 7.541-10.829 1.434-10.188-.585a14.3 14.3 0 0 0 .652-5.7l-2.367 3.028-5.487.142c-3.946-2.548-2.461-8.454-2.452-8.489-4.262 2.664-5.772 8.2-5.772 8.2s7.405 23.621 19.449 14.11c4.614-3.644 6.292-7.345 6.165-10.706z" class="prefix__cls-15" data-name="Path 1668" transform="translate(-584.73 -106.813)"/>
                <path id="prefix__Path_1669" d="M598.542 166.34s-3.8-2.367-2.835-3.85 6.967-3.411 13.27 0 11.623 12.219 11.623 12.219-1.315 5.3-6.815 5.041-15.243-13.41-15.243-13.41z" class="prefix__cls-14" data-name="Path 1669" transform="translate(-560.091 -142.831)"/>
                <path id="prefix__Path_1670" d="M609.006 174.3c-3.059-3.949-6.508-2.948-9.355-1.724-2.8 1.2-4.047-.605-4.087-.664.017 1.455 2.989 3.309 2.989 3.309s9.743 13.155 15.243 13.41 6.816-5.041 6.816-5.041c-4.692.839-8.547-5.337-11.606-9.29z" class="prefix__cls-15" data-name="Path 1670" transform="translate(-560.101 -151.716)"/>
                <path id="prefix__Path_1671" d="M570.153 692.4l-3.738-1.1 2.455-1.748 2.833-.18z" class="prefix__cls-16" data-name="Path 1671" transform="translate(-536.352 -573.67)"/>
                <path id="prefix__Path_1672" d="M638.971 691.84l4.111-1.185s-3.133-1.867-3.258-1.842-.988-.3-1.37 0 .517 3.027.517 3.027z" class="prefix__cls-16" data-name="Path 1672" transform="translate(-594.97 -573.112)"/>
                <g id="prefix__Group_1460" data-name="Group 1460" transform="translate(17.953 101.664)">
                    <path id="prefix__Path_1673" d="M503.46 678.145s-2.084.444-2.427 3.47c0 0 2.088 3.3 7.973 2.688s4.542-3.374 8.087-3.566l-.212 1.871a9.413 9.413 0 0 0 2.687-.858c.606-.48-.23-4.4-.23-4.4z" class="prefix__cls-17" data-name="Path 1673" transform="translate(-501.033 -665.544)"/>
                    <path id="prefix__Path_1674" d="M523.7 677.354l-15.877.791a2.9 2.9 0 0 0-1.435.954c.745 2.106 2.141 3.3 5.86 3.789s6.261-3.168 8.543-3.32a5.129 5.129 0 0 0 3.136-.988c-.111-.695-.227-1.226-.227-1.226z" class="prefix__cls-16" data-name="Path 1674" transform="translate(-505.399 -665.544)"/>
                    <path id="prefix__Path_1675" d="M530.055 622.887a11.946 11.946 0 0 1-.128-7.346c1.048-3.948-6.857-.677-6.857-.677s.249 4.164.738 4.905-8-1.319-9.8 3.281 1.594 5.6 5.137 5.8 5.617-2.931 8.273-2.767a2.42 2.42 0 0 0 2.637-3.196z" class="prefix__cls-17" data-name="Path 1675" transform="translate(-511.204 -613.591)"/>
                    <path id="prefix__Path_1676" d="M520.065 654.828s.181-1.439 3.425-2.425c4.11-1.249 10.663 2.307-3.425 2.425z" class="prefix__cls-18" data-name="Path 1676" transform="translate(-516.54 -644.998)"/>
                    <path id="prefix__Path_1677" d="M546.457 617.357c2.378.407 2.148 6.877-.041 7.223s-3.244 4.4-8.567 4.593c.369.043.745.308 1.124.329 3.544.2 5.619-3.166 8.275-3a2.42 2.42 0 0 0 2.633-3.193 11.947 11.947 0 0 1-.128-7.346c.01-.038.018-.075.026-.112a16.882 16.882 0 0 0-2.653-1.711c-.066-.007-.132-.018-.2-.03a18.152 18.152 0 0 0-2.976.783l-1.056.394a5.786 5.786 0 0 0 3.563 2.07z" class="prefix__cls-16" data-name="Path 1677" transform="translate(-531.03 -614.011)"/>
                    <path id="prefix__Path_1678" d="M547.6 625.555c.016 0 4.312 0 5.6 1.328s.311-.974-.567-1.829-1.759-3.973-1.792-4.595.249 4.164.738 4.905c.244.369-1.717.049-3.979.191z" class="prefix__cls-16" data-name="Path 1678" transform="translate(-538.977 -619.188)"/>
                </g>
                <path id="prefix__Path_1679" d="M525.652 441.11s-2.385 14.053 2.813 22.1c4.888 7.567 1.212 5.81 2.814 8.088s8.035 2 9.926-.556-.668-3.5 1.557-7.815 6.672-18.6-.5-24.915-16.61 3.098-16.61 3.098z" class="prefix__cls-17" data-name="Path 1679" transform="translate(-502.694 -367.091)"/>
                <path id="prefix__Path_1680" d="M546.342 467.7q0-.284-.013-.568v-.054c0-.083-.008-.166-.012-.248 0-.055-.005-.11-.008-.165q-.007-.121-.016-.241c0-.056-.008-.113-.013-.169l-.02-.24-.016-.166-.024-.243c0-.038-.009-.077-.014-.115q-.028-.244-.063-.485l-.024-.162-.037-.23-.029-.17q-.02-.114-.042-.227l-.034-.17c-.015-.075-.03-.15-.047-.225l-.037-.164q-.047-.205-.1-.408l-.043-.166-.06-.213-.05-.171-.065-.209-.056-.171c-.019-.057-.045-.137-.069-.205l-.062-.171-.073-.2c-3.367-1-5.856-2.321-8.351-1.918-2.117.342-9.409 3.743-11.573 4.767-.031.474-.059.98-.079 1.513a14.769 14.769 0 0 0 7.008 6.249c5.645 2.648 6.932 13.019 5.486 15.021a5.839 5.839 0 0 1-6.628 1.742 3.765 3.765 0 0 0-.154.481 2.36 2.36 0 0 0 .423 1.188c1.6 2.278 8.035 2 9.926-.556a3.323 3.323 0 0 0 .751-2.077v-.184-.014c-.006-.15-.019-.3-.035-.453v-.041l-.028-.249-.029-.252-.018-.163v-.043a7.059 7.059 0 0 1 .929-4.337c.031-.06.063-.123.1-.188l.032-.066.069-.141.037-.077.068-.145.037-.079.08-.176.025-.056c.035-.078.07-.158.1-.239l.032-.076.076-.178.041-.1.069-.169.042-.1.073-.184.037-.094.108-.278.029-.078.081-.217.044-.119.067-.185.047-.132.066-.187.046-.131.077-.226.048-.143.089-.269.046-.143.062-.194.05-.16.057-.186.05-.165.059-.2.046-.155q.048-.166.1-.335l.046-.168.054-.2.05-.185.049-.186.049-.191.047-.186.048-.194.05-.208q.04-.166.078-.334l.044-.194.046-.208c.016-.07.027-.121.039-.182l.045-.215.036-.179.044-.219.034-.177q.04-.208.077-.418l.029-.166.039-.229.029-.177.036-.23.026-.176.035-.235.023-.169.033-.243c0-.02 0-.04.007-.06q.035-.276.065-.553l.018-.166.024-.243.016-.171.021-.244c0-.056.009-.112.013-.168l.018-.249c0-.047.006-.095.009-.142q.015-.246.026-.493c0-.05 0-.1.007-.15 0-.082.005-.165.008-.247v-.169-.245-.17-.247c-.007-.051-.008-.104-.009-.161z" class="prefix__cls-16" data-name="Path 1680" transform="translate(-502.861 -386.585)"/>
                <g id="prefix__Group_1461" data-name="Group 1461" transform="translate(40.898 101.664)">
                    <path id="prefix__Path_1681" d="M642.3 678.145s2.084.444 2.427 3.47c0 0-2.087 3.3-7.973 2.688s-4.542-3.374-8.087-3.566l.212 1.871a9.412 9.412 0 0 1-2.687-.858c-.606-.48.23-4.4.23-4.4z" class="prefix__cls-17" data-name="Path 1681" transform="translate(-625.771 -665.544)"/>
                    <path id="prefix__Path_1682" d="M627.4 677.354l15.877.791a2.9 2.9 0 0 1 1.435.954c-.745 2.106-2.141 3.3-5.86 3.789s-6.261-3.168-8.543-3.32a5.129 5.129 0 0 1-3.136-.988c.118-.695.227-1.226.227-1.226z" class="prefix__cls-16" data-name="Path 1682" transform="translate(-626.757 -665.544)"/>
                    <path id="prefix__Path_1683" d="M625.007 622.887a11.948 11.948 0 0 0 .128-7.346c-1.048-3.948 6.857-.677 6.857-.677s-.249 4.164-.738 4.905 8-1.319 9.8 3.281-1.593 5.6-5.137 5.8-5.617-2.931-8.273-2.767a2.42 2.42 0 0 1-2.637-3.196z" class="prefix__cls-17" data-name="Path 1683" transform="translate(-624.907 -613.591)"/>
                    <path id="prefix__Path_1684" d="M670.426 654.828s-.181-1.439-3.425-2.425c-4.11-1.249-10.663 2.307 3.425 2.425z" class="prefix__cls-18" data-name="Path 1684" transform="translate(-655 -644.998)"/>
                    <path id="prefix__Path_1685" d="M628.43 617.357c-2.379.407-2.148 6.877.041 7.223s3.243 4.4 8.567 4.593c-.37.043-.745.308-1.124.329-3.544.2-5.619-3.166-8.275-3a2.42 2.42 0 0 1-2.633-3.193 11.948 11.948 0 0 0 .128-7.346c-.01-.038-.018-.075-.026-.112a16.876 16.876 0 0 1 2.654-1.711c.066-.007.132-.018.2-.03a18.152 18.152 0 0 1 2.976.783l1.056.394a5.786 5.786 0 0 1-3.564 2.07z" class="prefix__cls-16" data-name="Path 1685" transform="translate(-624.907 -614.011)"/>
                    <path id="prefix__Path_1686" d="M653.285 625.555c-.017 0-4.312 0-5.6 1.328s-.311-.974.567-1.829 1.759-3.973 1.792-4.595-.249 4.164-.738 4.905c-.242.369 1.719.049 3.979.191z" class="prefix__cls-16" data-name="Path 1686" transform="translate(-642.959 -619.188)"/>
                </g>
                <path id="prefix__Path_1687" d="M609.91 441.11s2.385 14.053-2.813 22.1c-4.888 7.567-1.212 5.81-2.814 8.088s-8.035 2-9.926-.556.667-3.5-1.557-7.815-6.672-18.6.5-24.915 16.61 3.098 16.61 3.098z" class="prefix__cls-17" data-name="Path 1687" transform="translate(-555.066 -367.091)"/>
                <path id="prefix__Path_1688" d="M595.258 482.951c-1.891-2.559.667-3.5-1.557-7.815-2.011-3.9-5.837-15.942-1.256-22.888-5.933 6.671-1.771 19.927.359 24.056 2.225 4.314-.334 5.256 1.557 7.815s8.324 2.834 9.926.556a3.087 3.087 0 0 0 .352-.614c-2.181 1.655-7.66 1.217-9.381-1.11z" class="prefix__cls-16" data-name="Path 1688" transform="translate(-555.07 -380.468)"/>
                <path id="prefix__Path_1689" d="M613.919 492.094a9.833 9.833 0 0 1 3.868 1.55c1.836 1.279 3.9-3.25 3.9-3.25a28.219 28.219 0 0 0 8.712-4.285l-2.311-1.453a9.145 9.145 0 0 0-3.513.715c-2.225.82-5.729 2.625-5.729 2.625z" class="prefix__cls-16" data-name="Path 1689" transform="translate(-575.057 -406.87)"/>
                <g id="prefix__Group_1463" data-name="Group 1463" transform="translate(53.695 42.774)">
                    <path id="prefix__Path_1690" d="M696.163 299.505s15.717-4.821 23.849 17.725c0 0 5.556 3.727 2.661 11.373a28.108 28.108 0 0 1-8.027 11.589 10.852 10.852 0 0 1-5.1-2.238c-2.211-1.882-1.281-3.3-1.281-3.3l3.01-.076.824-1.849 3.076-.035s-6.277-2.415-5.261-8.08c0 0-5.75 1.548-9.893.12-4.567-1.573-6.028-4.248-6.028-4.248l1.1-16.967z" class="prefix__cls-12" data-name="Path 1690" transform="translate(-693.996 -298.438)"/>
                    <g id="prefix__Group_1462" data-name="Group 1462" transform="translate(0 .634)">
                        <path id="prefix__Path_1691" d="M804.94 520.993l-.124-.018z" class="prefix__cls-11" data-name="Path 1691" transform="translate(-784.289 -479.873)"/>
                        <path id="prefix__Path_1692" d="M711.322 339.12c.859-.235 3.158-.384 5.113-.59a29.083 29.083 0 0 0 3.8-4.95 8.636 8.636 0 0 0-3.557-4.124c-4.982-3.3-5.825-10.731-5.825-10.731-4.293 2.223-7.576-3.066-5.469-8.936a11.453 11.453 0 0 0-.779-10.01q-.189-.056-.376-.107l-.034-.009q-.182-.049-.362-.094l-.032-.008q-.375-.092-.74-.164h-.006l-.353-.066-.032-.006q-.172-.03-.342-.056h-.025q-.351-.053-.688-.09h-.015q-.165-.018-.326-.032h-.028c-.107-.009-.213-.018-.317-.025h-.015q-.324-.022-.63-.032h-.009l-.3-.006h-.312q-.294 0-.568.013a64.421 64.421 0 0 1-4.061 5.364L694 320.492a6.232 6.232 0 0 0 .977 1.219c.149.152.318.312.507.479s.4.339.63.514a13.982 13.982 0 0 0 3.914 2.036 12.958 12.958 0 0 0 4.13.6c.346 0 .688-.008 1.022-.024q.2-.01.4-.023c.458-.03.9-.074 1.311-.124l.175-.022.34-.046.164-.023c.324-.048.624-.1.894-.148q.2-.037.381-.073c.158-.031.3-.062.429-.089.413-.09.65-.154.65-.154a6.344 6.344 0 0 0 .108 2.849c.039.14.082.277.13.41a6.345 6.345 0 0 0 .532 1.125 7.1 7.1 0 0 0 .448.662 8.5 8.5 0 0 0 1.158 1.24q.136.119.272.229l.136.109q.136.107.27.205l.134.1c.266.189.523.354.76.495l.117.069a9.324 9.324 0 0 0 1.188.592l-3.076.035-.824 1.849-1.5.038-1.5.038s-.818 1.243.9 2.949q.172.171.379.347a8.859 8.859 0 0 0 1.511 1.028c.08.048.168.093.255.137z" class="prefix__cls-11" data-name="Path 1692" transform="translate(-693.996 -299.073)"/>
                    </g>
                    <path id="prefix__Path_1693" d="M708.252 321.418s.438 1.436 2.267.8-1.927-12.155 1.388-18.088 2.944-9.493-.785-8.221c-3.359 1.141-8.505 14.769-2.87 25.509z" class="prefix__cls-14" data-name="Path 1693" transform="translate(-703.567 -295.647)"/>
                </g>
                <g id="prefix__Group_1464" data-name="Group 1464" transform="translate(18.764 36.956)">
                    <path id="prefix__Path_1694" d="M520.324 265.038a2.212 2.212 0 0 0-2.291-.669c-1.059.449-11.857 8.158-12.492 19.43 0 0-1.179 4.261 3.617 3.688s11.166-22.449 11.166-22.449z" class="prefix__cls-14" data-name="Path 1694" transform="translate(-505.413 -264.237)"/>
                </g>
                <path id="prefix__Path_1695" d="M529.829 271.353s-6.637 6.9-10.383 20.617c-3.5 12.811-3.263 24.275 12.311 26.154a20.506 20.506 0 0 0 23.213-16.5s-4.925-15.157 3.655-24.939a13.636 13.636 0 0 0-9.663-2.217c-5.562.89-8.669 3.813-14.5-2.007z" class="prefix__cls-12" data-name="Path 1695" transform="translate(-496.59 -233.079)"/>
                <path id="prefix__Path_1696" d="M551.189 271.682c-.009.01-6.755 7.109-13.425 5.553-3.866-.9-2.605-5.581-3.523-7.75 0 0-3.974-.911-3.976-.925-.141.159-.286.329-.437.517 0 0-6.637 6.9-10.383 20.617-3.5 12.811-3.263 24.275 12.311 26.154a20.505 20.505 0 0 0 23.213-16.5s-4.925-15.157 3.655-24.939a12.9 12.9 0 0 0-7.435-2.727z" class="prefix__cls-14" data-name="Path 1696" transform="translate(-496.59 -230.804)"/>
                <path id="prefix__Path_1697" d="M536.4 313.2a21.1 21.1 0 0 0 8.63-13.228s.437 1.436 2.267.8c.832-.292.508-2.834.22-6.077-.994.629-2.135.573-3.33-1-3.624-4.752 1.3-20.427 1.319-20.484a12.833 12.833 0 0 0-2.165-.656c-2.67 1.573-5.784 8.772-9.066 10.941s-10.29 1.5-11.847-2 .672-11.659.672-11.659c-.726-.167-1.618-.373-2.192-.508-2.895 2.076-4.959 8.163-8.51 14.54-2.5 4.488-5.224 3.469-6.682 2.4-.082.552-.141 1.113-.173 1.683 0 0-1.179 4.261 3.617 3.688-1.6 6.282-2.18 12.166-.355 16.656a14.1 14.1 0 0 0 4.425 2.5c5.72 1.933 17.581 2.384 23.17 2.404z" class="prefix__cls-15" data-name="Path 1697" transform="translate(-486.649 -231.426)"/>
                <path id="prefix__Path_1698" d="M551.114 284.162c2.225-9.455 4.334-12.066 4.334-12.066-.218-.745-1.108-1.079-2.165-.655s-3.393 3.266-7.064 14.612c0 0-10.963.222-16.606-3.226a61.652 61.652 0 0 1 3.483-14.239 1.85 1.85 0 0 0-2.043-.517 42.983 42.983 0 0 0-5.154 14.014c-1.305 7.154-5.105 8.451-6.8 8.434-3.116 12.273-2.382 23.025 12.657 24.839a20.505 20.505 0 0 0 23.213-16.5s-6.079-5.241-3.855-14.696z" class="prefix__cls-17" data-name="Path 1698" transform="translate(-496.592 -230.315)"/>
                <g id="prefix__Group_1465" data-name="Group 1465" transform="translate(29.414 43.547)">
                    <path id="prefix__Path_1699" d="M582.029 312.013c-2.914-.046-10.949-.436-15.51-3.223a69.965 69.965 0 0 1 1.732-8.965l-3.2.248a46.193 46.193 0 0 0-2.142 7.414 4.717 4.717 0 0 0 2.907 4.115c5.521 2.223 16.212.411 16.213.411z" class="prefix__cls-16" data-name="Path 1699" transform="translate(-562.911 -299.825)"/>
                    <path id="prefix__Path_1700" d="M678.282 306.788a5.039 5.039 0 0 0-1.013-.7 4.892 4.892 0 0 0-.7.143 61.823 61.823 0 0 0-4.525 10.887l2.2-4.445h1.518z" class="prefix__cls-16" data-name="Path 1700" transform="translate(-651.826 -304.931)"/>
                </g>
                <path id="prefix__Path_1701" d="M522.528 467.865s5.584 1.039 8.643.177 5.618-1.161 7.759-.177 5.246-.046 6.724-1.532 3.677 1.265 3.677 1.265a4.578 4.578 0 0 1-1.446 2.081c-1.168 1.006-1.084 2.092-4.728 2.049s-5.769.128-8.779-.183a49.223 49.223 0 0 1-7.129-1.089 6.172 6.172 0 0 1-1.717-1.084z" class="prefix__cls-16" data-name="Path 1701" transform="translate(-500.594 -391.585)"/>
                <path id="prefix__Path_1702" d="M525.633 291.009c3.7.907 9.06-1.945 10.024-4.066s-.555-2.31-1.191-5.777 3.119-12.605 3.119-12.605a42.986 42.986 0 0 0-5.154 14.014c-1.305 7.153-5.105 8.45-6.798 8.434z" class="prefix__cls-16" data-name="Path 1702" transform="translate(-503.123 -230.804)"/>
                <path id="prefix__Path_1703" fill="#f7941e" d="M621.434 274.913c-.369-.046-.75-.078-1.142-.089-.009.01-6.755 7.109-13.425 5.553-3.866-.9-2.605-5.581-3.523-7.75l-.917-.211a14.225 14.225 0 0 1 .435 3.807c.037 2.6.148 5.117 3.486 5.71a14.288 14.288 0 0 0 12.014-3.634 22.262 22.262 0 0 0 3.072-3.386z" data-name="Path 1703" transform="translate(-565.694 -233.946)"/>
                <path id="prefix__Path_1704" d="M562.152 290.29a23.276 23.276 0 0 0-6.856 17.331c.223 11.2-10.812 25.93-29.452 18.623 1.908 3.816 5.787 6.484 12.618 7.308a20.506 20.506 0 0 0 23.213-16.5s-6.082-5.241-3.858-14.7 4.335-12.062 4.335-12.062z" class="prefix__cls-16" data-name="Path 1704" transform="translate(-503.295 -248.509)"/>
                <g id="prefix__Group_1466" data-name="Group 1466" transform="translate(29.17 52.956)">
                    <path id="prefix__Path_1705" d="M561.623 352.085a1.492 1.492 0 1 0 1.758-1.445 1.62 1.62 0 0 0-1.758 1.445z" class="prefix__cls-3" data-name="Path 1705" transform="translate(-561.59 -350.619)"/>
                    <path id="prefix__Path_1706" d="M562.921 350.74a1.931 1.931 0 0 0-.515 1.013 1.621 1.621 0 0 0 1.138 1.972 1.272 1.272 0 0 0 .46 0 1.4 1.4 0 0 1-1.243.432 1.62 1.62 0 0 1-1.138-1.972 1.732 1.732 0 0 1 1.298-1.445z" class="prefix__cls-5" data-name="Path 1706" transform="translate(-561.59 -350.718)"/>
                    <path id="prefix__Path_1707" d="M571.229 353.784a1.887 1.887 0 0 0-.477-1.605c-.664-.614-1.399-.047.477 1.605z" class="prefix__cls-20" data-name="Path 1707" transform="translate(-568.471 -351.694)"/>
                </g>
                <g id="prefix__Group_1467" data-name="Group 1467" transform="translate(49.935 55.885)">
                    <path id="prefix__Path_1708" d="M673.73 367.9a1.492 1.492 0 1 0 1.759-1.445 1.621 1.621 0 0 0-1.759 1.445z" class="prefix__cls-3" data-name="Path 1708" transform="translate(-673.697 -366.434)"/>
                    <path id="prefix__Path_1709" d="M675.029 366.555a1.928 1.928 0 0 0-.516 1.013 1.621 1.621 0 0 0 1.138 1.972 1.266 1.266 0 0 0 .46 0 1.4 1.4 0 0 1-1.243.432A1.621 1.621 0 0 1 673.73 368a1.732 1.732 0 0 1 1.299-1.445z" class="prefix__cls-5" data-name="Path 1709" transform="translate(-673.697 -366.533)"/>
                    <path id="prefix__Path_1710" d="M683.336 369.6a1.887 1.887 0 0 0-.477-1.605c-.659-.614-1.399-.047.477 1.605z" class="prefix__cls-20" data-name="Path 1710" transform="translate(-680.578 -367.509)"/>
                </g>
                <path id="prefix__Path_1711" d="M521.324 472.524s12.255 5.18 33.805-.913a6.471 6.471 0 0 1 .13 3.4c-.5 1.4-20.259 7.342-33.774.834a4.484 4.484 0 0 1-.161-3.321z" class="prefix__cls-21" data-name="Path 1711" transform="translate(-499.39 -396.245)"/>
                <path id="prefix__Path_1712" d="M576.248 489.222c-2.028.306-4.309-2.246-5.723-2.832a57.974 57.974 0 0 1-9.912-.056s.823 3.057-1.091 3.032-.161.411-.161.411l2.586.234 7.676.247s.938.189 2.114.36c1.582-.14 3.1-.341 4.512-.58-.049-.08.086-.722-.001-.816z" class="prefix__cls-22" data-name="Path 1712" transform="translate(-530.007 -408.241)"/>
                <path id="prefix__Path_1713" fill="#a97c50" d="M555.6 472.188c-.075-.35-.145-.577-.145-.577-21.55 6.094-33.805.913-33.805.913a2.612 2.612 0 0 0-.2.6c1.457.546 13.663 4.713 34.15-.936z" data-name="Path 1713" transform="translate(-499.712 -396.245)"/>
                <path id="prefix__Path_1714" d="M555.27 481.627c-.5 1.4-20.259 7.342-33.775.835a5.61 5.61 0 0 1-.412-1.59 5.233 5.233 0 0 0 .412 2.407c13.516 6.508 33.277.57 33.775-.834a4.334 4.334 0 0 0 .176-1.709 3.482 3.482 0 0 1-.176.891z" class="prefix__cls-22" data-name="Path 1714" transform="translate(-499.4 -403.68)"/>
                <path id="prefix__Path_1715" d="M580.209 478.914c-.215-.816-6.111-.964-6.815-.148 0 0-1.149 4.858-.334 5.9s5.531 1.3 6.511.667.853-5.603.638-6.419zm-1.6 5.329c-.665.428-3.867.252-4.421-.453s.227-4 .227-4c.478-.554 4.482-.453 4.628.1s.228 3.925-.438 4.353z" class="prefix__cls-3" data-name="Path 1715" transform="translate(-541.527 -401.632)"/>
                <g id="prefix__Group_1468" data-name="Group 1468" transform="translate(31.241 77.156)">
                    <path id="prefix__Path_1716" d="M584.4 481.741c-.146-.554-4.149-.655-4.627-.1a14.914 14.914 0 0 0-.415 3.313 18.258 18.258 0 0 1 .415-2.682c.478-.554 4.482-.453 4.627.1a7.1 7.1 0 0 1 .1 1.23 9.75 9.75 0 0 0-.1-1.861z" class="prefix__cls-5" data-name="Path 1716" transform="translate(-578.131 -481.272)"/>
                    <path id="prefix__Path_1717" d="M579.573 496.3c-.979.63-5.695.371-6.511-.668a2.108 2.108 0 0 1-.286-1.139 3.058 3.058 0 0 0 .286 1.769c.816 1.038 5.531 1.3 6.511.667.646-.415.811-2.716.787-4.469-.022 1.63-.217 3.469-.787 3.84z" class="prefix__cls-5" data-name="Path 1717" transform="translate(-572.77 -490.385)"/>
                </g>
                <path id="prefix__Path_1718" d="M579.674 488.538s9.006-.3 12.455 4.488a5.489 5.489 0 0 1-1.418 3.087s-3.643-4.308-11.36-4.447a8.665 8.665 0 0 1 .323-3.128z" class="prefix__cls-21" data-name="Path 1718" transform="translate(-546.867 -410.034)"/>
                <path id="prefix__Path_1719" d="M591.863 502.759a5.359 5.359 0 0 1-1.336 2.587s-3.594-4.246-11.2-4.442a5.913 5.913 0 0 0 .026.84c7.717.139 11.36 4.447 11.36 4.447a5.489 5.489 0 0 0 1.418-3.087c-.086-.118-.176-.233-.268-.345z" class="prefix__cls-22" data-name="Path 1719" transform="translate(-546.869 -420.112)"/>
                <g id="prefix__Group_1469" data-name="Group 1469" transform="translate(33.759 79.765)">
                    <path id="prefix__Path_1720" d="M589.329 496.114l-2.658-.114a.321.321 0 0 1-.306-.334.321.321 0 0 1 .334-.306l2.657.115a.321.321 0 0 1 .306.334.321.321 0 0 1-.333.305z" class="prefix__cls-3" data-name="Path 1720" transform="translate(-586.365 -495.358)"/>
                </g>
                <path id="prefix__Path_1721" d="M589.329 496.5l-2.657-.115a.32.32 0 0 1-.262-.159.315.315 0 0 0-.044.145.321.321 0 0 0 .306.334l2.657.115a.321.321 0 0 0 .334-.306.318.318 0 0 0-.044-.175.32.32 0 0 1-.29.161z" class="prefix__cls-5" data-name="Path 1721" transform="translate(-552.607 -416.301)"/>
                <path id="prefix__Path_1722" d="M555.787 492.881a.36.36 0 1 0 .36-.36.36.36 0 0 0-.36.36z" class="prefix__cls-22" data-name="Path 1722" transform="translate(-527.692 -413.282)"/>
                <path id="prefix__Path_1723" d="M538.67 488.9a.36.36 0 1 0 .36-.36.36.36 0 0 0-.36.36z" class="prefix__cls-22" data-name="Path 1723" transform="translate(-513.746 -410.034)"/>
                <path id="prefix__Path_1724" d="M656.4 520.146s1.611 5.351-1.877 9.679c-4.727 5.865-2.654 7.457-2.951 8.9-.292 1.417-2.979-2.562-3.143-8.094-.143-4.863 1.459-5.147 7.971-10.485z" class="prefix__cls-18" data-name="Path 1724" transform="translate(-603.168 -435.79)"/>
                <path id="prefix__Path_1725" d="M531.783 526.9s-.185 4.783 1.631 7.231a47.987 47.987 0 0 1 3.531 5.559c1.322 2.26 1.468 3.909 1.735-.831.246-4.387-4.895-5.845-6.897-11.959z" class="prefix__cls-18" data-name="Path 1725" transform="translate(-508.13 -441.29)"/>
                <g id="prefix__Group_1476" data-name="Group 1476" transform="translate(29.417 21.47)">
                    <path id="prefix__Path_1726" d="M612.615 202.565a2.527 2.527 0 0 0 1.686.971 2.653 2.653 0 0 0 .46.017c.048 0 .1 0 .148-.007l.141-.02c.047-.007.093-.017.14-.027a2.877 2.877 0 0 0 .3-.085 2.54 2.54 0 0 0 .7-.383 2.5 2.5 0 0 0 .973-1.69.406.406 0 0 0-.806-.108 1.737 1.737 0 0 1-3.1.836 1.739 1.739 0 0 1-.345-1.28.407.407 0 0 0-.774-.22.127.127 0 0 0-.017.056.054.054 0 0 0-.005.028.028.028 0 0 0 0 .016.031.031 0 0 1 0 .016 2.509 2.509 0 0 0 .499 1.88z" data-name="Path 1726" transform="translate(-602.978 -196.678)"/>
                    <path id="prefix__Path_1727" d="M582.1 192.955c.113-.119.595-.924.595-.924.625-2.4 2.8-6.042 3.291-7.075.024-.058.05-.112.076-.163.168-.355.273-.554.273-.554s.9-1.435 1-1.566a5.1 5.1 0 0 1 1.175-1.122c3.39-2.285 7.33.109 9.687 2.7 1.019 1.115 1.867 2.373 2.778 3.572.125.159.247.319.371.475a17.545 17.545 0 0 0 3.478 3.794s-4.344 6.011-4.5 6.36-7.527 3.018-8.084 2.816-6.325-3.715-7.514-4.242a11.427 11.427 0 0 1-2.916-2.425 5.057 5.057 0 0 1 .29-1.646z" class="prefix__cls-12" data-name="Path 1727" transform="translate(-578.302 -180.633)"/>
                    <path id="prefix__Path_1728" d="M581.811 194.6a11.427 11.427 0 0 0 2.916 2.425c1.189.527 6.957 4.04 7.514 4.242s7.929-2.466 8.084-2.816 4.5-6.359 4.5-6.36a17.545 17.545 0 0 1-3.478-3.794c-.124-.156-.246-.315-.371-.475-.911-1.2-1.759-2.457-2.778-3.572-2.357-2.593-6.3-4.987-9.687-2.7a5.1 5.1 0 0 0-1.175 1.122c-.1.131-1 1.566-1 1.566s-.105.2-.273.554c-.026.051-.052.105-.076.163-.488 1.032-2.667 4.677-3.291 7.075 0 0-.481.806-.595.924a5.057 5.057 0 0 0-.29 1.646zm4.086-8.1c.443-1.023 2.286-3.854 2.286-3.854 5.39-2.8 10.637 4.269 11.628 6.2a10.351 10.351 0 0 0 3.1 3.313s-2.251 3.655-3.827 4.269-2.721-1.364-3.474-2.834a3.559 3.559 0 0 0-2.521-1.7 2.533 2.533 0 0 0-2.046-3.063 3.121 3.121 0 0 0-3.052 1.291 14.3 14.3 0 0 0-3.189-.3c-.883.147.651-2.297 1.098-3.322z" class="prefix__cls-11" data-name="Path 1728" transform="translate(-578.302 -180.633)"/>
                    <path id="prefix__Path_1729" d="M565.616 225.747a6.4 6.4 0 0 1-2.358.242c1.844-1.226 2.293-4.24 2.293-4.24a2.873 2.873 0 0 1-1.977.71c.382-.465 1.546-2.206 1.166-3.644a17.412 17.412 0 0 1-.99-5.717 24.672 24.672 0 0 1 .463-2.62c.526-5.664 6.62-10.378 6.742-10.382.05.714-4.834 8.288-2.982 9.791 1.219.99 1.771 1.7 6.084.318.015 0 3.817 4.553 8.036 3.6a7.117 7.117 0 0 0 1.053-.324c.049-.018.1-.038.154-.061.09-.035.182-.074.266-.115 2.7-1.236 4.873-3.987 5.837-5.292l.053-.055c.141.1 2.171 1.391 4.562-1.058a4.729 4.729 0 0 1 1.986 1.632 10.666 10.666 0 0 1 1.542 5.762c-.127-1.508-2.359-3.034-2.482-3.119 3.272 3.728-.251 8.371-.251 8.371.591-1.578-.775-3.985-.775-3.985a8.708 8.708 0 0 1-1.594 5.35s-1.129 3.151-5.589 5.4a23.892 23.892 0 0 0 .816-3.4s-5.787 4.295-7.14 6.693a7.744 7.744 0 0 1 1.26-4.655q-.525.333-1.034.7c-.848.608-1.952 1.508-1.952 1.508-6.254 3.36-10.706 2.677-13.276 1.582a8.393 8.393 0 0 1-2.605-1.656 6.183 6.183 0 0 0 2.692-1.336z" class="prefix__cls-24" data-name="Path 1729" transform="translate(-562.927 -196.492)"/>
                    <path id="prefix__Path_1730" d="M570.381 209.784c.846-.1 2.175-.271 3.3-.514-.563-2.327 3.391-8.53 3.346-9.173-.115.003-5.72 4.338-6.646 9.687z" class="prefix__cls-25" data-name="Path 1730" transform="translate(-569 -196.492)"/>
                    <path id="prefix__Path_1731" d="M616.23 245.487s1.366 2.406.775 3.985c0 0 3.523-4.644.251-8.371.123.085 2.355 1.61 2.482 3.119a10.665 10.665 0 0 0-1.542-5.762 4.728 4.728 0 0 0-1.986-1.632c-2.39 2.449-4.421 1.153-4.562 1.058l-.053.055c-.964 1.3-3.133 4.056-5.837 5.292-.084.041-.176.081-.266.115-.051.023-.106.043-.154.061a7.116 7.116 0 0 1-1.053.324c-4.219.955-8.021-3.6-8.036-3.6a14.619 14.619 0 0 1-3.312.758c-.3.647-.5 1.092-.5 1.092s-.29 2.607 1.605 3.067 3.952-.23 2.722 4.082-6.6 5.289-6.6 5.289 5.878.4 9.964-2.906a7.558 7.558 0 0 1-3.029 4.11 6.259 6.259 0 0 0 2.877.329c.933-.129 1.007.555.881 1.2l.142-.074s1.1-.9 1.952-1.508q.508-.362 1.034-.7a7.744 7.744 0 0 0-1.26 4.655c1.352-2.4 7.14-6.693 7.14-6.693a23.9 23.9 0 0 1-.816 3.4c4.46-2.252 5.589-5.4 5.589-5.4a8.709 8.709 0 0 0 1.592-5.345z" class="prefix__cls-25" data-name="Path 1731" transform="translate(-585.117 -226.417)"/>
                    <g id="prefix__Group_1472" data-name="Group 1472" transform="translate(8.285 12.958)">
                        <g id="prefix__Group_1470" data-name="Group 1470">
                            <path id="prefix__Path_1732" fill="#6f1c24" d="M608.5 250.593a9.089 9.089 0 0 0-.828 3.661 1.382 1.382 0 0 0 .694 1.18c.82.413 1.553-.151 2.087-.834a7.3 7.3 0 0 0 .9-1.547c-.26-2.381-2.853-2.46-2.853-2.46z" data-name="Path 1732" transform="translate(-607.654 -250.593)"/>
                        </g>
                        <g id="prefix__Group_1471" data-name="Group 1471" transform="translate(.017 3.38)">
                            <path id="prefix__Path_1733" fill="#f6353b" d="M607.748 269.123a1.382 1.382 0 0 0 .694 1.18c.82.413 1.553-.151 2.087-.834a2.365 2.365 0 0 0-2.781-.346z" data-name="Path 1733" transform="translate(-607.748 -268.842)"/>
                        </g>
                    </g>
                    <g id="prefix__Group_1473" data-name="Group 1473" transform="translate(0 11.052)">
                        <path id="prefix__Path_1734" d="M731.518 260.709c.781-1.67 1.526-4.48-.6-6.9a8.546 8.546 0 0 1 1.98 1.89 9.722 9.722 0 0 0-.957-.76c3.272 3.728-.251 8.371-.251 8.371a4.1 4.1 0 0 0-.172-2.601z" class="prefix__cls-25" data-name="Path 1734" transform="translate(-699.801 -251.304)"/>
                        <path id="prefix__Path_1735" d="M736.522 240.3a5.054 5.054 0 0 1 .925.988 10.665 10.665 0 0 1 1.542 5.762 3.44 3.44 0 0 0-1.039-1.885 10.121 10.121 0 0 0-1.428-4.865z" class="prefix__cls-25" data-name="Path 1735" transform="translate(-704.368 -240.304)"/>
                        <path id="prefix__Path_1736" d="M696.686 282.837a8.709 8.709 0 0 0 1.594-5.351 7.814 7.814 0 0 1 .916 2.854 8.911 8.911 0 0 1-1.486 3.627s-1.129 3.151-5.589 5.4c0 0 .308-.949.562-2.053a10.3 10.3 0 0 0 4.003-4.477z" class="prefix__cls-25" data-name="Path 1736" transform="translate(-668.19 -270.599)"/>
                        <path id="prefix__Path_1737" d="M564.509 331.99c2.57 1.1 7.021 1.778 13.276-1.582 0 0 1.1-.9 1.952-1.508q.508-.362 1.034-.7a7.867 7.867 0 0 0-1.1 2.648c-.484.378-.863.687-.863.687-6.254 3.36-10.706 2.677-13.276 1.582a8.393 8.393 0 0 1-2.605-1.656 3.739 3.739 0 0 0 .382-.084 10.125 10.125 0 0 0 1.2.613z" class="prefix__cls-25" data-name="Path 1737" transform="translate(-562.927 -311.923)"/>
                        <path id="prefix__Path_1738" d="M664.026 317.2a19.675 19.675 0 0 1-.5 2.309c-1.813 1.447-4.713 3.907-5.619 5.514a7.416 7.416 0 0 1 .42-2.939 55.187 55.187 0 0 1 5.699-4.884z" class="prefix__cls-25" data-name="Path 1738" transform="translate(-640.302 -302.96)"/>
                    </g>
                    <path id="prefix__Path_1739" fill="#fff" d="M575.911 235.3s-.128-1.214-1.874-1.868-2.874.283-4.018.486a21.069 21.069 0 0 1-2.858.24l1.469 1.133s-.436.517-1.783.352a5.662 5.662 0 0 1-2.134-.654 5.072 5.072 0 0 0 3.487 4.171c3.321 1.244 6.812-1.333 6.812-1.333a7.127 7.127 0 0 0 1.167 3.108 13.055 13.055 0 0 0 1.778 1.734l-.064-1a3.486 3.486 0 0 0 2.326 1.308c2.6.585 4.949-1.933 4.949-1.933a3.384 3.384 0 0 1-2.571-1.691c-.99-1.634-2-3.613-3.317-4.108a6.853 6.853 0 0 0-3.369.055z" data-name="Path 1739" transform="translate(-564.382 -223.47)"/>
                    <path id="prefix__Path_1740" d="M575.911 235.3s-.128-1.214-1.874-1.868-2.874.283-4.018.486a21.069 21.069 0 0 1-2.858.24l1.469 1.133s-.436.517-1.783.352a5.662 5.662 0 0 1-2.134-.654 5.072 5.072 0 0 0 3.487 4.171c3.321 1.244 6.812-1.333 6.812-1.333a7.127 7.127 0 0 0 1.167 3.108 13.055 13.055 0 0 0 1.778 1.734l-.064-1a3.486 3.486 0 0 0 2.326 1.308c2.6.585 4.949-1.933 4.949-1.933a3.384 3.384 0 0 1-2.571-1.691c-.99-1.634-2-3.613-3.317-4.108a6.853 6.853 0 0 0-3.369.055z" class="prefix__cls-24" data-name="Path 1740" transform="translate(-564.382 -223.47)"/>
                    <path id="prefix__Path_1741" d="M619.226 236.69a7.875 7.875 0 0 0-2.816.194 2.432 2.432 0 0 0-1.562-1.737 2.335 2.335 0 0 0 0 2.757c.965 1.7 3.91 1.022 4.378-1.214z" class="prefix__cls-29" data-name="Path 1741" transform="translate(-604.881 -225.049)"/>
                    <g id="prefix__Group_1475" data-name="Group 1475" transform="translate(.331 10.693)">
                        <g id="prefix__Group_1474" data-name="Group 1474" transform="translate(0 .831)">
                            <path id="prefix__Path_1742" d="M565.806 243.291a5.312 5.312 0 0 0 3.008 2.591c3.321 1.244 6.812-1.333 6.812-1.333a7.128 7.128 0 0 0 1.167 3.108 13.053 13.053 0 0 0 1.778 1.734l-.064-1a3.486 3.486 0 0 0 2.326 1.309 4.9 4.9 0 0 0 3.719-.921 2.614 2.614 0 0 0 .616.124s-2.352 2.518-4.949 1.933a3.486 3.486 0 0 1-2.326-1.308l.064 1a13.054 13.054 0 0 1-1.778-1.734 7.127 7.127 0 0 1-1.167-3.108s-3.491 2.577-6.812 1.333a5.072 5.072 0 0 1-3.487-4.171 4.751 4.751 0 0 0 1.093.443z" class="prefix__cls-25" data-name="Path 1742" transform="translate(-564.713 -242.848)"/>
                        </g>
                        <path id="prefix__Path_1743" d="M577.928 238.362l2.6.831-1.13.3z" class="prefix__cls-25" data-name="Path 1743" transform="translate(-575.48 -238.362)"/>
                    </g>
                    <path id="prefix__Path_1744" d="M603.4 196.322c-3.718-1.587-5.321-1.465-6.613-1.292-.321.043-.542-.278-.291-.477 4.704-3.733 8.452 2.428 6.904 1.769z" class="prefix__cls-30" data-name="Path 1744" transform="translate(-590.193 -190.989)"/>
                    <path id="prefix__Path_1745" d="M603.4 199.963c-3.718-1.587-5.321-1.465-6.613-1.292-.321.043-.542-.278-.291-.477.179-.142.355-.268.531-.382-.337.287-.549.492-.459.6.058.071.541-.015.8-.072 1.329-.3 3.562.076 6.146 1.255.113.051-.135-.511-.484-1.012.77.838.983 1.64.37 1.38z" class="prefix__cls-29" data-name="Path 1745" transform="translate(-590.193 -194.63)"/>
                    <path id="prefix__Path_1746" d="M654.389 213.906c3.834 1.279 4.953 2.434 5.805 3.42.211.245.59.152.534-.163-1.043-5.914-7.928-3.788-6.339-3.257z" class="prefix__cls-30" data-name="Path 1746" transform="translate(-637.254 -207.085)"/>
                    <path id="prefix__Path_1747" d="M654.389 214.023c3.834 1.279 4.953 2.434 5.805 3.42.211.245.59.152.534-.163-.04-.225-.089-.436-.144-.638.062.439.084.732-.056.755-.09.015-.395-.37-.547-.582-.8-1.106-2.715-2.306-5.431-3.138-.119-.036.44-.293 1.033-.436-1.13.114-1.822.572-1.194.782z" class="prefix__cls-29" data-name="Path 1747" transform="translate(-637.254 -207.201)"/>
                    <path id="prefix__Path_1748" fill="#f9c7a5" fill-rule="evenodd" d="M616.273 228.26a2.328 2.328 0 1 0 2.328-2.328 2.328 2.328 0 0 0-2.328 2.328z" data-name="Path 1748" transform="translate(-606.392 -217.542)"/>
                    <path id="prefix__Path_1749" fill="#efb086" fill-rule="evenodd" d="M616.651 231.649a2.292 2.292 0 0 0-.02.289 2.327 2.327 0 0 0 4.278 1.269 2.327 2.327 0 1 1-4.258-1.558z" data-name="Path 1749" transform="translate(-606.392 -222.2)"/>
                </g>
                <g id="prefix__Group_1477" data-name="Group 1477" transform="translate(47.11 9.507)">
                    <path id="prefix__Path_1750" d="M672.084 125.937a4.567 4.567 0 1 1-3.921-5.132 4.567 4.567 0 0 1 3.921 5.132z" class="prefix__cls-16" data-name="Path 1750" transform="translate(-662.149 -119.891)"/>
                    <path id="prefix__Path_1751" d="M667.539 121.221a4.567 4.567 0 1 1-3.921-5.132 4.567 4.567 0 0 1 3.921 5.132z" class="prefix__cls-17" data-name="Path 1751" transform="translate(-658.445 -116.048)"/>
                    <path id="prefix__Path_1752" fill="#9de2f9" d="M670.68 125.154a3.645 3.645 0 1 1-3.13-4.1 3.645 3.645 0 0 1 3.13 4.1z" data-name="Path 1752" transform="translate(-662.5 -120.103)"/>
                    <path id="prefix__Path_1753" fill="#70d2ed" d="M664.236 125.221a3.642 3.642 0 0 1 6.087-2.19 3.644 3.644 0 1 0-5.729 4.313 3.626 3.626 0 0 1-.358-2.123z" data-name="Path 1753" transform="translate(-662.5 -120.103)"/>
                </g>
                <path id="prefix__Path_1754" d="M673.164 129.506l-1.435-7.014a3.661 3.661 0 0 0-.9.528l1.261 6.343a3.3 3.3 0 0 0 1.075.143z" class="prefix__cls-35" data-name="Path 1754" transform="translate(-621.426 -111.791)"/>
                <path id="prefix__Path_1755" d="M680.547 128.254a3.644 3.644 0 0 0 1.868-.98l-1.226-5.991a3.566 3.566 0 0 0-2.062-.175z" class="prefix__cls-35" data-name="Path 1755" transform="translate(-628.187 -110.601)"/>
                <path id="prefix__Path_1756" d="M572.818 269.324a5.574 5.574 0 0 0 .609 3.883 8.813 8.813 0 0 1 .58 6.561c-.614 1.418 2.606-.633 2.337-5.222s-3.526-5.222-3.526-5.222z" class="prefix__cls-36" data-name="Path 1756" transform="translate(-541.475 -231.426)"/>
                <path id="prefix__Path_1757" d="M644.915 249.723a6.956 6.956 0 0 1 1.711 2.242c.618 1.351 1.074 1.926 1.672 2.1s-2.923.803-3.383-4.342z" class="prefix__cls-36" data-name="Path 1757" transform="translate(-600.311 -215.456)"/>
                <path id="prefix__Path_1758" d="M581.56 241.22s4.175-.041 5.124-1.276-2.345.093-5.124 1.276z" class="prefix__cls-36" data-name="Path 1758" transform="translate(-548.691 -207.085)"/>
                <path id="prefix__Path_1759" d="M526.266 409.307s-1.738 5.32 0 9.344 3.373-4.822 0-9.344z" class="prefix__cls-18" data-name="Path 1759" transform="translate(-503.01 -345.481)"/>
                <g id="prefix__Group_1481" data-name="Group 1481" transform="translate(41.626 45.352)">
                    <g id="prefix__Group_1480" data-name="Group 1480">
                        <g id="prefix__Group_1479" data-name="Group 1479" transform="translate(0 18.335)">
                            <g id="prefix__Group_1478" data-name="Group 1478" transform="translate(1.876)">
                                <path id="prefix__Path_1760" fill="#ad7947" d="M682.128 430.4l-1.616 3.156-41.541-20.341 2.389-4.664z" data-name="Path 1760" transform="translate(-638.971 -408.554)"/>
                            </g>
                            <path id="prefix__Path_1761" fill="#9b6538" d="M679.475 445.813l-39.8-19.489-.7 1.373 41.541 20.341 1.616-3.156-1.707-.915z" data-name="Path 1761" transform="translate(-637.095 -423.032)"/>
                            <path id="prefix__Path_1762" d="M639.792 462.026l-10.95 21.38c-.054-12.58 5.8-24.016 5.8-24.016z" class="prefix__cls-39" data-name="Path 1762" transform="translate(-628.842 -449.974)"/>
                        </g>
                        <path id="prefix__Path_1763" d="M690.224 330.946l10.95-21.38c-10.24 7.309-16.1 18.745-16.1 18.745z" class="prefix__cls-39" data-name="Path 1763" transform="translate(-674.661 -309.566)"/>
                    </g>
                    <path id="prefix__Path_1764" d="M634.647 459.39c1.982 6.124-5.8 24.016-5.8 24.016l10.95-21.38z" class="prefix__cls-40" data-name="Path 1764" transform="translate(-628.844 -431.639)"/>
                    <path id="prefix__Path_1765" d="M701.173 309.566c-10.08 15.742-16.1 18.745-16.1 18.745l5.147 2.636s9.768-19.529 10.953-21.381z" class="prefix__cls-40" data-name="Path 1765" transform="translate(-674.661 -309.566)"/>
                    <path id="prefix__Path_1766" d="M635.791 501.839s.706-6.323 2.287-10.136.831 3.237-2.287 10.136z" class="prefix__cls-41" data-name="Path 1766" transform="translate(-634.504 -457.093)"/>
                    <path id="prefix__Path_1767" d="M702.5 340.274s6.09-5.311 8.586-9.7-6.778 6.091-8.586 9.7z" class="prefix__cls-41" data-name="Path 1767" transform="translate(-688.859 -325.82)"/>
                    <path id="prefix__Path_1768" d="M665.458 415.361l-2.139 4.177a3.09 3.09 0 0 1-4.159 1.342l-6.6-3.378a3.09 3.09 0 0 1-1.342-4.159l2.139-4.177a3.09 3.09 0 0 1 4.159-1.342l6.6 3.378a3.09 3.09 0 0 1 1.342 4.159z" class="prefix__cls-39" data-name="Path 1768" transform="translate(-646.799 -389.347)"/>
                    <path id="prefix__Path_1769" d="M664.116 427.535l-.011-.006-2.274 4.44a2.8 2.8 0 0 1-3.764 1.215l-6.846-3.506a3.09 3.09 0 0 0 1.343 4.157l6.6 3.378a3.09 3.09 0 0 0 4.159-1.342l1.07-2.088 1.069-2.089a3.09 3.09 0 0 0-1.346-4.159z" class="prefix__cls-40" data-name="Path 1769" transform="translate(-646.799 -405.679)"/>
                    <path id="prefix__Path_1770" d="M857.81 521.223a2.559 2.559 0 1 1-3.612.22 2.559 2.559 0 0 1 3.612-.22z" class="prefix__cls-39" data-name="Path 1770" transform="translate(-811.933 -481.495)"/>
                    <path id="prefix__Path_1771" d="M858.328 524.66a2.559 2.559 0 0 1-2.918.659 2.559 2.559 0 1 0 3.217-3.635 2.559 2.559 0 0 1-.299 2.976z" class="prefix__cls-40" data-name="Path 1771" transform="translate(-813.444 -482.395)"/>
                </g>
                <path id="prefix__Path_1772" d="M765.22 466.148l6.113 3.454a2.646 2.646 0 0 1 1 3.606l-1.923 3.4a2.647 2.647 0 0 1-3.607 1l-6.113-3.454a2.647 2.647 0 0 1-1-3.606l1.924-3.4a2.647 2.647 0 0 1 3.606-1z" class="prefix__cls-12" data-name="Path 1772" transform="translate(-693.548 -391.514)"/>
                <path id="prefix__Path_1773" d="M771.549 486.583a2.633 2.633 0 0 1-.313 1.688l-1.924 3.4a2.647 2.647 0 0 1-3.606 1l-6.113-3.454c-.029-.016-.058-.034-.087-.052a2.642 2.642 0 0 0 1.316 1.918l6.113 3.454a2.647 2.647 0 0 0 3.607-1l1.923-3.4a2.646 2.646 0 0 0-.916-3.554z" class="prefix__cls-11" data-name="Path 1773" transform="translate(-693.677 -408.444)"/>
            </g>
            <path id="prefix__Path_1774" d="M610.242 211.35c-.255.736-.841 1.2-1.309 1.038s-.641-.89-.386-1.626.841-1.2 1.309-1.039.644.891.386 1.627z" class="prefix__cls-24" data-name="Path 1774" transform="translate(-570.583 -182.839)"/>
            <path id="prefix__Path_1775" d="M658.434 227.14c-.271.782-.894 1.276-1.392 1.1s-.682-.947-.411-1.729.894-1.276 1.392-1.1.677.947.411 1.729z" class="prefix__cls-24" data-name="Path 1775" transform="translate(-609.756 -195.619)"/>
            <path id="prefix__Path_1776" fill="#fcd9c3" d="M622.765 228.512a1.8 1.8 0 0 1 2.9 1.546 4.137 4.137 0 0 0-2.9-1.546z" data-name="Path 1776" transform="translate(-582.264 -197.895)"/>
            <path id="prefix__Path_1777" fill="#f9d3b9" d="M775.893 324.838a12.7 12.7 0 0 1 7.473 8.872c1.38 6.62 6.036 8.23 5.346 12.886 0 0-2.529-4.388-4.714-5.442s-3.083-11.408-8.105-16.316z" data-name="Path 1777" transform="translate(-707.029 -276.658)"/>
        </g>
    </g>
</svg>
